<svg xml:space="preserve" width="54.249" height="54.249" xmlns="http://www.w3.org/2000/svg">

<style>
  path {
    fill: #515661;
    stroke: #515661;
  }
  @media (prefers-color-scheme: dark) {
    path { 
      fill: #ffffff;
      stroke: #ffffff;
    }
  }
</style>

<path d="M40.508 21.277c0 10.926-8.86 19.786-19.785 19.786-10.926 0-19.782-8.86-19.782-19.786 0-10.925 8.856-19.781 19.782-19.781 10.925 0 19.785 8.856 19.785 19.781z" style="fill:none;stroke-width:1.1196;stroke-linecap:butt;stroke-linejoin:miter;stroke-miterlimit:3.8637;stroke-dasharray:none;stroke-opacity:1" transform="matrix(1.33333 0 0 1.33333 -.508 -1.248)"/>

<path d="M24.406 36.316c.297-.117.789-.515.848-.691.062-.176.238-.137.277 0 .039.141.16.496.239.613.078.117.078.2-.04.258-.117.059-.421.016-.617.137-.199.117-.445.16-.605.258-.156.097-.278.109-.473.109-.199 0-.332.09-.433.109-.098.02-.446-.019-.602-.019-.16 0-.402.062-.539.062-.141 0-.27-.117-.129-.214a.892.892 0 0 1 .434-.161c.156-.019.375-.078.492-.175.117-.102.18-.18.18-.18s.394-.02.589-.039c.2-.024.082.055.379-.067zM20.844 28.926c.172.101.566.265.586.422.019.16-.192.64-.43.64-.234 0-1.332-.609-1.156-.91.301-.512.707-.316 1-.152zM28.625 14.078c-.305-.039-.625-.156-.387-.383.258-.246.196-.465.336-.636.129-.153.274-.317.235-.469-.036-.152-.344-.344-.188-.496.152-.153.418-.574.531-.918.118-.344.727-1.754.84-2.059.117-.304.117-.609.27-.801.152-.191.867-1.257 1.332-1.339a1.84 1.84 0 0 1 .707.007s1.031.797 1.25 1.02c.289.297 2.34 2.832 2.597 3.246.137.219 1.727 3.273 1.95 4.051.086.297.398 1.121.519 1.566.043.168.395 2.399.395 2.399s-.77.363-.903-.153c-.07-.285-.281-1.402-.355-1.633-.078-.23-.332-.699-.391-.906a26.264 26.264 0 0 0-.281-1.008c-.078-.23-.559-1.375-.676-1.679-.113-.305-.211-.692-.261-.801-.075-.184-.575-1.035-.043-1.18.511-.14-.52-1.246-.739-1.293-.492-.105-1.644-.578-2.058-.449-.153.047-.293.34-.18.492.113.153 1.02.348 1.242.465.188.098.606.262.567.57-.02.161-.196.411.031.563.23.152.574.156.519.652-.054.492.082.68.305.981.191.261.246.707.359.957.094.203-.574.07-.671-.156-.114-.266-.461-1.051-.672-1.243-.18-.164-.465-.019-.426.172.039.192.434 1.004.633 1.262.23.301.855.539 1.008.844.152.304.457.687.57.879.113.191.562.621.621 1.421.035.532.285 1.075.359 1.266.078.191-.351.258-.492.129-.226-.215-.371-.461-.39-.801-.02-.414-.266-1.437-.641-1.976-.438-.629-.656-.868-.844-1.02-.191-.152-.773-.695-.965-.941-.222-.285-.558-.844-.675-1.227-.114-.379-.508-.285-.567.055-.058.324-.058.605.363 1.101.418.496.563.879.907.954.343.078.535 0 .8.46.27.457.942 1.602.981 1.868.039.269-.672.203-.777-.153-.09-.312-.387-1.078-.5-1.265-.114-.192-.204-.43-.43-.278-.231.153.086.598.152.774.09.226-.34.386-.531.156s-.313-.699-.43-.914c-.105-.188-.359-.441-.488-.379-.254.121-.09.559-.016.863.078.305-.168.442-.382.282-.305-.231-.25-.805-.442-1.071-.187-.265-.492-.418-.531-.687-.039-.266.012-.633.152-.762.266-.25.153-.477.114-.648-.036-.157-.137-.297-.149-.512-.019-.305.188-.309.266-.461.074-.156.054-.414.008-.57-.051-.172-.219-.407.085-.485.309-.074.43-.023.622.051.191.078.656.356.808.356.152 0 .707.011.613-.45-.031-.133-.421-.371-.574-.297-.152.079-.449.094-.621-.039-.226-.172-.848-.781-.887-.855-.039-.078.286-.785.59-.899.309-.113.723-.199.61-.464-.114-.266-.563-.329-.676-.52-.113-.191-.43-.504-.66-.351-.231.152-.493.191-.645.23-.152.039-.422.266-.496.574-.078.305-.734 1.512-.766 1.906-.011.157-.496.536-.418.723.079.192.231.117.383.156.153.036.074.344-.117.571-.187.23-.211.504-.266.609-.093.184-.429.121-.484.301a1.141 1.141 0 0 1-.539.695zM31.031 6.219s-1.238.648-1.468.929c-.176.219-.418 1.344-.504 1.469a1.063 1.063 0 0 0-.161.543c0 .211.036.34-.175.887-.207.547-.375.84-.461 1.262-.082.418.168.671-.043 1.05-.207.375-.418.606-.461.817-.043.211-.246.48-.332.691-.082.211-.672.418-.547.043a23.96 23.96 0 0 0 .73-2.816c.254-1.301.27-1.973.711-3.297.414-1.25 2.004-2.164 2.004-2.164z" style="fill-opacity:1;fill-rule:nonzero;stroke:none" transform="matrix(1.33333 0 0 1.33333 -.508 -1.248)"/>

<path style="fill-opacity:1;fill-rule:nonzero;stroke:none;stroke-width:1.33333" d="M26.057 2.66c-.533-.006-1.065.05-1.205.274-.282.448.895.896 1.625 1.005.729.115 1.135.745 1.187 1.026.057.276.14 2.172.068 2.724-.062.511-.136 1.073-.418 1.688-.28.615-.28 2.297-.671 2.297s-.287-.547-.354-1.4c-.068-.871.135-1.344.135-1.344s.975-1.6.527-2.862c-.161-.457-.678-1.18-1.37-1.26-.392-.046-1.026-.12-1.526-.197-.366-.057-.943-.917-1.09-1.037-.337-.281-1.75-.65-2.072-.535-.714.25-.448 1.853-.975 2.863-.364.699-.551-.046-.838-.525-.385-.652.106-1.38.106-1.38s-.71.172-1.069.333c-.396.181-2.172.87-2.172.87s.897.479 1.094.646c.287.245 1.015.89 1.598.64.245-.109 1.429.817 1.595 1.15.167.34.087 1.793.16 2 .063.178.047.428.172.747 0 .588.411 1.311.588 2.238.282 1.459 1.501 2.652 1.403 2.969-.094.297-.476.161-.819-.219-.297-.323-.974-1.458-1.146-1.797-.167-.333-.036-.697-.166-1.062-.099-.296-.391-.48-.506-.897-.11-.41-.207-2.998-.316-3.445-.115-.448-.765-.871-.932-.762-.172.115-.33.667-.106 1 .224.339.605 2.115.381 3.069-.224.953-.088 3.753.334 5.066.334 1.057-.199 1.068-.703.396-.286-.38-.897-4.652-1.012-5.214-.109-.556-.698-2.771-.953-3.11-.146-.197-.54-.478-.597-.754-.058-.281-.21-1.037-.631-1.12-.219-.042-.443.579-.61.636-.166.052-1.068-.932-1.068-.932s-.64.25-.922.64c-.14.194-1.039 1.01-2.05 1.952l1.3-1.098s.449.174.897.344c.48.183 1.384-.113 2.775 2.71 1.385 2.827 1.297 5.06 1.604 6.138.308 1.079 1.516 1.548 2.287 1.758.77.202.313.796.103 1-.202.202-1.312-.183-1.672-.287-.358-.104-.973-1.028-1.181-1.288-.204-.256.052-.665-.1-.921-.156-.255-.566-.517-.666-.825-.104-.306.203-1.03.203-1.232 0-.204-.306-.924-.306-.924s-.069-.67-.069-1.03-.1-1.324-.365-1.376c-.35-.072-.348.506-.348.506 0 .256-.042 1.126-.25 1.59-.202.462-.464 1.593-.256 3.39.21 1.802 2.137 3.083 2.543 3.547.416.464.646 1.339.438 1.438-.204.104-.256-.255-.412-.46-.15-.207-1.345-1.156-1.928-1.88-1.104-1.359-.983-1.797-1.254-2.797-.542-1.979.254-4.782.358-5.703.057-.51-.188-.755-.448-1.287-.224-.46-.614-.587-1.056-.38-.506.246-.969-.062-1.24-.677-.176-.386-1.046-.105-1.155-.068-.976.911-2.019 1.907-2.574 2.568-1.177 1.401-2.215 2.66-2.943 4.228-.73 1.568-1.682 4.201-1.791 4.758-.115.562-.62 3.234-.688 4-.063.671-.13 4.056-.074 4.446.028.19.318 1.447.607 2.703-.096-.763-.232-2.086-.205-2.457.038-.484.567-.65.62-.688.171-.14 1.625-.733 1.827-.828.334-.156 1.309-1.036 1.413-1.244.104-.204.145-.735.171-1.172.026-.365.093-.756-.136-.828-.27-.079-.567.088-.62.348-.051.256-.212.837-.447.79-.437-.093-.656.73-.656.965 0 .511-.955.588-.934.172.016-.245.449-1.65.46-2.172.01-.38-.401-.729-.204-1.125.158-.312.235-1.49.282-1.687.209-.381 1.135-.657.687.553-.13.358-.312.817.088.978.23.094.376.082.74-.703.246-.516 1.14-.272.725.588-.355.74.469.637.65.709.178.079.209.431.182.666-.041.333.34.406.62.344.282-.058 1.47-.687 2.179-.551.822.156 1.165.28 1.425.379.255.104.667.105.563-.254-.099-.36.288-1.017.34-1.272.052-.256.551-.526.457-.802-.094-.276-.974-.625-1.182-.65-.234-.027-.438.77-.49 1.234-.048.462-.765.469-.916.058-.208-.553-.522-.584-.656-1.308-.094-.5-.553-.523-.897-.793-.614-.495-.115-.864-.14-1.067-.074-.605-.693-.681-.9-.437-.22.256-.575-.037-.81-.063-.338-.037-1.197.104-1.562.15-.52.069-.581.323-.66.526-.172.485-1.162-.176-1.162-.176s1.287-2.729 1.547-3.49c.224-.65 1.318-2.285 1.38-2.447.171-.448.792.244.204 1.072-.37.521-1.413 2.271-1.725 3.203-.188.568.75.5.932.14.114-.234 1-2.003 1.412-2.722.41-.718 1.375-2.38 1.553-2.793.177-.405.587-.795.79-1.207.209-.412.881-.448.62.412-.26.875-1.515 2.874-1.823 3.31-.296.417-1.223 2.053-1.275 2.307-.052.262-.12.642.031.694.156.047.865-.208 1.073-.522.204-.306.958-2.29 1.212-2.65.256-.36.819-1.537 1.125-1.897.314-.358 1.022.138.694.69-.762 1.276-1.547 2.853-1.865 3.275-.37.49.037 1.202.625.62.51-.517.741-1.124.996-1.588.26-.463.64-1.088.797-1.344.15-.255.78-.031.681.38-.105.411-.614 1.313-.928 1.62-.306.308-.484.688-.634.996-.158.312 0 .577.318.78.412.266.615.244.922.552.308.312.608.676.916.828.307.156.744.265.953.676.203.407.515 1.159 1.053 1.361.437.167.567.333.847.692.402.516.568.641.928.615.438-.02.411.516.485.928.052.254-.385 1.025-.385 1.437 0 .416.092 1.567-.256 1.748-.245.13-.785-.174-1.004.018-.204.182-.714.087-.85-.121-.182-.271-.551-.297-.712-.163a.602.602 0 0 1-.829-.019c-.136-.136-.5-.021-.73.072-.65.287-.55-.3-.55-.3s.18-.512.41-.512c.187 0 .462.152.618.105.147-.052.34-.485.553-.652.219-.172.5-.228.371-.572-.084-.203.118-.386.276-.438.29-.099.666-.067.8-.228.104-.126.085-.704-.275-1.012-.359-.307-1.322-.042-1.426.687-.125.927-.985 1.302-1.533 1.444-.692.177-.926 0-1.488-.309-.568-.312-1.762-.322-2.237-.144-.416.156-.67.802-.3.802.364 0 1.25.16 1.64.16.568 0 1.037.209 1.25.657.244.505.23.507-.488.408-1.485-.204-2.937.082-3.756.316-.296.083-1.328.99-1.484 1.069-.11.057-.856.461-1.381.857-.521.396-.437.846-.344 1.346.027.13.173.967.21 1.103l.587-.65c.124-.147 1.067-.695 1.547-1.277.437-.532 1.713-1.265 2.11-1.448 1.12-.526 2.395-.474 2.697-.365.302.11.913.552.533.938-.386.39-1.044.89-1.315 1.056-.276.163-.552-.04-.744.153-.193.192-.708.645-.937.634-.724-.036-1.63.183-1.895.24-.485.105-1.38.421-1.724.667-.344.24-.647.646-.65.88-.017.246.753.532.55.866-.433.697.636.978.428 1.39-.203.416-.339.895-.584.76-.222-.122-.729-1.624-1.053-2.732.104.462.28 1.213.293 1.306.052.391 1.417 3.432 1.584 3.823.192.448 3.88 5.587 4.103 5.76.224.166 5.151 4.135 5.72 4.478.41.245 6.352 2.434 7.237 2.615.871.188 3.69.484 4.315.547.396.036 4.3-.25 5.139-.36.844-.109 4.642-1.39 4.923-1.562.276-.167 4.732-2.684 4.79-2.793.053-.115 1.818-1.629 2.24-1.932.573-.41 3.204-3.62 3.886-4.724.662-1.068 2.488-4.712 2.614-5.03.344-.843 1.058-4.109 1.058-4.109s-1.192-.084-1.306.307c-.11.39-.23.703-.621.703-.396 0-.287-.162-.569-.553-.281-.39-.556-1.234-.613-1.4-.057-.167-.391-.333-.506-.557-.11-.23-.11-1.015-.11-1.015l.053-.34s-.277-.39-.558-.557c-.281-.167-.39-.838-.563-1.344-.166-.505.314-.73.756-.506.454.224.984 1.293 1.15 1.569.167.281.122 1.79.294 1.941.224.199.999.276 1.082-.062.057-.239-.281-.557-.348-.739-.057-.146-.1-.405-.1-.744 0-.333-.197-.558-.588-1.006-.39-.448-.197-.645-.084-.76.11-.109.818.322 1.12.926.28.558.318 1.584.734 1.563.224-.01.252-.87.252-1.656 0-.782-.345-1.26-.668-1.38-.573-.203-1.974-.599-2.422-.712-.448-.11-.839-.225-1.178-.168-.333.056-.529.057-.638-.223-.115-.281.447-.423.447-.59 0-.166-.432-.296-.713-.406-.276-.113-.866-.057-1.033 0-.167.054-.219.265-.61.432-.39.172-1.458.057-1.625-.5-.166-.563.309-1.177.2-1.291-.115-.11-.646.312-.985.422-.333.114-.98.25-1.037-.026-.052-.281.746-.59.746-.59s.406-.337.52-.56c.11-.224-.057-.96-.057-1.184 0-.229-.578-.276-.578-.162 0 .11-.125.589-.406.813-.276.224-.84.448-1.006.506-.167.052-.531.052-.813.052-.28 0-1.036.535-1.375.701-.333.167-.165-.362.059-.529.224-.172.447-.34.729-.34.28 0 .394-.384.613-.556.272-.208.797-.053 1.166-.21.21-.093.288-1.182.346-1.406.057-.224.337-.797.503-1.13.172-.338.068-.588-.046-.979-.11-.396.412-.506.412-.787s-.142-1.425-.194-1.873c-.057-.448.502-.506.559-.787.057-.282-.179-.783-.147-1.121.036-.375.37-.614.594-1.12.23-.503-.276-.56-.5-.394-.224.172-.562.952-.672 1.066-.114.11-.254.39-.3.666-.038.204-.1.948-.21 1.954-.109 1.01-.36 2.756-.583 3.652-.224.895-.423 1.118-.928 1.176-.5.057-.389-.166-.67-.166-.23 0-.309.25-.418.365-.115.115-.53.363-.87.363-.338 0-.224-.281-.224-.39 0-.115.59-.282.756-.454.167-.166.422-.446.14-.613-.28-.166-.427-.001-.671.135-.839.473-.673-.057-.59-.275.073-.172-.645-.334-.863-.334-.224 0-.2.464-.621.615-.391.14-.588.025-.87.082-.28.057-.056.402.084.506.224.166.083.453.614.652.193.067.569.592.793 1.123.166.37.243.688.207 1.584-.016.443-.24 1.069-.276 1.287-.068.484.323.848.323 1.104 0 .286.094.553.187 1.084.088.494 0 .728-.166 1.285a3.087 3.087 0 0 0-.11 1.433c.11.782-.206 1.657-.4 2.16-.166.418-.209 1.063-.209 1.172 0 .11-.286.361-.343.59-.058.219.171.484.171.65 0 .173-.062 1.06-.343 1.06-.276 0-.891.223-1.006.337-.115.11.058.54-.442.707-.505.172-1.072-.098-1.572-.431-.505-.34-.9-1.093-1.015-1.15-.11-.053-.304.035-.418-.022-.11-.058-.197-.506-.364-1.287-.166-.787-.168-1.202.223-1.202.396 0 1.052.77 1.516 1.254.53.563 1.287 1.459 1.568 1.125.281-.338-.03-.588-.307-.984-.281-.39-.282-.833-.449-1.063-.172-.224-.792-.315-.87-.587a1.316 1.316 0 0 0-.364-.647c-.25-.25-.46-.3-.64-.516-.205-.238-.427-.593-.48-.76-.057-.166-.249-.598-.587-.546-.276.046-.144.51.023.728.167.224.263.687.149.854-.11.167-.626.293-.985.183-.272-.077-.339-.183-.762-.25-.442-.073-.51.353-.931.166-.25-.109-.298-.318-.356-.49-.057-.166-.045-.593-.332-.656-.301-.057-.532.033-.474-.357.046-.355.489-.282.713-.225.224.057.298-.385.298-.666 0-.276-.453.014-.427-.652.021-.463.448-.87.562-1.15.115-.277-.218-.71-.281-1.403-.057-.64.056-1.369.394-1.426.334-.057.892.645 1.288 1.26.39.62.65 1.187.978 1.6.281.342.684.578 1.205.755.406.136 1.176.072 1.57-.058.334-.115.602-.573.883-.625.282-.058.318.234.573.343.198.084.337.084.447-.14.11-.224-.505-.672-.729-.781-.224-.115-.953-1.038-1.343-1.038-.506 0-.73-.114-.788-.28-.052-.167.704-.223.928-.223.224 0 .431.26.598.427.172.167.718.42.931.207.167-.166.08-.473.106-.828.025-.364.344-.441.209-.79-.141-.365-1.12.213-2.584.24-1.457.03-2.146-.409-2.791-.715-.505-.246-1.115-.714-1.678-.756-.756-.058-2.24.953-2.603 1.062-.412.126-1.434.058-1.934 0-.504-.057-1.208-.389-1.766-.42-.516-.026-1.254.676-1.515.42-.364-.364.382-.812.73-.869.366-.052 1.39-.057 1.285-.64-.109-.646-1.202-.057-1.76.052-.562.115-.229-.349.135-.515.298-.136.917-.428 1.381-.86.391-.364.501-1.057.553-1.172.276-.656.723-1.589 1.342-2.037.47-.338 1.183-1.02 2.13-1.103.34-.027 1.034-.323 1.518-.584.307-.172-.11-.313-.59-.422-.416-.099-.588-.587-.703-.926-.109-.333-.39-.417-.615-.584-.224-.172-.415-2.074-.473-2.969-.057-.901.057-1.49.448-1.459.557.036.234.906.34 1.479.057.308.546.033.556-.358.01-.338 0-2.356-.308-2.777-.375-.505-2.155-1.78-2.27-1.947-.11-.167-.069-.762-.38-.897-.162-.073-.298.463-.413.963-.115.506.683.987.96 1.377.28.396.62.926.505 1.432-.115.505-.225 3.416-.225 3.697 0 .276-.167.781-.506.781-.333 0-.448-.837-.5-1.119-.057-.28.127-.395.278-.531.13-.115.03-.985-.168-1.012-.224-.025-.505.115-.588-.416-.125-.792.417-.551.453-1.14.027-.484-.276-1.03-.463-1.13-.188-.105-.448-.505-.437-1.09.009-.628-.229-2.868.125-2.868.505 0 1.332.401 1.64.963.307.557 1.85 1.568 2.354 2.24.5.672.499 2.912.332 4.256-.167 1.342.391 2.071.787 2.691.39.615.953 1.23.953 1.453 0 .224.21.516.533.656.167.068 1.26.391 1.791.584.486.182 1 .76 1.62 1.104.474.26 2.193.84 2.583.797 1.312-.14.73-.503.672-.67-.057-.172.354-.684.438-.955.202-.688-.418-.411-.246-1.01.11-.375-.167-.671-.39-.447-.225.224-.199.967-.267 1.357-.062.39-.686.492-.91.268-.224-.224.181-.413.432-.787.208-.308-.312-.376-.656-.334-.443.057-.25-.448.338-.953.36-.307.401-.765.74-1.66.333-.897.765-1.564.765-2.294 0-.729-.561-.233-.728.075-.15.276-.423.958-.565 1.525-.202.803-.67 1.745-1.025 1.625-.27-.088.283-1.26.393-2.437.114-1.178.587-3.052 1.15-4.282.557-1.234 1.61-.943 2.193-.943.547 0 1.123 0 1.707-.51.364-.317.995-.172.995-.172s-1.442-.994-2.114-1.218c-.672-.23-3.13-1.187-3.515-1.266-.667-.136-2.313-.344-2.313-.344s-.24 1.463-.12 1.588c.171.172.88 0 1.224-.037.218-.02 1.109.096 1.172.314.062.214-.208.462-.688.514-.656.068-1.765.159-2.103.383-.334.219-.172.759-.172.926 0 .172.094.037-.47 1.38-.556 1.345-1.119 2.912-1.452 2.86-.339-.057.067-.923.181-1.871.11-.953.726-2.036.45-2.276-.152-.13-.695.48-.659-.037.022-.322.107-2.134-.035-2.894-.14-.782-.782-.939-1.058-.996a8.784 8.784 0 0 0-1.205-.102zM10.535 9.225c.068-.063.13-.126.197-.188l-.236.2.04-.012zM32.666 6.14c.43-.075.644.497.252.798-.317.25-1.275 1.074-1.275 1.45 0 .244.24.138.521.138s.172.689.135 1.24c-.03.553-.156 1.073-.213 1.745-.057.672-.187 1.922-.469 2.312-.281.396-.713.782-.656.225.057-.563 0-1.011-.297-.98-.432.046-.588.447-.922.952-.338.506-.87.449-.928-.39-.057-.844.057-.925 1.01-3.613.954-2.687 1.996-3.423 2.647-3.803a.596.596 0 0 1 .195-.074zM20.152 23.439c.322-.025.626.12.766.266.183.183-.024.558-.16.86-.156.333-.49.894-.744.894-.262 0-1.033-.15-1.131-.666-.094-.453.167-.656.703-1.088a.885.885 0 0 1 .566-.266zm19.045.016c.35.001.711.13 1.145.244.692.178 1.346 1.204 1.763 1.334.214.063 1.94.182 2.09.207.158.027.094.396.12.547.026.157.343.12 1.01.328.671.204.411.976.437 1.23.026.262.31.465.386.647.08.178.08.358.131.51.052.156.448.556-.006.713-.312.11-.921-.25-1.308-.303-.385-.047-1.053-.036-1.203-.062-.156-.02-.162-.582-.438-.614-.188-.025-.67.166-1.285.27-.62.105-1.172.723-1.416.515-.292-.249-.557-.32-.89-.138-.115.062-.574.347-.829.347-.256 0-.553-.276-.449-.38.099-.104.532-.192.715-.344.177-.156.098-.525-.438-.447-.28.042-.172-.536.239-.588.365-.047.458-.678.172-.657-.282.026-.65.126-.91-.078-.257-.208-.002-.462.285-.566.28-.1.796.154 1.078.18.281.026.458-.14.693-.282.301-.181.718-.201.738-.597.022-.396-.327-.635-.457-.713-.125-.079-.933-.543-1.474-.621-.542-.074-.844.224-.916.302-.079.072-.37.262-.666.344-.183.054-.386-.568-.178-.824.307.027.64 0 1.234-.338a1.22 1.22 0 0 1 .627-.166zM23.672 25.23a.263.263 0 0 1 .086.022c.256.099.417.282.437.484.027.282-.265.77-.634.907-.454.172-1.382.046-1.606-.137-.287-.228-.407-.614-.047-.973.542-.437.797-.386.64.078-.098.291-.13.824.542.772.667-.052.563-.516.459-.719-.087-.183-.056-.442.123-.434zm6.894.084c.194-.017.321.086.233.188-.072.088-.342.485-.104.734.178.183.683.303.953 0 .276-.312.027-.454-.025-.558-.052-.104-.011-.285.254-.201.255.078.553.223.553.431 0 .484-.298.682-.688.822-.532.188-1.052.016-1.353-.109-.303-.119-.575-.776-.21-1.119a.656.656 0 0 1 .387-.188zm-5.642.262a.245.245 0 0 1 .103.014c.308.099.63.277.578.69-.046.41-.676.8-.916 1.197-.28.458.135.493.047.681-.141.282-.26.845-.209 1.36.052.485-.896 1.025-.896 1.025s-.54.41-.18.719c.282.244.614.157.692.517.073.338.13 1.056-.178 1.31-.307.256-.693.438-.9.282-.21-.156-.469-.567-.813-.36-.443.267-.238.528-.238.825 0 .29-.486.53-.772.719-.136.088-.543.155-.72.103-.463-.13-.718-.635-.926-.822-.23-.204-.308-.568-.053-.516.26.052.62.157.978.157.36 0 .721-.157.721-.313 0-.152-.209-.459-.209-.459s-.051-.312.262-.312c.307 0 .77.052.973-.407.208-.464.254-.464.359-.672.104-.202-.152-.62-.412-.412-.255.21-.563.516-.719.313-.203-.276-.687-.615-.77-.672-.155-.104-.547-.021-.705-.172-.15-.156-.623-.838-.779-.988-.152-.158-.439-.782-.021-1.2.297-.295-.04-.494-.207-.572-.282-.13.013-.791.379-.687.358.098.568.427.812.594.37.256 1.385.479 1.797.53.41.053 1.104.088 1.375.083.213 0 .77.205.74-.31-.026-.438-.397-.334-.6-.303-.209.037-.875.068-1.312.021-.735-.068-1.224-.195-1.375-.299-.156-.098-.063-.567.297-.41.359.156.459.209.803.25.349.047 1.505.047 1.797-.021.39-.088.8-.319.869-.735.06-.342.11-.726.328-.748zm-8.258 2.912c.246-.038.547.105.695.16.194.078.256.635.104.807-.145.177-.463.49-.635.813-.177.317-1.287.833-2.303.978-1.009.15-2.499-.23-2.795-.281-.297-.047-.365.021-.562.146-.199.119-.454-.193-.309-.343.147-.147.567-.62 1.01-.872.448-.249 1.783-.765 2.299-.894.64-.163 1.255-.215 1.525-.193.271.026.505.03.75-.213a.384.384 0 0 1 .221-.108zm20.908 1.155c.139-.017.288.01.48.115.386.208.464.333.798.437.333.099.508-.001.822.155.306.152.587.538.847.486.256-.048 1.747-1.027 2.622-1.106.87-.072 1.516-.181 2.261.21.744.385 1.442 1.224 1.692 1.333.234.104.905 1.115 1.01 1.266.098.156.203.686.583.947.22.146.542-.051.666-.078.131-.02.325.333.2.51-.131.183-.523.62-.84.26-.208-.234-.85-.848-1.26-1-.412-.156-.921-.104-1.05-.104-.126 0-.08-.334-.44-.36-.359-.026-.561-.098-.723-.14-.386-.098.004-.505-.172-.656-.24-.203-.787.188-.918.203-.229.027-.78-.244-.285-.375.516-.13.062-.431-.14-.582-.167-.125-.547.301-.762.172-.17-.105.21-.486-.11-.7-.104-.073-.514.31-.853.491-.156.09-.688.302-.453.51.23.202.484.13.588.281.105.156.386.438.668.621.286.177 1.802.764 2.084 1.482.281.724.906 1.943.697 3.131-.203 1.183-.39 1.146-.39 1.787 0 .646.125 1.042.28 1.4.153.36.068.39-.115.62-.176.23-.244.371-.218.553.026.177-.516.37-.622.037-.104-.334-.572-2.078-.5-2.77.08-.693.545-1.027.493-1.877-.052-.848-.548-2.03-1.063-2.338-.516-.312-1.62-1.104-3.418-1-1.29.074-1.098.048-1.54.1-.35.047-.903.031-.772-.516.057-.25 1.698-.068 1.49-.193-.203-.13-.356-.5-.277-.656.078-.156.173-.496-.004-.6-.183-.104-.954.088-1.157.016-.208-.079-.46-.109-.558-.313-.104-.202.172-.639.35-.51.18.126.438.308.693.282.261-.026.62-.156.39-.438-.234-.286-.725-.312-1.084-.443-.36-.124-.718-.384-.412-.51.154-.064.284-.124.422-.14zm-20.601 1.724c.082-.005.181-.002.3.01.5.052.776.462 1.15.863.38.407.126.782-.025 1.137-.152.348-.1.73-.046 1.61.046.88-.522.884-.85 1.034a.84.84 0 0 1-.76-.035c-.1-.073-.204.03-.584.057-.374.025-.287-.103-.312-.332-.027-.224.391-.799.64-.95.251-.15.454-.05.553-.175.104-.125.077-.855-.021-1.11-.106-.25-.49-.272-.756-.105-.38.235-.868 1.184-1.067 1.412-.202.23-.672 2.048-.744 2.297-.078.25-.23 1.011.125 1.313.354.302.702-.152.604-.381-.104-.23.071-.41.15-.713.073-.302 1-.24 1.479-.24.693 0 1.073-.297 1.343-.381.35-.104.725-.14 1.037-.207.224-.047.532-.088 1.038-.344.5-.25.958-.11 1.134-.037.178.079.313.69.463.865.15.167.428.058.606-.066.177-.126.212-.632.416-.7.306-.104.63.188.959.366.324.176.74.452.818.5.072.052.4-.126.479-.225.073-.1-.179-.276-.356-.453-.176-.183-.253-.406-.379-.557-.124-.156-.403-.125-.63-.177-.225-.052-.042-.322.208-.448a.733.733 0 0 1 .692 0c.172.104.25.193.756.14.505-.052.714.219.968.343.251.13.458.048.963-.03.448-.068 1.1.068 1.381.172.276.099.193.728.313 1.176.098.375.099.688.443 1.516.15.36.239.86.219 1.166-.016.188-.162.683.062.877.162.145.547.369.985.504.12.037.645.24.869.24.229 0 .396.296.699.572.301.276.395 1.037.416 1.318.027.276-.272.147-.475-.03-.204-.178-.249-.193-.478-.448-.224-.25-.656-.5-.807-.5-.152 0-1.156.238-1.459.166-.302-.079-.75-.423-.828-.522-.073-.104-.495-.14-.719-.265-.229-.125-.608-.525-.884-1.004-.282-.484-.58-1.34-.809-1.518-.224-.172-.374-.249-.629-.15-.25.104-.507.48-1.059.277-.578-.213-1.103.385-1.343 1.035-.09.235-.16.553-1.035.659-.183.014-.694-.178-.897-.178-.204 0-.59.126-.793.178-.203.052-.264-.236-.238-.383.021-.156-.406-.264-.656-.139-.344.172-.12 1.004-.069 1.201.047.204-.156.596-.306.7-.151.098-.501.098-.553-.028-.052-.125-.177-.63-.229-.806-.046-.178-.152-.578.076-1.182.224-.604 1.033-.683 1.334-.656.303.025.579.074.579.074s.327-.304.478-.555c.152-.25.73-.477.856-.726.13-.251-.046-.409-.426-.43-.376-.025-1.006.455-1.309.58-.301.125-1.463-.152-1.615-.23-.15-.074 0-.478-.123-.551-.125-.079-.35.045-.809.176-.453.124-1.077.605-1.156.802-.079.204-.027.703-.303.76-.249.047-.39.33-.39.559 0 .202.381.28.584.379.202.104.266.718.552 1 .24.234.193.469.288.755.077.24.264.188.425.25.146.063.146.21.256.407.078.141.313.198.51.297.204.104.194.38.396.609.2.224.579.145.782 0 .198-.156.233-.385.306-.563.078-.177.38-.406.657-.587.276-.172.598-.309 1-.48.484-.209.922-.391 1.277-.411.35-.027 1.099-.13 1.135.307.037.437-.517.313-.653.521-.114.187-.15.582-.453.734-.301.151-.505.3-.603.551-.099.25-.433.756-.532.881-.104.13-.369.088-.525.13a8.97 8.97 0 0 0-.99.286c-.203.073-.485.485-.594.647-.12.166-.79.405-1.394.609-.604.203-1.522.213-1.85.11-.323-.1-.184-.293-.059-.522.126-.224.757-.25 1.162-.375.402-.125.729-.275.729-.526 0-.254-.353-.506-.654-.709-.303-.197-.33-.4-.428-.625-.1-.228-.355-.282-.606-.38-.249-.104-.4-.177-.5-.38-.104-.202-.025-.348-.15-.478-.13-.125-.369-.5-.41-.746-.037-.208.057-1.093-.068-1.344-.126-.249-.429-.202-.657-.103-.229.098-.428.13-.63-.047-.203-.177-.454-1.213-.631-1.688-.178-.484-.662-2.067-.635-2.271.025-.203.129-.812.238-1.172.115-.375.148-.562.377-.816.224-.25.479-.778.525-1.106.052-.328.236-.483.48-.863.209-.319.676-.32 1.104-.246.427.079.89-.056 1.067-.182.155-.11-.072-.507.508-.54zm-7.844.32c.287-.02.428.188.336.434-.11.287-.687.756-.9 1.037-.22.287-.552.64-.579 1.104-.025.462-.282.734-.578 1.172-.297.437.01 1.4-.078 2-.073.478-.443.995-.656.79-.298-.275-.026-.95-.27-1.076-.485-.078-.803-.48-.506-.97.11-.176.067-.478.182-.686.324-.562-.225-.714.031-1.162.104-.183 1.122-1.41 1.34-1.572.427-.318 1.165-.943 1.545-1.047a.687.687 0 0 1 .133-.023zm2.54.042c.315-.008.708.034.88.148.234.156.306.312.078.437-.23.131-.667.14-.715.397-.052.255.257.473.549.588.296.114-.449 1.417-.549 1.76-.156.51-.442.598-.904.853-.464.256-.558.324-.465.543.13.281.053.463-.229.613-.28.156-.49.355-.902 1-.41.647-.587 1.57-1.05 2.053-.36.079-.725-.24-.62-.553.124-.374.926-1.961.973-2.332.052-.41-.459-.76.39-.812.255-.016.255-.234.131-.516-.13-.281-.593-.23-.437-.49.157-.255.23-.15.387-.535.15-.386.306-1.492.613-1.903.35-.464.568-.28.85-.535.28-.256.436-.641.744-.693.076-.013.172-.02.277-.023zm15.911.773c.459.025.286 1.119.64 1.437.517.458.089.901-.255.49-.26-.313-.411-.208-.62-.208-.203 0-.228-.177-.384-.229-.152-.052-.694.208-.897-.334-.13-.338-.385-.797.073-.85.464-.051.62.105.771 0 .156-.103.459-.322.672-.306zm8.76 1.342c.29.015.485.25.44.834-.053.666-.261 1.544.124 2.058.386.511.696.537 1.31.823.616.28 1.314 1 1.362 1.209.052.202-.23.614-.412.666-.177.052-.431-.386-.385-.694.052-.306-.37-.43-.845-.545-.6-.145-.9-.074-1.182-.1-.287-.026-.823-.333-1.031-.974-.203-.64-.178-1.004-.46-.951a.546.546 0 0 0-.437.666c.079.333.132.697-.05.744-.183.052-.799-.283-.772-.668.025-.38.105-.847.387-1.023.281-.183.638-.492.873-.746.23-.255.423-.403.396-.71-.03-.385.194-.531.553-.583a.655.655 0 0 1 .129-.006zm9.717.06c.266.02.462.244.56.342.13.13.18.178.254.203.079.032.31.365.387.594.078.23.183.693.437 1.078.256.385.385.413.463.59.079.177-.183.755-.219.984-.073.47.255.438.46.89.15.334-.656 1.73-.86 1.964-.224.25-.72.723-1.059.713-.208-.01-.41-.865-.166-1.14.36-.412.032-1.015.032-1.173 0-.15.422-.167.38-.578-.037-.38-.427-.5-.322-.865.182-.619.082-1.744-.12-2.026-.209-.286-.595-.77-.673-.978-.098-.267.078-.433.157-.537.103-.05.2-.067.289-.06zm-8.143.4c.076-.006.143.035.281.108.276.15.838.437 1.526.584.562.119 2.076.068 2.3.215.23.15.282.202.506.275.224.078 1.005.536 1.104.938.105.406.112.916.058 1.094-.052.177-.458.108-.562-.168-.1-.276-.166-.628-.447-.504-.276.125-.105 1.24-.053 1.515.052.276.187.677.14.953-.051.271-.312.323-.312.5 0 .203.354.358.506.536.15.172.318.54.338.671.048.37.563.438.59.616.021.177-.288.933.332.84.833-.126 1.213.515.906.931-.079.099-.53.755-.723.62-.245-.173-.725-.407-.658-.73.079-.349-.67-.358-.754-.177-.093.193-.11.603-.197.838-.09.235-.444.694-.924 1.074-.145.115-1.29.781-1.566 1.016-.198.176-.579.833-.168 1.478.125.194-1.25.886-2.182 1.287-.933.407-2.141.88-2.24.932l-.041.018a.294.294 0 0 0 .072-.221c-.104-1.62 2.791-1.724 2.86-2.412.035-.344.693-1.15.933-1.291.13-.072.667-.64.766-.766.1-.125 1.068-.202.89-.556-.176-.354-.329-.302-.277-.678.052-.38.559-.958.559-1.615 0-.651-.203-1.532-.182-1.729.025-.204.186-.494.129-.703-.099-.353-.5-.208-.754-.682-.199-.37-.09-.755-.371-1.056-.276-.298-.542-.273-.797-.397-.25-.125-.416-.433-.613-.584-.203-.15-.663-.275-.684-.625-.025-.353.1-.837-.3-1.156-.407-.317-.631-.295-.329-.8.177-.126.262-.182.338-.188zm-6.852 3.231c.052.004.113.014.184.03.5.109.861.417 1.074.453.271.052.725-.345.875.015.147.344.416.912.91 1.104.495.198 1.552.2 2 .074.443-.12.59.025.887.125.298.099.531.15.703.129.172-.025.531.016.657.193.118.172.244.474 0 .6-.183.093-.678-.137-.897-.037-.224.098-.958.29-1.375.52-.547.297-1.26.318-1.75.318-.495 0-1.229-.068-1.603-.49-.224-.25-.569-.348-.547-.52.025-.172.076-.442-.075-.666-.145-.219-.248-.434-.41-.371-.614.25-.376-.463-.449-.563-.072-.098-.42-.394-.447-.566-.022-.15-.098-.377.264-.348zm-21.216 1.98c.202-.006.5.058.896.196.79.281.525.035 1.067.139.542.104.85 1.214 1.068 1.38.333.256 1.46 1.933 1.922 2.49.386.463.49.848-.203.542-.276-.126-1.777-1.079-2.006-1.39a2.482 2.482 0 0 0-.926-.798c-.484-.26-.822-.678-1.234-.678-.411 0-1.527.257-1.45-.306.131-.464.31-.587.606-.707.24-.104-.063-.32-.053-.637.006-.146.11-.223.313-.23zm15.793.698c.129.009.243.073.27.21.051.287.187.802.343 1.063.152.255.526.296.6.479.077.177.342.527.675.678.334.156 1.74.38 2 .406.256.025.596.41.159.437-.44.026-1.725.025-2.33-.162-.553-.172-.817-.417-1.104-.584-.13-.077-.421-.42-.588-.691-.172-.27-.553-.5-.756-.48-.35.042-.532-.738-.277-.858.215-.104.448-.178.652-.38a.488.488 0 0 1 .356-.118zm13.4.861c.303.027.427.302.453.447.027.151.322.328.447.475.126.15.323.75.323.875s.063 1.13-.125 1.219c-.479.24-.27.484-.65.65-.38.167-.699 0-.725-.275-.036-.344.126-.552.277-.828.147-.276-.241-.88-.277-.963-.104-.244-.396-.554-.541-.606-.151-.046-1.322-.024-1.573.08-.349.151-.397-.047-.324-.177.074-.12.283-.448.752-.61.463-.156 1.667-.307 1.963-.287zm-4.24 1.637c.505-.021.48.176.59.685.098.48.406.57.754.659.516.124.406.739-.032.79-.256.038-.786.152-.968.104-.276-.066-.65-.562-.754-.687-.104-.13-.334-.542-.35-.828-.03-.694.474-.718.76-.723zm-9.883.41c.099 0 .188.02.264.068.276.178.506.463.552.66.072.277-.578.439-.78.616-.205.177-.433.209-.632.62-.197.408-.521 1.006-.521 1.37 0 .235.072.875.197 1.004.125.125.277.403.23.605-.051.2-.25.46-.199.606.048.15.385.253 1.037.379.656.124.939.322 1.34.54.182.105.707.617 1.035.647.416.032 3.64-.244 4.069-.244.426 0 1.837.65 2.513.348.425-.19.79-.268 1.084-.338-.596.254-1.421.607-1.529.64-.084.031-2.318.45-4.344.553-1.469.079-2.277.135-2.386.098-.48-.172-.504-1.3-1.635-1.3-.552 0-.772 1.17-.69 1.337.1.203-.79.176-1.019-.146-.224-.328-.01-1.277-.037-1.46-.025-.175-.02-.452-.223-.656-.198-.202-.5-.398-.578-.7-.073-.303-.135-.705-.213-.929-.256-.729-.437-1.348-.256-1.75.183-.406.37-1 .47-1.224.098-.224.791-.858 1.24-1.035.338-.133.716-.31 1.011-.309zm6.04.057c.228 0 .764.073.915.302.15.235.46.46.637.438.177-.027.28-.098.404-.15.13-.052.387.124.54.38.15.255.124.301.228.407.098.104.484.484.53.765.053.276.11 1.036.235 1.11.131.077.537.01.787-.028.511-.077.838-.369 1.14-.525.307-.152.48-.135.683-.313.197-.176.4-.682.363-.968-.052-.38.687-.283.687-.1 0 .176-.073.72 0 .824.08.104.251.295.278.426.026.125-.027.137-.24.23-.312.14-.583.103-.791.311-.194.193-.365.553-.62.678-.256.13-.896.343-1.302.469-.407.124-.86.406-1.012.53-.15.132-.427.054-.787.028-.353-.026-.68-.005-1.06.197-.382.203-1.372.245-2.216.166-.837-.073-1.926.09-2.431.141-.51.052-1.069.12-1.375-.107-.307-.23-.177-.517.027-.621.203-.1.54-.09.645-.166.104-.074.985-.565 1.271-.69.13-.063.73-.344 1-.416.194-.057.527-.291.828-.338.308-.052.552-.145.672-.265.084-.083.11-.286-.197-.338a2.658 2.658 0 0 1-.756-.225c-.203-.105-.495-.261-.697-.084-.21.177-.33.34-.752.45-.385.098-.76.279-1.069.325-.306.052-.94.386-1.242.46-.308.077-.881.313-1.236.189-.355-.13-.092-.564.037-.793.125-.235.496-.985.824-1.037.334-.052.524.043.727.043.204 0 .945-.31 1.246-.512.308-.203 1.349-.431 1.906-.275.563.15 1.287.541 1.432.703.25.281.188.682.416.756.23.077.445.035.574-.09.125-.125.557-.125.557-.432 0-.302-.254-.459-.51-.484-.255-.022-.61-.073-.688-.203-.073-.124-.276-.48-.433-.606-.15-.13-.405-.562-.176-.562zm-19.683.29c.045-.007.09.005.14.044.427.344-.103.828 1.038 1.412.328.172 1.03.489 1.014 1.015-.01.531-.166 1.276-.166 1.276-.104-.183-.995-.697-1.15-.826-.209-.172-.635-.633-.917-.784-.286-.152-.286-.692-.39-.875-.087-.158.12-1.207.431-1.261zm9 3.186a.851.851 0 0 1 .426.057c.37.156.835.8.606 1.213-.203.38-.802.343-1.203.207-.522-.172-.97-.581-.797-.961.079-.168.526-.471.968-.516zm-4.48.832c.084.009.173.029.268.063.229.082 1.253.49 2.175.928.927.437 1.578.572 2.141.962.475.34 1 1.52.15 1.37-.848-.156-3.448-1.583-3.806-1.817-.36-.23-1.667-.985-1.828-1.084 0 0 .315-.483.9-.422z"/>

</svg>