<?xml version="1.0" encoding="UTF-8" standalone="no"?>
<!-- Created with Inkscape (http://www.inkscape.org/) -->

<svg
   version="1.1"
   id="svg824"
   xml:space="preserve"
   width="54.248798"
   height="54.248798"
   viewBox="0 0 54.248798 54.248798"
   sodipodi:docname="uniOfBathLogo.svg"
   inkscape:export-filename="C:\Users\henry\Downloads\uniOfBathLogo.png"
   inkscape:export-xdpi="906.04773"
   inkscape:export-ydpi="906.04773"
   inkscape:version="1.1.1 (3bf5ae0d25, 2021-09-20)"
   xmlns:inkscape="http://www.inkscape.org/namespaces/inkscape"
   xmlns:sodipodi="http://sodipodi.sourceforge.net/DTD/sodipodi-0.dtd"
   xmlns="http://www.w3.org/2000/svg"
   xmlns:svg="http://www.w3.org/2000/svg"><defs
     id="defs828" /><sodipodi:namedview
     id="namedview826"
     pagecolor="#ffffff"
     bordercolor="#666666"
     borderopacity="1.0"
     inkscape:pageshadow="2"
     inkscape:pageopacity="0.0"
     inkscape:pagecheckerboard="true"
     showgrid="false"
     inkscape:zoom="11.313709"
     inkscape:cx="24.218407"
     inkscape:cy="22.141281"
     inkscape:window-width="1920"
     inkscape:window-height="991"
     inkscape:window-x="-9"
     inkscape:window-y="-9"
     inkscape:window-maximized="1"
     inkscape:current-layer="g832"
     fit-margin-top="0"
     fit-margin-left="0"
     fit-margin-right="0"
     fit-margin-bottom="0" /><g
     id="g830"
     inkscape:groupmode="layer"
     inkscape:label="uniOfBathLogo"
     transform="matrix(1.3333333,0,0,1.3333333,-0.50826662,-1.2482666)"><g
       id="g832"><g
         id="g834"><path
           d="m 40.508,21.277 c 0,10.926 -8.86,19.786 -19.785,19.786 -10.926,0 -19.782,-8.86 -19.782,-19.786 0,-10.925 8.856,-19.781 19.782,-19.781 10.925,0 19.785,8.856 19.785,19.781 z"
           style="fill:none;stroke:#515661;stroke-width:1.1196;stroke-linecap:butt;stroke-linejoin:miter;stroke-miterlimit:3.8637;stroke-dasharray:none;stroke-opacity:1"
           id="path836" /></g><path
         d="m 24.406,36.316 c 0.297,-0.117 0.789,-0.515 0.848,-0.691 0.062,-0.176 0.238,-0.137 0.277,0 0.039,0.141 0.16,0.496 0.239,0.613 0.078,0.117 0.078,0.2 -0.04,0.258 -0.117,0.059 -0.421,0.016 -0.617,0.137 -0.199,0.117 -0.445,0.16 -0.605,0.258 C 24.352,36.988 24.23,37 24.035,37 23.836,37 23.703,37.09 23.602,37.109 23.504,37.129 23.156,37.09 23,37.09 c -0.16,0 -0.402,0.062 -0.539,0.062 -0.141,0 -0.27,-0.117 -0.129,-0.214 0.137,-0.098 0.273,-0.141 0.434,-0.161 0.156,-0.019 0.375,-0.078 0.492,-0.175 0.117,-0.102 0.18,-0.18 0.18,-0.18 0,0 0.394,-0.02 0.589,-0.039 0.2,-0.024 0.082,0.055 0.379,-0.067 z"
         style="fill:#515661;fill-opacity:1;fill-rule:nonzero;stroke:none"
         id="path838" /><path
         d="m 20.844,28.926 c 0.172,0.101 0.566,0.265 0.586,0.422 0.019,0.16 -0.192,0.64 -0.43,0.64 -0.234,0 -1.332,-0.609 -1.156,-0.91 0.301,-0.512 0.707,-0.316 1,-0.152 z"
         style="fill:#515661;fill-opacity:1;fill-rule:nonzero;stroke:none"
         id="path840" /><path
         d="M 28.625,14.078 C 28.32,14.039 28,13.922 28.238,13.695 c 0.258,-0.246 0.196,-0.465 0.336,-0.636 0.129,-0.153 0.274,-0.317 0.235,-0.469 -0.036,-0.152 -0.344,-0.344 -0.188,-0.496 0.152,-0.153 0.418,-0.574 0.531,-0.918 0.118,-0.344 0.727,-1.754 0.84,-2.059 0.117,-0.304 0.117,-0.609 0.27,-0.801 0.152,-0.191 0.867,-1.257 1.332,-1.339 0.402,-0.071 0.707,0.007 0.707,0.007 0,0 1.031,0.797 1.25,1.02 0.289,0.297 2.34,2.832 2.597,3.246 0.137,0.219 1.727,3.273 1.95,4.051 0.086,0.297 0.398,1.121 0.519,1.566 0.043,0.168 0.395,2.399 0.395,2.399 0,0 -0.77,0.363 -0.903,-0.153 -0.07,-0.285 -0.281,-1.402 -0.355,-1.633 -0.078,-0.23 -0.332,-0.699 -0.391,-0.906 -0.054,-0.211 -0.207,-0.777 -0.281,-1.008 -0.078,-0.23 -0.559,-1.375 -0.676,-1.679 -0.113,-0.305 -0.211,-0.692 -0.261,-0.801 -0.075,-0.184 -0.575,-1.035 -0.043,-1.18 0.511,-0.14 -0.52,-1.246 -0.739,-1.293 -0.492,-0.105 -1.644,-0.578 -2.058,-0.449 -0.153,0.047 -0.293,0.34 -0.18,0.492 0.113,0.153 1.02,0.348 1.242,0.465 0.188,0.098 0.606,0.262 0.567,0.57 -0.02,0.161 -0.196,0.411 0.031,0.563 0.23,0.152 0.574,0.156 0.519,0.652 -0.054,0.492 0.082,0.68 0.305,0.981 0.191,0.261 0.246,0.707 0.359,0.957 0.094,0.203 -0.574,0.07 -0.671,-0.156 -0.114,-0.266 -0.461,-1.051 -0.672,-1.243 -0.18,-0.164 -0.465,-0.019 -0.426,0.172 0.039,0.192 0.434,1.004 0.633,1.262 0.23,0.301 0.855,0.539 1.008,0.844 0.152,0.304 0.457,0.687 0.57,0.879 0.113,0.191 0.562,0.621 0.621,1.421 0.035,0.532 0.285,1.075 0.359,1.266 0.078,0.191 -0.351,0.258 -0.492,0.129 -0.226,-0.215 -0.371,-0.461 -0.39,-0.801 -0.02,-0.414 -0.266,-1.437 -0.641,-1.976 -0.438,-0.629 -0.656,-0.868 -0.844,-1.02 -0.191,-0.152 -0.773,-0.695 -0.965,-0.941 -0.222,-0.285 -0.558,-0.844 -0.675,-1.227 -0.114,-0.379 -0.508,-0.285 -0.567,0.055 -0.058,0.324 -0.058,0.605 0.363,1.101 0.418,0.496 0.563,0.879 0.907,0.954 0.343,0.078 0.535,0 0.8,0.46 0.27,0.457 0.942,1.602 0.981,1.868 0.039,0.269 -0.672,0.203 -0.777,-0.153 -0.09,-0.312 -0.387,-1.078 -0.5,-1.265 -0.114,-0.192 -0.204,-0.43 -0.43,-0.278 -0.231,0.153 0.086,0.598 0.152,0.774 0.09,0.226 -0.34,0.386 -0.531,0.156 -0.191,-0.23 -0.313,-0.699 -0.43,-0.914 -0.105,-0.188 -0.359,-0.441 -0.488,-0.379 -0.254,0.121 -0.09,0.559 -0.016,0.863 0.078,0.305 -0.168,0.442 -0.382,0.282 -0.305,-0.231 -0.25,-0.805 -0.442,-1.071 -0.187,-0.265 -0.492,-0.418 -0.531,-0.687 -0.039,-0.266 0.012,-0.633 0.152,-0.762 0.266,-0.25 0.153,-0.477 0.114,-0.648 -0.036,-0.157 -0.137,-0.297 -0.149,-0.512 -0.019,-0.305 0.188,-0.309 0.266,-0.461 0.074,-0.156 0.054,-0.414 0.008,-0.57 -0.051,-0.172 -0.219,-0.407 0.085,-0.485 0.309,-0.074 0.43,-0.023 0.622,0.051 0.191,0.078 0.656,0.356 0.808,0.356 0.152,0 0.707,0.011 0.613,-0.45 C 34.16,11.605 33.77,11.367 33.617,11.441 33.465,11.52 33.168,11.535 32.996,11.402 32.77,11.23 32.148,10.621 32.109,10.547 32.07,10.469 32.395,9.762 32.699,9.648 33.008,9.535 33.422,9.449 33.309,9.184 33.195,8.918 32.746,8.855 32.633,8.664 32.52,8.473 32.203,8.16 31.973,8.313 c -0.231,0.152 -0.493,0.191 -0.645,0.23 -0.152,0.039 -0.422,0.266 -0.496,0.574 -0.078,0.305 -0.734,1.512 -0.766,1.906 -0.011,0.157 -0.496,0.536 -0.418,0.723 0.079,0.192 0.231,0.117 0.383,0.156 0.153,0.036 0.074,0.344 -0.117,0.571 -0.187,0.23 -0.211,0.504 -0.266,0.609 -0.093,0.184 -0.429,0.121 -0.484,0.301 -0.109,0.359 -0.301,0.551 -0.539,0.695 z"
         style="fill:#515661;fill-opacity:1;fill-rule:nonzero;stroke:none"
         id="path842" /><path
         d="m 31.031,6.219 c 0,0 -1.238,0.648 -1.468,0.929 -0.176,0.219 -0.418,1.344 -0.504,1.469 -0.082,0.129 -0.161,0.332 -0.161,0.543 0,0.211 0.036,0.34 -0.175,0.887 -0.207,0.547 -0.375,0.84 -0.461,1.262 -0.082,0.418 0.168,0.671 -0.043,1.05 -0.207,0.375 -0.418,0.606 -0.461,0.817 -0.043,0.211 -0.246,0.48 -0.332,0.691 -0.082,0.211 -0.672,0.418 -0.547,0.043 0.129,-0.379 0.476,-1.512 0.73,-2.816 0.254,-1.301 0.27,-1.973 0.711,-3.297 0.414,-1.25 2.004,-2.164 2.004,-2.164 z"
         style="fill:#515661;fill-opacity:1;fill-rule:nonzero;stroke:none"
         id="path844" /><path
         id="path846"
         style="fill:#515661;fill-opacity:1;fill-rule:nonzero;stroke:none;stroke-width:1.33333"
         d="M 26.056641 2.6601562 C 25.524141 2.6536563 24.991562 2.7095938 24.851562 2.9335938 C 24.570229 3.3815937 25.747229 3.8301198 26.476562 3.9394531 C 27.205896 4.0541198 27.612063 4.6835104 27.664062 4.9648438 C 27.721396 5.2408437 27.804422 7.1374531 27.732422 7.6894531 C 27.669755 8.2001198 27.595786 8.7622865 27.314453 9.3769531 C 27.03312 9.9916198 27.033245 11.673828 26.642578 11.673828 C 26.251911 11.673828 26.355729 11.126771 26.289062 10.273438 C 26.221063 9.4027709 26.423828 8.9296875 26.423828 8.9296875 C 26.423828 8.9296875 27.399172 7.3296927 26.951172 6.0683594 C 26.789839 5.6110261 26.273411 4.8872604 25.580078 4.8085938 C 25.189411 4.7619271 24.554687 4.6886615 24.054688 4.6113281 C 23.689354 4.5539948 23.11151 3.6942187 22.964844 3.5742188 C 22.62751 3.2928854 21.215245 2.9243958 20.892578 3.0390625 C 20.179245 3.2883958 20.444635 4.8916771 19.917969 5.9023438 C 19.553969 6.6010104 19.366745 5.8556198 19.080078 5.3769531 C 18.694745 4.7249531 19.185547 3.9960938 19.185547 3.9960938 C 19.185547 3.9960938 18.475854 4.1687448 18.117188 4.3300781 C 17.721188 4.5114115 15.945312 5.1992188 15.945312 5.1992188 C 15.945312 5.1992188 16.841729 5.6790365 17.039062 5.8457031 C 17.325729 6.0910365 18.054052 6.7356615 18.636719 6.4863281 C 18.882052 6.3769948 20.065755 7.3033854 20.232422 7.6367188 C 20.399089 7.9753854 20.319245 9.4287188 20.392578 9.6367188 C 20.455245 9.8140521 20.43912 10.064146 20.564453 10.382812 C 20.564453 10.970812 20.97501 11.694427 21.152344 12.621094 C 21.433677 14.07976 22.653354 15.27251 22.554688 15.589844 C 22.461354 15.887177 22.078995 15.751094 21.736328 15.371094 C 21.438995 15.048427 20.761844 13.912885 20.589844 13.574219 C 20.423177 13.240885 20.554495 12.877052 20.423828 12.511719 C 20.325161 12.215719 20.032635 12.032568 19.917969 11.615234 C 19.808635 11.204568 19.710896 8.6165885 19.601562 8.1699219 C 19.486896 7.7219219 18.836589 7.2988698 18.669922 7.4082031 C 18.497922 7.5228698 18.340453 8.0748698 18.564453 8.4082031 C 18.788453 8.7468698 19.169312 10.523229 18.945312 11.476562 C 18.721313 12.429896 18.85663 15.229635 19.279297 16.542969 C 19.61263 17.600302 19.080172 17.611453 18.576172 16.939453 C 18.289505 16.55812 17.67912 12.287276 17.564453 11.724609 C 17.45512 11.168609 16.865995 8.953901 16.611328 8.6152344 C 16.464661 8.417901 16.071005 8.1373281 16.013672 7.8613281 C 15.956339 7.5799948 15.804146 6.8242344 15.382812 6.7402344 C 15.164146 6.698901 14.940104 7.3196198 14.773438 7.3769531 C 14.606771 7.4289531 13.705078 6.4453125 13.705078 6.4453125 C 13.705078 6.4453125 13.064536 6.6952708 12.783203 7.0859375 C 12.643837 7.2794647 11.744353 8.0952789 10.732422 9.0371094 L 12.033203 7.9394531 C 12.033203 7.9394531 12.481688 8.1125365 12.929688 8.2832031 C 13.409687 8.4658698 14.314411 8.1695209 15.705078 10.992188 C 17.090411 13.820187 17.001927 16.053526 17.308594 17.130859 C 17.616594 18.209526 18.825036 18.679339 19.595703 18.888672 C 20.36637 19.091339 19.908552 19.684672 19.699219 19.888672 C 19.496552 20.091339 18.387344 19.705562 18.027344 19.601562 C 17.668677 19.497563 17.053703 18.574453 16.845703 18.314453 C 16.641703 18.058453 16.898094 17.648578 16.746094 17.392578 C 16.590094 17.137911 16.180078 16.876359 16.080078 16.568359 C 15.976078 16.261693 16.283203 15.538604 16.283203 15.335938 C 16.283203 15.131938 15.976562 14.412109 15.976562 14.412109 C 15.976562 14.412109 15.908203 13.741479 15.908203 13.382812 C 15.908203 13.022813 15.808302 12.057859 15.542969 12.005859 C 15.193635 11.933859 15.195312 12.511719 15.195312 12.511719 C 15.195312 12.767719 15.153312 13.637563 14.945312 14.101562 C 14.742646 14.564229 14.481453 15.694854 14.689453 17.492188 C 14.898786 19.293521 16.825755 20.575063 17.232422 21.039062 C 17.648422 21.503062 17.877922 22.377896 17.669922 22.476562 C 17.465922 22.580562 17.413812 22.221578 17.257812 22.017578 C 17.107146 21.809578 15.912745 20.860719 15.330078 20.136719 C 14.226078 18.778052 14.346839 18.339844 14.076172 17.339844 C 13.533505 15.361177 14.329594 12.558052 14.433594 11.636719 C 14.490927 11.126052 14.246328 10.881609 13.986328 10.349609 C 13.762328 9.8909427 13.372354 9.7627031 12.929688 9.9707031 C 12.424354 10.216036 11.961453 9.9076354 11.689453 9.2929688 C 11.514153 8.9073087 10.643784 9.1880895 10.535156 9.2246094 C 9.5591537 10.136056 8.5159739 11.131582 7.9609375 11.792969 C 6.7836042 13.194302 5.7455781 14.453484 5.0175781 16.021484 C 4.2882448 17.589484 3.3358958 20.221964 3.2265625 20.779297 C 3.1118958 21.34063 2.6070625 24.01263 2.5390625 24.779297 C 2.4763958 25.449964 2.4088438 28.835276 2.4648438 29.224609 C 2.4927653 29.414866 2.7831618 30.672017 3.0722656 31.927734 C 2.9764252 31.164969 2.8395709 29.841993 2.8671875 29.470703 C 2.9045208 28.986703 3.4343281 28.820536 3.4863281 28.783203 C 3.6583281 28.643203 5.1117865 28.049745 5.3144531 27.955078 C 5.6477864 27.799078 6.6225625 26.918937 6.7265625 26.710938 C 6.8305625 26.506938 6.8717708 25.976396 6.8984375 25.539062 C 6.9237708 25.173729 6.9910521 24.782937 6.7617188 24.710938 C 6.4910521 24.632271 6.1945781 24.798594 6.1425781 25.058594 C 6.0905781 25.314594 5.9299792 25.896276 5.6953125 25.849609 C 5.2579792 25.756276 5.0390625 26.579786 5.0390625 26.814453 C 5.0390625 27.32512 4.0841354 27.402328 4.1054688 26.986328 C 4.1214687 26.740995 4.5537865 25.335786 4.5644531 24.814453 C 4.5751198 24.434453 4.1639948 24.085453 4.3613281 23.689453 C 4.5186615 23.377453 4.5959115 22.199286 4.6425781 22.001953 C 4.8519115 21.62062 5.7780781 21.345354 5.3300781 22.554688 C 5.1994115 22.913354 5.0179688 23.37187 5.4179688 23.533203 C 5.6473021 23.626536 5.7942031 23.615411 6.1582031 22.830078 C 6.4035365 22.314078 7.2988125 22.557969 6.8828125 23.417969 C 6.5281458 24.157969 7.3518698 24.054953 7.5332031 24.126953 C 7.7105365 24.20562 7.7415104 24.558302 7.7148438 24.792969 C 7.6735104 25.126302 8.0546042 25.199385 8.3359375 25.136719 C 8.6172708 25.079385 9.8043386 24.449938 10.513672 24.585938 C 11.336339 24.741937 11.679453 24.866177 11.939453 24.964844 C 12.19412 25.068844 12.605953 25.069604 12.501953 24.710938 C 12.403286 24.350938 12.789797 23.69412 12.841797 23.439453 C 12.893797 23.183453 13.393495 22.912719 13.298828 22.636719 C 13.205495 22.360719 12.325187 22.011661 12.117188 21.986328 C 11.882521 21.959661 11.678953 22.756703 11.626953 23.220703 C 11.578953 23.68337 10.861604 23.689964 10.710938 23.279297 C 10.502938 22.725964 10.189354 22.694703 10.054688 21.970703 C 9.9613542 21.470703 9.5022031 21.448401 9.1582031 21.177734 C 8.5435365 20.683068 9.0429115 20.313995 9.0175781 20.111328 C 8.9442448 19.505995 8.3251875 19.429828 8.1171875 19.673828 C 7.8985208 19.929828 7.5432604 19.636661 7.3085938 19.611328 C 6.9699271 19.573995 6.1114271 19.715052 5.7460938 19.761719 C 5.2260938 19.829719 5.1646042 20.084443 5.0859375 20.287109 C 4.9139375 20.772443 3.9238281 20.111328 3.9238281 20.111328 C 3.9238281 20.111328 5.2107031 17.382427 5.4707031 16.621094 C 5.6947031 15.970427 6.7888958 14.336495 6.8515625 14.173828 C 7.0222292 13.725828 7.6426875 14.418094 7.0546875 15.246094 C 6.6853542 15.767427 5.6420781 17.517219 5.3300781 18.449219 C 5.1420781 19.017219 6.0790521 18.94851 6.2617188 18.589844 C 6.3763854 18.355177 7.2618281 16.585854 7.6738281 15.867188 C 8.0844948 15.148521 9.0492292 13.486219 9.2265625 13.074219 C 9.4038958 12.668885 9.8135781 12.279187 10.017578 11.867188 C 10.225578 11.455188 10.898052 11.419297 10.636719 12.279297 C 10.376719 13.153964 9.1224531 15.15251 8.8144531 15.589844 C 8.5184531 16.005844 7.5910625 17.641818 7.5390625 17.896484 C 7.4870625 18.157818 7.4183125 18.537844 7.5703125 18.589844 C 7.7263125 18.63651 8.4345781 18.381693 8.6425781 18.068359 C 8.8465781 17.761693 9.6008021 15.777969 9.8554688 15.417969 C 10.111469 15.057969 10.673802 13.881484 10.980469 13.521484 C 11.293802 13.162818 12.001828 13.658938 11.673828 14.210938 C 10.912495 15.486937 10.12726 17.063661 9.8085938 17.486328 C 9.4392604 17.975661 9.8455938 18.688135 10.433594 18.105469 C 10.94426 17.589469 11.175021 16.981578 11.429688 16.517578 C 11.689687 16.054911 12.070563 15.429828 12.226562 15.173828 C 12.377229 14.919161 13.00687 15.142688 12.908203 15.554688 C 12.80287 15.965354 12.293802 16.867161 11.980469 17.173828 C 11.673802 17.481828 11.49637 17.861922 11.345703 18.169922 C 11.18837 18.481922 11.346729 18.746552 11.664062 18.949219 C 12.076062 19.215885 12.279271 19.193953 12.585938 19.501953 C 12.893937 19.813953 13.193953 20.178078 13.501953 20.330078 C 13.80862 20.486078 14.245745 20.595193 14.455078 21.005859 C 14.657745 21.412526 14.970479 22.164521 15.507812 22.367188 C 15.945146 22.533854 16.075469 22.699927 16.355469 23.058594 C 16.756802 23.574594 16.923203 23.700495 17.283203 23.673828 C 17.720536 23.653828 17.694245 24.189563 17.767578 24.601562 C 17.819578 24.856229 17.382813 25.627063 17.382812 26.039062 C 17.382812 26.455062 17.474953 27.605776 17.126953 27.787109 C 16.88162 27.917776 16.341714 27.612688 16.123047 27.804688 C 15.919047 27.987354 15.409437 27.891594 15.273438 27.683594 C 15.090771 27.412927 14.72188 27.386818 14.560547 27.521484 C 14.284547 27.761484 13.929755 27.699286 13.732422 27.501953 C 13.596422 27.365953 13.231286 27.480885 13.001953 27.574219 C 12.351286 27.860885 12.451172 27.273438 12.451172 27.273438 C 12.451172 27.273438 12.631995 26.761719 12.861328 26.761719 C 13.049328 26.761719 13.324469 26.913854 13.480469 26.867188 C 13.627135 26.815188 13.81987 26.38151 14.033203 26.214844 C 14.25187 26.042844 14.53363 25.986578 14.404297 25.642578 C 14.320297 25.439911 14.522354 25.257078 14.679688 25.205078 C 14.970354 25.106411 15.345802 25.137896 15.480469 24.976562 C 15.584469 24.851229 15.565078 24.272844 15.205078 23.964844 C 14.846411 23.658177 13.883297 23.92301 13.779297 24.652344 C 13.653964 25.57901 12.794094 25.95437 12.246094 26.095703 C 11.554094 26.273036 11.320479 26.095109 10.757812 25.787109 C 10.189813 25.475109 8.996151 25.465245 8.5214844 25.642578 C 8.1054844 25.798578 7.8513698 26.445312 8.2207031 26.445312 C 8.5847031 26.445312 9.4706615 26.605469 9.8613281 26.605469 C 10.429328 26.605469 10.897995 26.813719 11.111328 27.261719 C 11.355328 27.767052 11.341714 27.768589 10.623047 27.669922 C 9.1377136 27.465922 7.6858541 27.751661 6.8671875 27.986328 C 6.5711875 28.068995 5.5388125 28.976021 5.3828125 29.054688 C 5.2734792 29.112021 4.5272864 29.516109 4.0019531 29.912109 C 3.4806198 30.308109 3.5648698 30.757813 3.6582031 31.257812 C 3.6848698 31.388479 3.8311875 32.225328 3.8671875 32.361328 C 3.8671875 32.361328 4.3244115 31.856271 4.4550781 31.710938 C 4.5790781 31.564271 5.5219531 31.01626 6.0019531 30.433594 C 6.4392864 29.901594 7.7153281 29.168995 8.1113281 28.986328 C 9.2313281 28.459661 10.50726 28.51176 10.808594 28.621094 C 11.11126 28.730427 11.721797 29.17326 11.341797 29.558594 C 10.956464 29.94926 10.29801 30.448568 10.027344 30.615234 C 9.7513438 30.777901 9.4752031 30.574245 9.2832031 30.767578 C 9.0898698 30.959578 8.5750365 31.41301 8.3457031 31.402344 C 7.6217031 31.366344 6.7165052 31.585245 6.4511719 31.642578 C 5.9658386 31.746578 5.0705625 32.06326 4.7265625 32.308594 C 4.3825625 32.548594 4.0801719 32.954786 4.0761719 33.189453 C 4.0601719 33.434786 4.8296198 33.721354 4.6269531 34.054688 C 4.1936198 34.752021 5.2626875 35.033313 5.0546875 35.445312 C 4.8520208 35.861312 4.7160365 36.339745 4.4707031 36.205078 C 4.2487212 36.082703 3.7424761 34.580744 3.4179688 33.472656 C 3.5221815 33.935153 3.6974602 34.68621 3.7109375 34.779297 C 3.7629375 35.169964 5.1282552 38.210896 5.2949219 38.601562 C 5.4869219 39.049562 9.1744375 44.189328 9.3984375 44.361328 C 9.6224375 44.527995 14.549188 48.497177 15.117188 48.839844 C 15.527854 49.085177 21.470135 51.273745 22.355469 51.455078 C 23.226135 51.643078 26.044589 51.939286 26.669922 52.001953 C 27.065922 52.037953 30.969927 51.751911 31.808594 51.642578 C 32.652594 51.533245 36.451089 50.252078 36.732422 50.080078 C 37.008422 49.913411 41.464151 47.396443 41.521484 47.287109 C 41.574818 47.172443 43.340385 45.658135 43.761719 45.355469 C 44.335052 44.944802 46.965771 41.734859 47.648438 40.630859 C 48.309771 39.562859 50.136385 35.918896 50.261719 35.601562 C 50.605719 34.757563 51.320312 31.492188 51.320312 31.492188 C 51.320312 31.492188 50.128339 31.408161 50.013672 31.798828 C 49.904339 32.189495 49.783245 32.501953 49.392578 32.501953 C 48.996578 32.501953 49.105552 32.339885 48.824219 31.949219 C 48.542885 31.558552 48.268271 30.715495 48.210938 30.548828 C 48.153604 30.382161 47.819745 30.216187 47.705078 29.992188 C 47.595745 29.762854 47.595703 28.976562 47.595703 28.976562 L 47.648438 28.636719 C 47.648438 28.636719 47.371177 28.246745 47.089844 28.080078 C 46.80851 27.913411 46.699344 27.241661 46.527344 26.736328 C 46.360677 26.230995 46.840536 26.006469 47.283203 26.230469 C 47.736536 26.454469 48.266927 27.522828 48.433594 27.798828 C 48.60026 28.080161 48.554563 29.589568 48.726562 29.740234 C 48.950562 29.938901 49.725927 30.016401 49.808594 29.677734 C 49.865927 29.439068 49.527604 29.120786 49.460938 28.939453 C 49.403604 28.792786 49.361328 28.533979 49.361328 28.195312 C 49.361328 27.861979 49.164104 27.637453 48.773438 27.189453 C 48.382771 26.741453 48.57612 26.544354 48.689453 26.429688 C 48.798786 26.320354 49.50726 26.751469 49.808594 27.355469 C 50.089927 27.912802 50.126969 28.939302 50.542969 28.917969 C 50.766969 28.907302 50.794922 28.048385 50.794922 27.261719 C 50.794922 26.480385 50.44962 26.002812 50.126953 25.882812 C 49.55362 25.678813 48.153078 25.283255 47.705078 25.169922 C 47.257078 25.059255 46.86601 24.94462 46.527344 25.001953 C 46.19401 25.057953 45.998005 25.059297 45.888672 24.779297 C 45.774005 24.497964 46.335938 24.35612 46.335938 24.189453 C 46.335938 24.022786 45.90438 23.892536 45.623047 23.783203 C 45.347047 23.66987 44.75651 23.72587 44.589844 23.783203 C 44.423177 23.836536 44.371135 24.048177 43.980469 24.214844 C 43.589802 24.386844 42.522135 24.272177 42.355469 23.714844 C 42.188802 23.152177 42.664021 22.538495 42.554688 22.423828 C 42.440021 22.314495 41.908979 22.73637 41.570312 22.845703 C 41.236979 22.96037 40.590536 23.096312 40.533203 22.820312 C 40.481203 22.538979 41.279297 22.230469 41.279297 22.230469 C 41.279297 22.230469 41.685495 21.892589 41.798828 21.669922 C 41.909495 21.445922 41.742188 20.710328 41.742188 20.486328 C 41.742188 20.256995 41.164062 20.209552 41.164062 20.324219 C 41.164063 20.433552 41.039146 20.912719 40.757812 21.136719 C 40.481813 21.360719 39.91862 21.585245 39.751953 21.642578 C 39.585286 21.694578 39.220786 21.695312 38.939453 21.695312 C 38.65812 21.695312 37.90312 22.229818 37.564453 22.396484 C 37.23112 22.563151 37.399047 22.033854 37.623047 21.867188 C 37.847047 21.695188 38.070229 21.527344 38.351562 21.527344 C 38.631562 21.527344 38.746177 21.142703 38.964844 20.970703 C 39.236844 20.762703 39.761526 20.917719 40.130859 20.761719 C 40.340193 20.668385 40.419229 19.579469 40.476562 19.355469 C 40.533896 19.131469 40.813802 18.557943 40.980469 18.224609 C 41.152469 17.887276 41.04826 17.63676 40.933594 17.246094 C 40.82426 16.850094 41.345703 16.740318 41.345703 16.458984 C 41.345703 16.177651 41.204344 15.033937 41.152344 14.585938 C 41.09501 14.137938 41.653604 14.080161 41.710938 13.798828 C 41.768271 13.517495 41.532453 13.016401 41.564453 12.677734 C 41.600453 12.303068 41.934203 12.063927 42.158203 11.558594 C 42.387536 11.054594 41.882203 10.997396 41.658203 11.164062 C 41.434203 11.336062 41.095661 12.115802 40.986328 12.230469 C 40.871661 12.339802 40.732214 12.620484 40.685547 12.896484 C 40.648214 13.100484 40.585896 13.844276 40.476562 14.849609 C 40.367229 15.860276 40.116578 17.605953 39.892578 18.501953 C 39.668578 19.39662 39.470177 19.620401 38.964844 19.677734 C 38.464844 19.735068 38.576255 19.511719 38.294922 19.511719 C 38.065589 19.511719 37.986286 19.762286 37.876953 19.876953 C 37.762286 19.99162 37.346479 20.240234 37.007812 20.240234 C 36.669146 20.240234 36.783203 19.958943 36.783203 19.849609 C 36.783203 19.734943 37.372396 19.568484 37.539062 19.396484 C 37.705729 19.229818 37.961021 18.94987 37.679688 18.783203 C 37.398354 18.616536 37.251812 18.781969 37.007812 18.917969 C 36.169146 19.391302 36.335302 18.861245 36.417969 18.642578 C 36.491302 18.470578 35.773354 18.308594 35.554688 18.308594 C 35.330688 18.308594 35.354927 18.773161 34.933594 18.923828 C 34.542927 19.063828 34.345786 18.948526 34.064453 19.005859 C 33.78312 19.063193 34.008438 19.407719 34.148438 19.511719 C 34.372437 19.678385 34.231052 19.965396 34.761719 20.164062 C 34.955052 20.230729 35.330688 20.756443 35.554688 21.287109 C 35.721354 21.657776 35.797719 21.975094 35.761719 22.871094 C 35.745719 23.31376 35.522328 23.939536 35.486328 24.158203 C 35.418328 24.642203 35.808594 25.005719 35.808594 25.261719 C 35.808594 25.548385 35.90276 25.815036 35.996094 26.345703 C 36.084094 26.84037 35.996745 27.073526 35.830078 27.630859 C 35.663411 28.193526 35.652703 28.616453 35.720703 29.064453 C 35.830036 29.845786 35.513646 30.720609 35.320312 31.224609 C 35.153646 31.641943 35.111328 32.287151 35.111328 32.396484 C 35.111328 32.505818 34.824911 32.756995 34.767578 32.986328 C 34.710245 33.204995 34.939453 33.470052 34.939453 33.636719 C 34.939453 33.808719 34.877036 34.695312 34.595703 34.695312 C 34.319703 34.695312 33.70451 34.918536 33.589844 35.033203 C 33.475177 35.142536 33.648437 35.573568 33.148438 35.740234 C 32.643104 35.912234 32.076172 35.641927 31.576172 35.308594 C 31.070839 34.969927 30.675214 34.215536 30.560547 34.158203 C 30.451214 34.106203 30.257245 34.194052 30.142578 34.136719 C 30.033245 34.079385 29.945964 33.630943 29.779297 32.849609 C 29.61263 32.062943 29.611286 31.648438 30.001953 31.648438 C 30.397953 31.648438 31.053578 32.418344 31.517578 32.902344 C 32.048245 33.46501 32.804604 34.360677 33.085938 34.027344 C 33.367271 33.688677 33.055297 33.438969 32.779297 33.042969 C 32.497964 32.652302 32.496745 32.209802 32.330078 31.980469 C 32.158078 31.756469 31.538271 31.664578 31.460938 31.392578 C 31.403604 31.195245 31.34637 31.002094 31.095703 30.746094 C 30.84637 30.49676 30.636411 30.445135 30.455078 30.230469 C 30.251078 29.991802 30.028562 29.63737 29.976562 29.470703 C 29.919229 29.304036 29.727339 28.871828 29.388672 28.923828 C 29.112672 28.970495 29.245443 29.433677 29.412109 29.652344 C 29.578776 29.876344 29.675214 30.339193 29.560547 30.505859 C 29.451214 30.672526 28.934839 30.798786 28.576172 30.689453 C 28.304172 30.61212 28.23712 30.50612 27.814453 30.439453 C 27.371786 30.36612 27.304146 30.792135 26.882812 30.605469 C 26.632146 30.496135 26.584677 30.287234 26.527344 30.115234 C 26.47001 29.948568 26.481979 29.521651 26.195312 29.458984 C 25.893979 29.401651 25.66337 29.492229 25.720703 29.101562 C 25.76737 28.746896 26.209594 28.81962 26.433594 28.876953 C 26.657594 28.934286 26.732422 28.492271 26.732422 28.210938 C 26.732422 27.934938 26.279354 28.22526 26.304688 27.558594 C 26.326021 27.095927 26.752521 26.689536 26.867188 26.408203 C 26.981854 26.132203 26.648604 25.699193 26.585938 25.005859 C 26.528604 24.365859 26.641802 23.637411 26.980469 23.580078 C 27.313802 23.522745 27.871578 24.225177 28.267578 24.839844 C 28.658245 25.459844 28.918094 26.027453 29.246094 26.439453 C 29.527427 26.78212 29.929839 27.017979 30.451172 27.195312 C 30.856505 27.331312 31.626818 27.267385 32.021484 27.136719 C 32.354818 27.022052 32.622964 26.563719 32.904297 26.511719 C 33.18563 26.454385 33.221896 26.746135 33.476562 26.855469 C 33.675229 26.939469 33.814495 26.938844 33.923828 26.714844 C 34.033161 26.490844 33.419312 26.042927 33.195312 25.933594 C 32.971313 25.818927 32.242229 24.896484 31.851562 24.896484 C 31.346229 24.896484 31.121786 24.781901 31.064453 24.615234 C 31.012453 24.448568 31.768188 24.392578 31.992188 24.392578 C 32.216187 24.392578 32.423177 24.653646 32.589844 24.820312 C 32.761844 24.986979 33.308151 25.240677 33.521484 25.027344 C 33.688151 24.860677 33.600286 24.553885 33.626953 24.199219 C 33.652286 23.835219 33.970604 23.757536 33.835938 23.408203 C 33.694604 23.044203 32.715953 23.621771 31.251953 23.648438 C 29.79462 23.679104 29.106271 23.24026 28.460938 22.933594 C 27.955604 22.68826 27.34587 22.220401 26.783203 22.177734 C 26.027203 22.120401 24.543687 23.130901 24.179688 23.240234 C 23.767688 23.365568 22.746094 23.297568 22.246094 23.240234 C 21.742094 23.182901 21.037802 22.850979 20.480469 22.820312 C 19.964469 22.793646 19.226177 23.496234 18.964844 23.240234 C 18.600844 22.876234 19.347313 22.428427 19.695312 22.371094 C 20.060646 22.319094 21.084469 22.314469 20.980469 21.730469 C 20.871135 21.085135 19.778036 21.67387 19.220703 21.783203 C 18.658036 21.89787 18.991469 21.434245 19.355469 21.267578 C 19.652802 21.131578 20.272328 20.840203 20.736328 20.408203 C 21.126995 20.044203 21.237063 19.350995 21.289062 19.236328 C 21.565062 18.580328 22.012193 17.647219 22.630859 17.199219 C 23.100193 16.860552 23.813719 16.17837 24.761719 16.095703 C 25.100385 16.069036 25.795297 15.773052 26.279297 15.511719 C 26.585964 15.339719 26.169453 15.199177 25.689453 15.089844 C 25.273453 14.991177 25.100995 14.502729 24.986328 14.164062 C 24.876995 13.830729 24.595094 13.746745 24.371094 13.580078 C 24.147094 13.408078 23.955771 11.505995 23.898438 10.611328 C 23.841104 9.7099948 23.955036 9.1203438 24.345703 9.1523438 C 24.903036 9.1883437 24.580214 10.057526 24.685547 10.630859 C 24.74288 10.938859 25.231521 10.664104 25.242188 10.273438 C 25.251521 9.9347708 25.241594 7.9174271 24.933594 7.4960938 C 24.558927 6.9907604 22.778729 5.7154948 22.664062 5.5488281 C 22.554729 5.3821615 22.595203 4.7870104 22.283203 4.6523438 C 22.12187 4.5790104 21.98576 5.1152344 21.871094 5.6152344 C 21.756427 6.1205677 22.554078 6.6015208 22.830078 6.9921875 C 23.111411 7.3881875 23.450604 7.9184948 23.335938 8.4238281 C 23.221271 8.9291614 23.111328 11.83976 23.111328 12.121094 C 23.111328 12.397094 22.944135 12.902344 22.605469 12.902344 C 22.272135 12.902344 22.157469 12.064536 22.105469 11.783203 C 22.048135 11.503203 22.232146 11.387953 22.382812 11.251953 C 22.513479 11.137286 22.412177 10.266901 22.214844 10.240234 C 21.990844 10.214901 21.70962 10.354885 21.626953 9.8242188 C 21.50162 9.0322188 22.044078 9.2729271 22.080078 8.6835938 C 22.106745 8.1995938 21.803854 7.6533542 21.617188 7.5546875 C 21.429188 7.4493542 21.169021 7.0488437 21.179688 6.4648438 C 21.189021 5.8355104 20.951354 3.5957031 21.304688 3.5957031 C 21.810021 3.5957031 22.637313 3.9972604 22.945312 4.5585938 C 23.251979 5.1159271 24.794828 6.1268281 25.298828 6.7988281 C 25.798828 7.4708281 25.797526 9.7106875 25.630859 11.054688 C 25.464193 12.397354 26.021969 13.126094 26.417969 13.746094 C 26.808635 14.36076 27.371094 14.975219 27.371094 15.199219 C 27.371094 15.423219 27.580297 15.715469 27.904297 15.855469 C 28.070964 15.923469 29.164646 16.24612 29.695312 16.439453 C 30.180646 16.620786 30.694453 17.198969 31.314453 17.542969 C 31.78912 17.802969 33.507771 18.38251 33.898438 18.339844 C 35.210437 18.199844 34.627646 17.836589 34.570312 17.669922 C 34.512979 17.497922 34.923813 16.98551 35.007812 16.714844 C 35.210479 16.026844 34.589719 16.303745 34.761719 15.705078 C 34.871052 15.330411 34.595094 15.033813 34.371094 15.257812 C 34.147094 15.481812 34.173469 16.224568 34.105469 16.615234 C 34.042802 17.005901 33.419312 17.106812 33.195312 16.882812 C 32.971313 16.658813 33.376286 16.47037 33.626953 16.095703 C 33.834953 15.787703 33.314703 15.720385 32.970703 15.761719 C 32.528036 15.819052 32.720594 15.313927 33.308594 14.808594 C 33.668594 14.501927 33.710161 14.044437 34.048828 13.148438 C 34.382161 12.252438 34.814453 11.584802 34.814453 10.855469 C 34.814453 10.126135 34.252604 10.621688 34.085938 10.929688 C 33.935271 11.205687 33.662818 11.888411 33.521484 12.455078 C 33.318818 13.257745 32.85076 14.200078 32.496094 14.080078 C 32.225427 13.992078 32.779339 12.819911 32.888672 11.642578 C 33.003339 10.465245 33.476396 8.5906614 34.039062 7.3613281 C 34.596396 6.1266615 35.648422 6.4179688 36.232422 6.4179688 C 36.779089 6.4179687 37.355453 6.4188698 37.939453 5.9082031 C 38.303453 5.5908698 38.933594 5.7363281 38.933594 5.7363281 C 38.933594 5.7363281 37.492312 4.7415781 36.820312 4.5175781 C 36.148313 4.2882448 33.690021 3.3306198 33.304688 3.2519531 C 32.638021 3.1159531 30.992188 2.9082031 30.992188 2.9082031 C 30.992188 2.9082031 30.751094 4.3707604 30.871094 4.4960938 C 31.043094 4.6680937 31.751703 4.4963177 32.095703 4.4589844 C 32.31437 4.4389844 33.204911 4.5547708 33.267578 4.7734375 C 33.330245 4.9867708 33.060078 5.2351094 32.580078 5.2871094 C 31.924078 5.3551094 30.815229 5.4459219 30.476562 5.6699219 C 30.143229 5.8885885 30.304688 6.4290365 30.304688 6.5957031 C 30.304688 6.7677031 30.398604 6.6325625 29.835938 7.9765625 C 29.278604 9.3205625 28.716146 10.887937 28.382812 10.835938 C 28.044146 10.778604 28.449786 9.9128437 28.564453 8.9648438 C 28.673786 8.0115104 29.289672 6.9294531 29.013672 6.6894531 C 28.861672 6.5587865 28.319469 7.1683437 28.355469 6.6523438 C 28.376802 6.3296771 28.461646 4.5178125 28.320312 3.7578125 C 28.180313 2.9764792 27.537719 2.8190521 27.261719 2.7617188 C 27.121052 2.7357188 26.589141 2.6666562 26.056641 2.6601562 z M 10.535156 9.2246094 C 10.602682 9.1615503 10.665719 9.0991916 10.732422 9.0371094 L 10.496094 9.2363281 C 10.496094 9.2363281 10.528113 9.2269774 10.535156 9.2246094 z M 32.666016 6.140625 C 33.095531 6.0655755 33.309969 6.6384531 32.917969 6.9394531 C 32.600635 7.1887865 31.642578 8.0126719 31.642578 8.3886719 C 31.642578 8.6326719 31.882729 8.5273438 32.164062 8.5273438 C 32.445396 8.5273438 32.336161 9.2155781 32.298828 9.7675781 C 32.268161 10.319578 32.143271 10.839719 32.085938 11.511719 C 32.028604 12.183719 31.898521 13.433552 31.617188 13.824219 C 31.335854 14.220219 30.903604 14.606161 30.960938 14.048828 C 31.018271 13.486161 30.961396 13.037693 30.664062 13.068359 C 30.232063 13.115026 30.075521 13.516151 29.742188 14.021484 C 29.403521 14.526818 28.871786 14.469526 28.814453 13.630859 C 28.75712 12.786859 28.870885 12.705578 29.824219 10.017578 C 30.777552 7.3309115 31.820036 6.5948437 32.470703 6.2148438 C 32.539703 6.1750104 32.604656 6.1513464 32.666016 6.140625 z M 20.152344 23.439453 C 20.474375 23.413984 20.777969 23.558411 20.917969 23.705078 C 21.100635 23.887745 20.893812 24.26312 20.757812 24.564453 C 20.601813 24.897786 20.268339 25.458984 20.013672 25.458984 C 19.752339 25.458984 18.981479 25.308969 18.882812 24.792969 C 18.789479 24.339635 19.049938 24.137078 19.585938 23.705078 C 19.759937 23.531078 19.959125 23.454734 20.152344 23.439453 z M 39.197266 23.455078 C 39.546159 23.456419 39.908464 23.585052 40.341797 23.699219 C 41.033797 23.876552 41.688135 24.902536 42.105469 25.033203 C 42.318802 25.09587 44.044646 25.214901 44.195312 25.240234 C 44.352646 25.266901 44.28912 25.636443 44.314453 25.787109 C 44.34112 25.944443 44.657552 25.907234 45.324219 26.115234 C 45.996219 26.319234 45.736385 27.091036 45.761719 27.345703 C 45.788385 27.607036 46.071104 27.809521 46.148438 27.992188 C 46.227104 28.169521 46.227297 28.349953 46.279297 28.501953 C 46.331297 28.657953 46.726771 29.05751 46.273438 29.214844 C 45.961438 29.324177 45.35151 28.964109 44.964844 28.912109 C 44.57951 28.865443 43.912385 28.876276 43.761719 28.849609 C 43.605719 28.829609 43.600219 28.268328 43.324219 28.236328 C 43.136219 28.210995 42.653729 28.401859 42.039062 28.505859 C 41.419063 28.611193 40.867047 29.229484 40.623047 29.021484 C 40.331047 28.772151 40.065755 28.700146 39.732422 28.882812 C 39.617755 28.945479 39.158964 29.230469 38.904297 29.230469 C 38.648297 29.230469 38.351078 28.953609 38.455078 28.849609 C 38.553745 28.745609 38.987255 28.657859 39.169922 28.505859 C 39.347255 28.349859 39.268422 27.98126 38.732422 28.058594 C 38.451089 28.10126 38.560036 27.522703 38.970703 27.470703 C 39.336036 27.424036 39.429245 26.79312 39.142578 26.814453 C 38.861245 26.839786 38.492422 26.940328 38.232422 26.736328 C 37.976422 26.528328 38.230911 26.273922 38.517578 26.169922 C 38.797578 26.069922 39.31437 26.324276 39.595703 26.349609 C 39.877036 26.376276 40.054396 26.209693 40.289062 26.068359 C 40.590396 25.887026 41.007344 25.866703 41.027344 25.470703 C 41.048677 25.074703 40.699646 24.836479 40.570312 24.757812 C 40.444979 24.679146 39.637036 24.215385 39.095703 24.136719 C 38.55437 24.063385 38.251687 24.360786 38.179688 24.439453 C 38.101021 24.511453 37.809672 24.700536 37.513672 24.783203 C 37.331005 24.836536 37.127938 24.214984 37.335938 23.958984 C 37.642604 23.985651 37.975646 23.95976 38.570312 23.621094 C 38.782812 23.500094 38.98793 23.454273 39.197266 23.455078 z M 23.671875 25.230469 C 23.697477 25.231628 23.725979 25.238953 23.757812 25.251953 C 24.013812 25.35062 24.175313 25.533661 24.195312 25.736328 C 24.221979 26.017661 23.92988 26.506578 23.560547 26.642578 C 23.107214 26.814578 22.179078 26.688526 21.955078 26.505859 C 21.668411 26.277859 21.548203 25.89187 21.908203 25.533203 C 22.449536 25.09587 22.704828 25.147328 22.548828 25.611328 C 22.450161 25.901995 22.417844 26.434812 23.089844 26.382812 C 23.75651 26.330813 23.652828 25.866729 23.548828 25.664062 C 23.462495 25.480896 23.492664 25.222357 23.671875 25.230469 z M 30.566406 25.314453 C 30.759648 25.297174 30.887161 25.400286 30.798828 25.501953 C 30.726828 25.589953 30.456646 25.986995 30.695312 26.236328 C 30.872646 26.418995 31.377771 26.538995 31.648438 26.236328 C 31.924437 25.924328 31.675047 25.781734 31.623047 25.677734 C 31.571047 25.573734 31.61162 25.392563 31.876953 25.476562 C 32.13162 25.555229 32.429688 25.700203 32.429688 25.908203 C 32.429688 26.392203 32.131521 26.590469 31.742188 26.730469 C 31.210188 26.918469 30.690005 26.746427 30.388672 26.621094 C 30.086005 26.502427 29.814354 25.84462 30.179688 25.501953 C 30.310187 25.378453 30.450461 25.32482 30.566406 25.314453 z M 24.923828 25.576172 C 24.954878 25.573112 24.98901 25.576844 25.027344 25.589844 C 25.335344 25.68851 25.657469 25.867297 25.605469 26.279297 C 25.558802 26.689964 24.929453 27.080563 24.689453 27.476562 C 24.409453 27.935229 24.824328 27.970203 24.736328 28.158203 C 24.594995 28.439536 24.475344 29.002911 24.527344 29.517578 C 24.579344 30.002911 23.630859 30.542969 23.630859 30.542969 C 23.630859 30.542969 23.091172 30.953719 23.451172 31.261719 C 23.732505 31.505719 24.065245 31.419297 24.142578 31.779297 C 24.215911 32.11663 24.272844 32.835177 23.964844 33.089844 C 23.658177 33.34451 23.272453 33.527094 23.064453 33.371094 C 22.85512 33.215094 22.595953 32.803719 22.251953 33.011719 C 21.809286 33.278385 22.013672 33.538604 22.013672 33.835938 C 22.013672 34.126604 21.527521 34.366688 21.242188 34.554688 C 21.106188 34.642687 20.698818 34.710203 20.521484 34.658203 C 20.058818 34.527536 19.803703 34.022604 19.595703 33.835938 C 19.36637 33.631938 19.288302 33.268313 19.542969 33.320312 C 19.802969 33.372312 20.162818 33.476562 20.521484 33.476562 C 20.881484 33.476563 21.242188 33.320062 21.242188 33.164062 C 21.242187 33.012063 21.033203 32.705078 21.033203 32.705078 C 21.033203 32.705078 20.981589 32.392578 21.294922 32.392578 C 21.601589 32.392578 22.064911 32.444995 22.267578 31.986328 C 22.475578 31.522328 22.52162 31.522453 22.626953 31.314453 C 22.730953 31.111786 22.474844 30.694344 22.214844 30.902344 C 21.960177 31.111677 21.652094 31.41751 21.496094 31.214844 C 21.293427 30.938844 20.809229 30.600302 20.726562 30.542969 C 20.570563 30.438969 20.178818 30.52176 20.021484 30.371094 C 19.870818 30.215094 19.398187 29.533479 19.242188 29.382812 C 19.090188 29.225479 18.80337 28.600927 19.220703 28.183594 C 19.518036 27.887594 19.180339 27.688661 19.013672 27.611328 C 18.732339 27.480661 19.027245 26.819828 19.392578 26.923828 C 19.751245 27.022495 19.961078 27.350911 20.205078 27.517578 C 20.575745 27.773578 21.589953 27.996828 22.001953 28.048828 C 22.41262 28.100828 23.106286 28.136193 23.376953 28.130859 C 23.590286 28.130859 24.147854 28.336312 24.117188 27.820312 C 24.090521 27.382979 23.720245 27.486911 23.517578 27.517578 C 23.308245 27.554911 22.642411 27.585729 22.205078 27.539062 C 21.470411 27.471063 20.980745 27.344234 20.830078 27.240234 C 20.674078 27.141568 20.766953 26.672745 21.126953 26.830078 C 21.48562 26.986078 21.585688 27.038745 21.929688 27.080078 C 22.279021 27.126745 23.434563 27.126594 23.726562 27.058594 C 24.117229 26.970594 24.527703 26.740219 24.595703 26.324219 C 24.655203 25.982385 24.706482 25.597591 24.923828 25.576172 z M 16.666016 28.488281 C 16.912453 28.450469 17.213328 28.593438 17.361328 28.648438 C 17.554661 28.725771 17.616844 29.283078 17.464844 29.455078 C 17.31951 29.632411 17.002078 29.944911 16.830078 30.267578 C 16.652745 30.584911 15.543344 31.10076 14.527344 31.246094 C 13.51801 31.39676 12.028422 31.016844 11.732422 30.964844 C 11.435089 30.918177 11.367255 30.985995 11.169922 31.111328 C 10.971255 31.229995 10.715995 30.918245 10.861328 30.767578 C 11.007995 30.620911 11.428427 30.147151 11.871094 29.896484 C 12.319094 29.647151 13.653922 29.131286 14.169922 29.001953 C 14.809922 28.839286 15.424646 28.78726 15.695312 28.808594 C 15.965979 28.83526 16.199979 28.839703 16.445312 28.595703 C 16.507646 28.533036 16.58387 28.500885 16.666016 28.488281 z M 37.574219 29.642578 C 37.712885 29.626411 37.862021 29.653813 38.054688 29.757812 C 38.440021 29.965812 38.518229 30.091313 38.851562 30.195312 C 39.184896 30.293979 39.360495 30.193609 39.673828 30.349609 C 39.980495 30.501609 40.261484 30.887937 40.521484 30.835938 C 40.777484 30.787938 42.267911 29.809135 43.142578 29.730469 C 44.013245 29.658469 44.658964 29.548786 45.404297 29.939453 C 46.148297 30.324786 46.84637 31.164104 47.095703 31.273438 C 47.33037 31.377437 48.001469 32.388396 48.105469 32.539062 C 48.204135 32.695062 48.309453 33.224995 48.689453 33.486328 C 48.909453 33.631661 49.231469 33.43487 49.355469 33.408203 C 49.486135 33.388203 49.680021 33.740635 49.554688 33.917969 C 49.424021 34.100635 49.032177 34.537734 48.714844 34.177734 C 48.506844 33.944401 47.865745 33.329734 47.455078 33.177734 C 47.043078 33.021734 46.53363 33.074219 46.404297 33.074219 C 46.278964 33.074219 46.324844 32.740177 45.964844 32.714844 C 45.606177 32.688177 45.403521 32.615552 45.242188 32.574219 C 44.855521 32.475552 45.246312 32.068635 45.070312 31.917969 C 44.830313 31.715302 44.28301 32.106427 44.152344 32.121094 C 43.92301 32.14776 43.372521 31.87676 43.867188 31.746094 C 44.383187 31.615427 43.929229 31.314729 43.726562 31.164062 C 43.559896 31.038729 43.17951 31.465271 42.964844 31.335938 C 42.794177 31.230604 43.174135 30.850052 42.855469 30.636719 C 42.751469 30.563385 42.34062 30.94562 42.001953 31.126953 C 41.845953 31.216286 41.314161 31.428719 41.548828 31.636719 C 41.778161 31.839385 42.032719 31.767302 42.136719 31.917969 C 42.242052 32.073969 42.523354 32.356396 42.804688 32.539062 C 43.091354 32.716396 44.607339 33.302818 44.888672 34.021484 C 45.170005 34.745484 45.795271 35.964344 45.585938 37.152344 C 45.383271 38.33501 45.195312 38.29812 45.195312 38.939453 C 45.195312 39.584786 45.320563 39.981177 45.476562 40.339844 C 45.628562 40.699844 45.543995 40.729651 45.361328 40.958984 C 45.185328 41.188318 45.117245 41.330385 45.142578 41.511719 C 45.169245 41.689052 44.626818 41.882161 44.521484 41.548828 C 44.417484 41.215495 43.949484 39.471297 44.021484 38.779297 C 44.100151 38.085964 44.565672 37.751677 44.513672 36.902344 C 44.461672 36.054344 43.965839 34.872453 43.451172 34.564453 C 42.935172 34.252453 41.830536 33.460453 40.033203 33.564453 C 38.742536 33.637786 38.934854 33.612063 38.492188 33.664062 C 38.142854 33.710729 37.590036 33.695104 37.720703 33.148438 C 37.778036 32.897771 39.418937 33.080411 39.210938 32.955078 C 39.008271 32.825745 38.854927 32.454828 38.933594 32.298828 C 39.01226 32.142828 39.107021 31.803219 38.929688 31.699219 C 38.747021 31.595219 37.976104 31.786844 37.773438 31.714844 C 37.565438 31.636177 37.31351 31.606344 37.214844 31.402344 C 37.110844 31.199677 37.38712 30.763245 37.564453 30.892578 C 37.745786 31.017911 38.003146 31.200495 38.257812 31.173828 C 38.519146 31.148495 38.877771 31.017661 38.648438 30.736328 C 38.413771 30.449661 37.92312 30.423635 37.564453 30.292969 C 37.204453 30.168969 36.845677 29.908536 37.152344 29.783203 C 37.306344 29.718536 37.435552 29.658745 37.574219 29.642578 z M 16.972656 31.367188 C 17.055417 31.362331 17.154271 31.36512 17.273438 31.376953 C 17.773437 31.428953 18.049161 31.838901 18.423828 32.240234 C 18.803828 32.646901 18.549104 33.022286 18.398438 33.376953 C 18.246438 33.724953 18.298229 34.106328 18.351562 34.986328 C 18.398229 35.866328 17.829953 35.870818 17.501953 36.021484 C 17.173953 36.172151 16.846187 36.058328 16.742188 35.986328 C 16.642188 35.912995 16.538203 36.016302 16.158203 36.042969 C 15.783536 36.068302 15.871036 35.940271 15.845703 35.710938 C 15.819036 35.486938 16.236995 34.912385 16.486328 34.761719 C 16.736995 34.611052 16.940396 34.711271 17.039062 34.585938 C 17.143062 34.460604 17.116245 33.731229 17.017578 33.476562 C 16.912245 33.225896 16.527052 33.204427 16.261719 33.371094 C 15.881719 33.60576 15.393979 34.555203 15.195312 34.783203 C 14.992646 35.012536 14.523172 36.830745 14.451172 37.080078 C 14.372505 37.330745 14.221505 38.091245 14.576172 38.392578 C 14.929505 38.695245 15.278354 38.241052 15.179688 38.011719 C 15.075688 37.782385 15.251411 37.601495 15.330078 37.298828 C 15.403411 36.997495 16.329927 37.058594 16.808594 37.058594 C 17.501927 37.058594 17.881677 36.761734 18.152344 36.677734 C 18.501677 36.573734 18.877453 36.538703 19.189453 36.470703 C 19.413453 36.424036 19.721229 36.382953 20.226562 36.126953 C 20.726562 35.87762 21.185328 36.01651 21.361328 36.089844 C 21.538661 36.16851 21.673552 36.779078 21.824219 36.955078 C 21.974885 37.121745 22.252354 37.012672 22.429688 36.888672 C 22.607021 36.763339 22.641703 36.257453 22.845703 36.189453 C 23.15237 36.085453 23.476688 36.377354 23.804688 36.554688 C 24.128687 36.730687 24.54438 37.006688 24.623047 37.054688 C 24.695047 37.106687 25.022896 36.928745 25.101562 36.830078 C 25.174896 36.730078 24.923427 36.554286 24.746094 36.376953 C 24.570094 36.194286 24.492521 35.970979 24.367188 35.820312 C 24.243188 35.664313 23.964328 35.694578 23.736328 35.642578 C 23.512328 35.590578 23.694646 35.320646 23.945312 35.195312 C 24.199979 35.069979 24.460719 35.091313 24.636719 35.195312 C 24.808719 35.299312 24.887245 35.387937 25.392578 35.335938 C 25.897911 35.282604 26.106661 35.553734 26.361328 35.677734 C 26.611995 35.808401 26.818885 35.725771 27.324219 35.648438 C 27.772219 35.580438 28.423745 35.716313 28.705078 35.820312 C 28.981078 35.918979 28.897578 36.548094 29.017578 36.996094 C 29.116245 37.37076 29.116938 37.683719 29.460938 38.511719 C 29.611604 38.871719 29.699687 39.371068 29.679688 39.677734 C 29.663688 39.865734 29.518188 40.361354 29.742188 40.554688 C 29.903521 40.700021 30.289229 40.923927 30.726562 41.058594 C 30.846562 41.095927 31.371703 41.298828 31.595703 41.298828 C 31.825036 41.298828 31.992255 41.595094 32.294922 41.871094 C 32.596255 42.147094 32.689604 42.90812 32.710938 43.189453 C 32.737604 43.465453 32.438995 43.335536 32.236328 43.158203 C 32.032328 42.98087 31.987146 42.965604 31.757812 42.710938 C 31.533813 42.460271 31.101839 42.210938 30.951172 42.210938 C 30.799172 42.210937 29.794854 42.448953 29.492188 42.376953 C 29.189521 42.298286 28.742729 41.954135 28.664062 41.855469 C 28.590729 41.751469 28.169312 41.715177 27.945312 41.589844 C 27.715979 41.46451 27.336547 41.064604 27.060547 40.585938 C 26.779214 40.101938 26.481286 39.245693 26.251953 39.068359 C 26.027953 38.896359 25.877714 38.819302 25.623047 38.917969 C 25.37238 39.021969 25.116453 39.397979 24.564453 39.195312 C 23.985786 38.981979 23.460703 39.579802 23.220703 40.230469 C 23.13137 40.465135 23.060214 40.783339 22.185547 40.888672 C 22.00288 40.903339 21.491729 40.710938 21.289062 40.710938 C 21.085063 40.710937 20.69876 40.836672 20.496094 40.888672 C 20.293427 40.940672 20.232479 40.652526 20.257812 40.505859 C 20.279146 40.349859 19.852229 40.241854 19.601562 40.367188 C 19.257563 40.539187 19.481203 41.371026 19.533203 41.568359 C 19.57987 41.772359 19.377229 42.163578 19.226562 42.267578 C 19.075896 42.366245 18.725828 42.365568 18.673828 42.240234 C 18.621828 42.114901 18.497312 41.610927 18.445312 41.433594 C 18.398646 41.25626 18.293484 40.855953 18.521484 40.251953 C 18.745484 39.647953 19.554135 39.569036 19.855469 39.595703 C 20.158135 39.621036 20.433594 39.669922 20.433594 39.669922 C 20.433594 39.669922 20.761443 39.365901 20.912109 39.115234 C 21.064109 38.865901 21.642245 38.638005 21.767578 38.388672 C 21.898245 38.138005 21.721797 37.980318 21.341797 37.958984 C 20.965797 37.933651 20.33587 38.413729 20.033203 38.539062 C 19.73187 38.664396 18.569969 38.38726 18.417969 38.308594 C 18.267302 38.23526 18.418922 37.831146 18.294922 37.757812 C 18.169589 37.679146 17.944995 37.802927 17.486328 37.933594 C 17.032995 38.057594 16.408745 38.538995 16.330078 38.736328 C 16.251411 38.940328 16.303344 39.43876 16.027344 39.496094 C 15.77801 39.54276 15.636719 39.825354 15.636719 40.054688 C 15.636719 40.257354 16.018036 40.334927 16.220703 40.433594 C 16.42337 40.537594 16.486771 41.15226 16.773438 41.433594 C 17.013437 41.66826 16.96588 41.902786 17.060547 42.189453 C 17.13788 42.429453 17.324995 42.376786 17.486328 42.439453 C 17.631661 42.50212 17.631521 42.64837 17.742188 42.845703 C 17.819521 42.987036 18.05462 43.043911 18.251953 43.142578 C 18.455953 43.246578 18.445771 43.52262 18.648438 43.751953 C 18.847104 43.975953 19.227021 43.897286 19.429688 43.751953 C 19.628354 43.595953 19.662995 43.366786 19.736328 43.189453 C 19.813661 43.01212 20.116578 42.782896 20.392578 42.601562 C 20.668578 42.429563 20.991245 42.293094 21.392578 42.121094 C 21.876578 41.913094 22.315255 41.730937 22.669922 41.710938 C 23.019255 41.684271 23.768688 41.580245 23.804688 42.017578 C 23.842021 42.454911 23.288344 42.331063 23.152344 42.539062 C 23.037677 42.725729 23.001885 43.121438 22.699219 43.273438 C 22.397885 43.424104 22.19437 43.573552 22.095703 43.824219 C 21.997036 44.073552 21.66312 44.579745 21.564453 44.705078 C 21.460453 44.835745 21.195062 44.793271 21.039062 44.835938 C 20.700396 44.913271 20.246161 45.04376 20.048828 45.121094 C 19.846161 45.194427 19.564411 45.606245 19.455078 45.767578 C 19.335078 45.934245 18.664547 46.172953 18.060547 46.376953 C 17.456547 46.57962 16.538937 46.590328 16.210938 46.486328 C 15.888271 46.387661 16.02701 46.194177 16.152344 45.964844 C 16.277677 45.740844 16.90912 45.715177 17.314453 45.589844 C 17.715786 45.46451 18.042969 45.31512 18.042969 45.064453 C 18.042969 44.809786 17.690005 44.558135 17.388672 44.355469 C 17.086005 44.158135 17.059604 43.954469 16.960938 43.730469 C 16.860938 43.502469 16.606135 43.448276 16.355469 43.349609 C 16.106135 43.245609 15.955469 43.17337 15.855469 42.970703 C 15.751469 42.768036 15.830411 42.621521 15.705078 42.492188 C 15.575745 42.366854 15.336255 41.991427 15.294922 41.746094 C 15.257589 41.538094 15.351896 40.65301 15.226562 40.402344 C 15.101229 40.15301 14.798312 40.200161 14.570312 40.298828 C 14.340979 40.397495 14.14212 40.429286 13.939453 40.251953 C 13.736786 40.07462 13.485927 39.03912 13.308594 38.564453 C 13.13126 38.080453 12.647161 36.496969 12.673828 36.292969 C 12.699161 36.090302 12.802776 35.481094 12.912109 35.121094 C 13.026776 34.746427 13.059729 34.559354 13.289062 34.304688 C 13.513062 34.055354 13.767786 33.527219 13.814453 33.199219 C 13.866453 32.871219 14.049589 32.715937 14.294922 32.335938 C 14.502922 32.017271 14.970438 32.01651 15.398438 32.089844 C 15.825104 32.16851 16.288844 32.033536 16.464844 31.908203 C 16.62001 31.798536 16.393333 31.401185 16.972656 31.367188 z M 9.1289062 31.6875 C 9.4164896 31.666336 9.5570104 31.874927 9.4648438 32.121094 C 9.3555104 32.40776 8.7777865 32.87687 8.5644531 33.158203 C 8.3457865 33.44487 8.0129948 33.797719 7.9863281 34.261719 C 7.9609948 34.724385 7.7042031 34.99626 7.4082031 35.433594 C 7.1108698 35.870927 7.4180781 36.834927 7.3300781 37.433594 C 7.2567448 37.91226 6.8871615 38.428609 6.6738281 38.224609 C 6.3764948 37.948609 6.6482969 37.273771 6.4042969 37.148438 C 5.9189636 37.069771 5.6011042 36.668401 5.8984375 36.177734 C 6.0077708 36.001734 5.9654115 35.700187 6.0800781 35.492188 C 6.4040781 34.929521 5.8553281 34.778078 6.1113281 34.330078 C 6.2153281 34.147411 7.2325052 32.919146 7.4511719 32.757812 C 7.8778385 32.440479 8.6160938 31.814937 8.9960938 31.710938 C 9.0429271 31.697938 9.0878229 31.690523 9.1289062 31.6875 z M 11.669922 31.728516 C 11.984422 31.720828 12.376828 31.762953 12.548828 31.876953 C 12.783495 32.032953 12.854953 32.18912 12.626953 32.314453 C 12.39762 32.44512 11.960109 32.454938 11.912109 32.710938 C 11.860109 32.965604 12.168938 33.184161 12.460938 33.298828 C 12.756937 33.413495 12.012109 34.715927 11.912109 35.058594 C 11.756109 35.56926 11.470479 35.657443 11.007812 35.912109 C 10.543813 36.168109 10.449635 36.236411 10.542969 36.455078 C 10.673635 36.736411 10.595786 36.917693 10.314453 37.068359 C 10.03312 37.224359 9.8241094 37.423026 9.4121094 38.068359 C 9.0014427 38.715026 8.8253281 39.637094 8.3613281 40.121094 C 8.0026615 40.19976 7.6368542 39.881693 7.7421875 39.568359 C 7.8661875 39.193693 8.6681771 37.606995 8.7148438 37.236328 C 8.7668437 36.825661 8.2561354 36.475828 9.1054688 36.423828 C 9.3601354 36.407828 9.3603281 36.189536 9.2363281 35.908203 C 9.1056615 35.62687 8.6428281 35.677969 8.7988281 35.417969 C 8.9561615 35.163302 9.0282135 35.268146 9.1855469 34.882812 C 9.3362135 34.497479 9.4921615 33.391135 9.7988281 32.980469 C 10.148161 32.516469 10.367104 32.699979 10.648438 32.445312 C 10.929771 32.189313 11.084578 31.803953 11.392578 31.751953 C 11.469245 31.738953 11.565089 31.731078 11.669922 31.728516 z M 27.580078 32.501953 C 28.038745 32.527286 27.866036 33.620786 28.220703 33.939453 C 28.736703 34.396786 28.308844 34.840354 27.964844 34.429688 C 27.704844 34.116354 27.553703 34.220703 27.345703 34.220703 C 27.141703 34.220703 27.116937 34.044187 26.960938 33.992188 C 26.808938 33.940188 26.26712 34.199536 26.064453 33.658203 C 25.933786 33.319536 25.679385 32.860594 26.136719 32.808594 C 26.600719 32.756594 26.756203 32.912594 26.908203 32.808594 C 27.064203 32.704594 27.366745 32.485953 27.580078 32.501953 z M 36.339844 33.84375 C 36.63007 33.858862 36.824797 34.094401 36.779297 34.677734 C 36.727297 35.344401 36.518964 36.221661 36.904297 36.736328 C 37.28963 37.246995 37.600177 37.27326 38.214844 37.558594 C 38.82951 37.839927 39.528172 38.558245 39.576172 38.767578 C 39.628172 38.970245 39.346729 39.381594 39.164062 39.433594 C 38.986729 39.485594 38.73263 39.048234 38.779297 38.740234 C 38.831297 38.433568 38.40826 38.309979 37.933594 38.195312 C 37.334927 38.049979 37.033286 38.121036 36.751953 38.095703 C 36.465286 38.069036 35.928703 37.762427 35.720703 37.121094 C 35.518036 36.481094 35.543052 36.116589 35.261719 36.169922 C 34.975052 36.221922 34.745552 36.502604 34.824219 36.835938 C 34.902885 37.169271 34.956104 37.533411 34.773438 37.580078 C 34.590771 37.632078 33.975286 37.297443 34.001953 36.912109 C 34.027286 36.532109 34.107339 36.064672 34.388672 35.888672 C 34.670005 35.706005 35.027052 35.397245 35.261719 35.142578 C 35.491052 34.887911 35.68487 34.74026 35.658203 34.433594 C 35.627536 34.04826 35.852271 33.901609 36.210938 33.849609 C 36.255937 33.843109 36.298383 33.841591 36.339844 33.84375 z M 46.056641 33.904297 C 46.322828 33.924297 46.519188 34.148094 46.617188 34.246094 C 46.746521 34.37676 46.79776 34.423885 46.871094 34.449219 C 46.94976 34.481219 47.180479 34.813635 47.257812 35.042969 C 47.336479 35.272302 47.440646 35.73576 47.695312 36.121094 C 47.951312 36.506427 48.079536 36.533604 48.158203 36.710938 C 48.23687 36.888271 47.975453 37.465979 47.939453 37.695312 C 47.86612 38.164646 48.194438 38.132604 48.398438 38.585938 C 48.549104 38.919271 47.743062 40.314161 47.539062 40.548828 C 47.315063 40.798161 46.819135 41.272385 46.480469 41.261719 C 46.272469 41.251052 46.070453 40.397094 46.314453 40.121094 C 46.674453 39.710427 46.345703 39.106552 46.345703 38.949219 C 46.345703 38.798552 46.767896 38.78176 46.726562 38.371094 C 46.689229 37.991094 46.298964 37.871193 46.404297 37.505859 C 46.58563 36.887193 46.48587 35.761802 46.283203 35.480469 C 46.075203 35.193802 45.688661 34.709953 45.611328 34.501953 C 45.512661 34.235286 45.688911 34.068844 45.767578 33.964844 C 45.870578 33.914177 45.967911 33.89763 46.056641 33.904297 z M 37.914062 34.304688 C 37.990062 34.298188 38.057313 34.339443 38.195312 34.412109 C 38.471312 34.562776 39.032703 34.849427 39.720703 34.996094 C 40.28337 35.11476 41.797484 35.064271 42.021484 35.210938 C 42.250818 35.361604 42.303344 35.412995 42.527344 35.486328 C 42.751344 35.563661 43.532193 36.022495 43.630859 36.423828 C 43.736193 36.830495 43.742786 37.340245 43.689453 37.517578 C 43.637453 37.694911 43.230953 37.625609 43.126953 37.349609 C 43.026953 37.073609 42.961021 36.721703 42.679688 36.845703 C 42.403688 36.971036 42.574953 38.085328 42.626953 38.361328 C 42.678953 38.637328 42.814245 39.038453 42.767578 39.314453 C 42.715578 39.58512 42.455078 39.63712 42.455078 39.814453 C 42.455078 40.01712 42.808938 40.172276 42.960938 40.349609 C 43.111604 40.521609 43.278828 40.890818 43.298828 41.021484 C 43.346828 41.390818 43.862005 41.459385 43.888672 41.636719 C 43.910005 41.814052 43.600703 42.569896 44.220703 42.476562 C 45.054036 42.351229 45.43362 42.992203 45.126953 43.408203 C 45.048286 43.50687 44.596297 44.163344 44.404297 44.027344 C 44.158964 43.855344 43.679427 43.621495 43.746094 43.298828 C 43.82476 42.949495 43.076187 42.93976 42.992188 43.121094 C 42.898854 43.314427 42.882922 43.724318 42.794922 43.958984 C 42.705589 44.193651 42.351094 44.653203 41.871094 45.033203 C 41.72576 45.14787 40.580687 45.814161 40.304688 46.048828 C 40.107354 46.224828 39.726052 46.88201 40.136719 47.527344 C 40.262052 47.720677 38.887078 48.41312 37.955078 48.814453 C 37.021745 49.22112 35.81351 49.694094 35.714844 49.746094 C 35.712843 49.747094 35.677123 49.76213 35.673828 49.763672 C 35.721769 49.706925 35.752228 49.63881 35.746094 49.542969 C 35.642094 47.922969 38.537469 47.818859 38.605469 47.130859 C 38.641469 46.786859 39.299063 45.981177 39.539062 45.839844 C 39.669729 45.767844 40.206021 45.199552 40.304688 45.074219 C 40.404687 44.948885 41.372646 44.872245 41.195312 44.517578 C 41.019313 44.164245 40.865969 44.215844 40.917969 43.839844 C 40.969969 43.459844 41.476562 42.881943 41.476562 42.224609 C 41.476562 41.573943 41.273589 40.693427 41.294922 40.496094 C 41.320255 40.292094 41.481161 40.002302 41.423828 39.792969 C 41.325161 39.439635 40.924589 39.584661 40.669922 39.111328 C 40.471255 38.740661 40.580161 38.356021 40.298828 38.054688 C 40.022828 37.757354 39.75662 37.782203 39.501953 37.658203 C 39.251286 37.53287 39.086005 37.224885 38.888672 37.074219 C 38.686005 36.923552 38.226411 36.798552 38.205078 36.449219 C 38.179745 36.095885 38.304297 35.611635 37.904297 35.292969 C 37.49763 34.975635 37.273505 34.997521 37.576172 34.492188 C 37.752839 34.366854 37.838063 34.311187 37.914062 34.304688 z M 31.0625 37.535156 C 31.11413 37.539286 31.17526 37.548953 31.246094 37.564453 C 31.746094 37.673786 32.106979 37.981578 32.320312 38.017578 C 32.590979 38.069578 33.044646 37.673203 33.195312 38.033203 C 33.341979 38.377203 33.610802 38.944719 34.105469 39.136719 C 34.600135 39.335385 35.657469 39.336271 36.105469 39.210938 C 36.548135 39.090938 36.694854 39.235938 36.992188 39.335938 C 37.289521 39.434604 37.523313 39.486177 37.695312 39.464844 C 37.867312 39.43951 38.226229 39.48087 38.351562 39.658203 C 38.470229 39.830203 38.595562 40.132479 38.351562 40.257812 C 38.168896 40.351146 37.673745 40.120703 37.455078 40.220703 C 37.231078 40.31937 36.497411 40.510901 36.080078 40.740234 C 35.533411 41.037568 34.819411 41.058594 34.330078 41.058594 C 33.835411 41.058594 33.101229 40.991026 32.726562 40.568359 C 32.502563 40.319026 32.158354 40.220828 32.179688 40.048828 C 32.205021 39.876828 32.256135 39.606812 32.105469 39.382812 C 31.960135 39.164146 31.856646 38.949052 31.695312 39.011719 C 31.080646 39.262385 31.319427 38.549219 31.246094 38.449219 C 31.174094 38.350552 30.825495 38.054812 30.798828 37.882812 C 30.776661 37.732313 30.701089 37.506245 31.0625 37.535156 z M 9.8457031 39.515625 C 10.047703 39.508625 10.346188 39.572938 10.742188 39.710938 C 11.532854 39.992271 11.26726 39.745609 11.808594 39.849609 C 12.35126 39.953609 12.658286 41.063802 12.876953 41.230469 C 13.210286 41.486469 14.336161 43.16337 14.798828 43.720703 C 15.185495 44.18337 15.289036 44.568385 14.595703 44.261719 C 14.319703 44.136385 12.819177 43.183094 12.589844 42.871094 C 12.355177 42.563094 12.153396 42.335552 11.664062 42.074219 C 11.180063 41.814219 10.841687 41.396484 10.429688 41.396484 C 10.019021 41.396484 8.9031354 41.65251 8.9804688 41.089844 C 9.1111354 40.625844 9.2899375 40.502812 9.5859375 40.382812 C 9.8259375 40.278813 9.5225365 40.063427 9.5332031 39.746094 C 9.5385365 39.600094 9.6437031 39.522625 9.8457031 39.515625 z M 25.638672 40.212891 C 25.767505 40.221891 25.881536 40.285828 25.908203 40.423828 C 25.960203 40.710495 26.095953 41.224995 26.251953 41.486328 C 26.403953 41.740995 26.778229 41.782177 26.851562 41.964844 C 26.928896 42.142177 27.19401 42.491911 27.527344 42.642578 C 27.860677 42.798578 29.267344 43.022161 29.527344 43.048828 C 29.783344 43.074161 30.12288 43.459661 29.685547 43.486328 C 29.24688 43.511661 27.960802 43.510885 27.355469 43.324219 C 26.803469 43.152219 26.53862 42.906901 26.251953 42.740234 C 26.12262 42.662901 25.830729 42.319495 25.664062 42.048828 C 25.492063 41.778161 25.11087 41.548359 24.908203 41.568359 C 24.55887 41.611026 24.376193 40.830937 24.630859 40.710938 C 24.845526 40.606938 25.079203 40.532745 25.283203 40.330078 C 25.366536 40.249411 25.509839 40.203891 25.638672 40.212891 z M 39.039062 41.074219 C 39.341729 41.100885 39.465521 41.376151 39.492188 41.521484 C 39.518854 41.672151 39.81412 41.849427 39.939453 41.996094 C 40.064786 42.14676 40.261719 42.74576 40.261719 42.871094 C 40.261719 42.996427 40.324719 44.001844 40.136719 44.089844 C 39.658052 44.329844 39.866328 44.573568 39.486328 44.740234 C 39.106328 44.906901 38.788385 44.740844 38.761719 44.464844 C 38.725719 44.120844 38.888396 43.912719 39.039062 43.636719 C 39.185729 43.360719 38.797719 42.757828 38.761719 42.673828 C 38.657719 42.429828 38.366036 42.120359 38.220703 42.068359 C 38.070036 42.021693 36.899104 42.044438 36.648438 42.148438 C 36.299104 42.299104 36.250885 42.10137 36.324219 41.970703 C 36.397552 41.850703 36.606839 41.522661 37.076172 41.361328 C 37.538839 41.205328 38.743063 41.054219 39.039062 41.074219 z M 34.798828 42.710938 C 35.304161 42.689604 35.279339 42.887151 35.388672 43.396484 C 35.487339 43.876484 35.794578 43.965354 36.142578 44.054688 C 36.658578 44.178687 36.548661 44.793703 36.111328 44.845703 C 35.855328 44.883036 35.325245 44.997219 35.142578 44.949219 C 34.866578 44.882552 34.492672 44.387052 34.388672 44.261719 C 34.284672 44.131052 34.055062 43.72026 34.039062 43.433594 C 34.008396 42.74026 34.513495 42.716271 34.798828 42.710938 z M 24.916016 43.121094 C 25.014516 43.121448 25.104021 43.141453 25.179688 43.189453 C 25.455687 43.366786 25.685755 43.652276 25.732422 43.849609 C 25.804422 44.125609 25.153839 44.28751 24.951172 44.464844 C 24.747172 44.642177 24.518979 44.673938 24.320312 45.085938 C 24.122979 45.492604 23.798828 46.091078 23.798828 46.455078 C 23.798828 46.689745 23.87076 47.329651 23.996094 47.458984 C 24.121427 47.584318 24.273229 47.861786 24.226562 48.064453 C 24.174563 48.26312 23.975344 48.523255 24.027344 48.669922 C 24.075344 48.820589 24.412453 48.923495 25.064453 49.048828 C 25.720453 49.172828 26.002964 49.371177 26.404297 49.589844 C 26.58563 49.693844 27.111453 50.205661 27.439453 50.236328 C 27.855453 50.268328 31.079813 49.992188 31.507812 49.992188 C 31.934479 49.992187 33.345484 50.64251 34.021484 50.339844 C 34.44634 50.149508 34.810416 50.071698 35.105469 50.001953 C 34.509321 50.256012 33.683898 50.609212 33.576172 50.642578 C 33.492172 50.673245 31.257755 51.091313 29.232422 51.195312 C 27.763089 51.273979 26.955036 51.330302 26.845703 51.292969 C 26.365703 51.120969 26.341604 49.992188 25.210938 49.992188 C 24.658938 49.992188 24.438818 51.163411 24.521484 51.330078 C 24.621484 51.532745 23.731286 51.50626 23.501953 51.183594 C 23.277953 50.855594 23.49151 49.907276 23.464844 49.724609 C 23.43951 49.548609 23.444854 49.272359 23.242188 49.068359 C 23.043521 48.865693 22.742729 48.669854 22.664062 48.367188 C 22.590729 48.064521 22.528505 47.663453 22.451172 47.439453 C 22.195172 46.71012 22.013979 46.090786 22.195312 45.689453 C 22.377979 45.282786 22.565396 44.688844 22.664062 44.464844 C 22.762729 44.240844 23.456297 43.607021 23.904297 43.429688 C 24.243297 43.296688 24.620516 43.120031 24.916016 43.121094 z M 30.955078 43.177734 C 31.184411 43.177734 31.720427 43.251135 31.871094 43.480469 C 32.02176 43.715135 32.330479 43.939302 32.507812 43.917969 C 32.685146 43.891302 32.788109 43.819578 32.912109 43.767578 C 33.042776 43.715578 33.299172 43.892438 33.451172 44.148438 C 33.601839 44.403104 33.575688 44.449354 33.679688 44.554688 C 33.778354 44.658687 34.164271 45.038979 34.210938 45.320312 C 34.262937 45.596312 34.319979 46.356354 34.445312 46.429688 C 34.575979 46.507021 34.981755 46.439677 35.232422 46.402344 C 35.743089 46.32501 36.06976 46.032953 36.371094 45.876953 C 36.679094 45.724953 36.852021 45.741786 37.054688 45.564453 C 37.252021 45.388453 37.455302 44.88237 37.417969 44.595703 C 37.365969 44.215703 38.105469 44.313427 38.105469 44.496094 C 38.105469 44.672094 38.032135 45.216313 38.105469 45.320312 C 38.184135 45.424312 38.356146 45.615427 38.382812 45.746094 C 38.409479 45.871427 38.355911 45.883229 38.142578 45.976562 C 37.830578 46.116562 37.559562 46.079109 37.351562 46.287109 C 37.158229 46.480443 36.987089 46.83951 36.732422 46.964844 C 36.476422 47.09551 35.836354 47.30826 35.429688 47.433594 C 35.023021 47.557594 34.569969 47.83951 34.417969 47.964844 C 34.267302 48.09551 33.990859 48.017521 33.630859 47.992188 C 33.277526 47.965521 32.950312 47.986786 32.570312 48.189453 C 32.188979 48.39212 31.199469 48.434135 30.355469 48.355469 C 29.518135 48.282135 28.429161 48.444094 27.923828 48.496094 C 27.413161 48.548094 26.855495 48.616672 26.548828 48.388672 C 26.242161 48.159339 26.372172 47.871578 26.576172 47.767578 C 26.778839 47.668911 27.116703 47.678896 27.220703 47.601562 C 27.324703 47.528229 28.205521 47.037443 28.492188 46.912109 C 28.622854 46.849443 29.221521 46.568094 29.492188 46.496094 C 29.685521 46.43876 30.018979 46.20487 30.320312 46.158203 C 30.628312 46.106203 30.872188 46.012578 30.992188 45.892578 C 31.076187 45.809911 31.101589 45.606687 30.794922 45.554688 C 30.492255 45.502688 30.243062 45.434078 30.039062 45.330078 C 29.836396 45.224745 29.544464 45.06876 29.341797 45.246094 C 29.132464 45.423427 29.01251 45.585979 28.589844 45.695312 C 28.20451 45.793979 27.829484 45.974818 27.521484 46.021484 C 27.214818 46.073484 26.58063 46.407135 26.279297 46.480469 C 25.971297 46.557802 25.397635 46.793922 25.042969 46.669922 C 24.688302 46.539255 24.950745 46.106286 25.080078 45.876953 C 25.205411 45.642286 25.576297 44.891844 25.904297 44.839844 C 26.23763 44.787844 26.428193 44.882812 26.630859 44.882812 C 26.834859 44.882813 27.57562 44.57376 27.876953 44.371094 C 28.184953 44.168427 29.22587 43.939703 29.783203 44.095703 C 30.34587 44.24637 31.06951 44.637495 31.214844 44.798828 C 31.464177 45.080161 31.402859 45.481354 31.630859 45.554688 C 31.860193 45.632021 32.075745 45.590177 32.205078 45.464844 C 32.330411 45.33951 32.761719 45.33987 32.761719 45.033203 C 32.761719 44.730536 32.507953 44.574161 32.251953 44.548828 C 31.997286 44.527495 31.641786 44.47637 31.564453 44.345703 C 31.49112 44.221703 31.288193 43.865568 31.130859 43.740234 C 30.980193 43.610901 30.725745 43.177734 30.955078 43.177734 z M 11.273438 43.46875 C 11.317924 43.460995 11.363943 43.473385 11.412109 43.511719 C 11.840109 43.855719 11.309839 44.339828 12.451172 44.923828 C 12.779172 45.095828 13.480844 45.412786 13.464844 45.939453 C 13.45551 46.47012 13.298828 47.214844 13.298828 47.214844 C 13.194828 47.032177 12.304437 46.518005 12.148438 46.388672 C 11.940438 46.216672 11.513755 45.756135 11.232422 45.605469 C 10.945755 45.453469 10.945797 44.913135 10.841797 44.730469 C 10.755464 44.571802 10.962029 43.523036 11.273438 43.46875 z M 20.273438 46.654297 C 20.420958 46.639547 20.566552 46.653604 20.699219 46.710938 C 21.069885 46.866937 21.534021 47.511828 21.304688 47.923828 C 21.102021 48.303828 20.502896 48.266859 20.101562 48.130859 C 19.580229 47.958859 19.132688 47.549922 19.304688 47.169922 C 19.383687 47.001922 19.830875 46.698547 20.273438 46.654297 z M 15.792969 47.486328 C 15.876549 47.495023 15.966047 47.514995 16.060547 47.548828 C 16.28988 47.631495 17.313661 48.039229 18.236328 48.476562 C 19.162995 48.913896 19.814286 49.048786 20.376953 49.439453 C 20.85162 49.77812 21.376677 50.95926 20.527344 50.808594 C 19.679344 50.652594 17.07937 49.225521 16.720703 48.992188 C 16.360703 48.762854 15.053911 48.00687 14.892578 47.908203 C 14.892578 47.908203 15.207904 47.425461 15.792969 47.486328 z "
         transform="matrix(0.75000002,0,0,0.75000002,0.38119997,0.93619997)" /><g
         id="g880" /></g></g></svg>
