<?xml version="1.0" encoding="UTF-8" standalone="no"?>
<!-- Created with Inkscape (http://www.inkscape.org/) -->

<svg
   version="1.1"
   id="svg824"
   xml:space="preserve"
   width="54.248798"
   height="54.248798"
   viewBox="0 0 54.248798 54.248798"
   sodipodi:docname="uniOfBathLogo.svg"
   inkscape:version="1.1.1 (3bf5ae0d25, 2021-09-20)"
   xmlns:inkscape="http://www.inkscape.org/namespaces/inkscape"
   xmlns:sodipodi="http://sodipodi.sourceforge.net/DTD/sodipodi-0.dtd"
   xmlns="http://www.w3.org/2000/svg"
   xmlns:svg="http://www.w3.org/2000/svg"><defs
     id="defs828" /><sodipodi:namedview
     id="namedview826"
     pagecolor="#ffffff"
     bordercolor="#666666"
     borderopacity="1.0"
     inkscape:pageshadow="2"
     inkscape:pageopacity="0.0"
     inkscape:pagecheckerboard="0"
     showgrid="false"
     fit-margin-top="0"
     fit-margin-left="0"
     fit-margin-right="0"
     fit-margin-bottom="0"
     inkscape:zoom="13.383648"
     inkscape:cx="22.116541"
     inkscape:cy="24.47016"
     inkscape:window-width="1920"
     inkscape:window-height="991"
     inkscape:window-x="-9"
     inkscape:window-y="-9"
     inkscape:window-maximized="1"
     inkscape:current-layer="g832" /><g
     id="g830"
     inkscape:groupmode="layer"
     inkscape:label="uniOfBathLogo"
     transform="matrix(1.3333333,0,0,1.3333333,-0.50826662,-1.2482666)"><g
       id="g832"><g
         id="g834"><path
           d="m 40.508,21.277 c 0,10.926 -8.86,19.786 -19.785,19.786 -10.926,0 -19.782,-8.86 -19.782,-19.786 0,-10.925 8.856,-19.781 19.782,-19.781 10.925,0 19.785,8.856 19.785,19.781 z"
           style="fill:none;stroke:#515661;stroke-width:1.1196;stroke-linecap:butt;stroke-linejoin:miter;stroke-miterlimit:3.8637;stroke-dasharray:none;stroke-opacity:1"
           id="path836" /></g><path
         d="m 24.406,36.316 c 0.297,-0.117 0.789,-0.515 0.848,-0.691 0.062,-0.176 0.238,-0.137 0.277,0 0.039,0.141 0.16,0.496 0.239,0.613 0.078,0.117 0.078,0.2 -0.04,0.258 -0.117,0.059 -0.421,0.016 -0.617,0.137 -0.199,0.117 -0.445,0.16 -0.605,0.258 C 24.352,36.988 24.23,37 24.035,37 23.836,37 23.703,37.09 23.602,37.109 23.504,37.129 23.156,37.09 23,37.09 c -0.16,0 -0.402,0.062 -0.539,0.062 -0.141,0 -0.27,-0.117 -0.129,-0.214 0.137,-0.098 0.273,-0.141 0.434,-0.161 0.156,-0.019 0.375,-0.078 0.492,-0.175 0.117,-0.102 0.18,-0.18 0.18,-0.18 0,0 0.394,-0.02 0.589,-0.039 0.2,-0.024 0.082,0.055 0.379,-0.067 z"
         style="fill:#515661;fill-opacity:1;fill-rule:nonzero;stroke:none"
         id="path838" /><path
         d="m 20.844,28.926 c 0.172,0.101 0.566,0.265 0.586,0.422 0.019,0.16 -0.192,0.64 -0.43,0.64 -0.234,0 -1.332,-0.609 -1.156,-0.91 0.301,-0.512 0.707,-0.316 1,-0.152 z"
         style="fill:#515661;fill-opacity:1;fill-rule:nonzero;stroke:none"
         id="path840" /><path
         d="M 28.625,14.078 C 28.32,14.039 28,13.922 28.238,13.695 c 0.258,-0.246 0.196,-0.465 0.336,-0.636 0.129,-0.153 0.274,-0.317 0.235,-0.469 -0.036,-0.152 -0.344,-0.344 -0.188,-0.496 0.152,-0.153 0.418,-0.574 0.531,-0.918 0.118,-0.344 0.727,-1.754 0.84,-2.059 0.117,-0.304 0.117,-0.609 0.27,-0.801 0.152,-0.191 0.867,-1.257 1.332,-1.339 0.402,-0.071 0.707,0.007 0.707,0.007 0,0 1.031,0.797 1.25,1.02 0.289,0.297 2.34,2.832 2.597,3.246 0.137,0.219 1.727,3.273 1.95,4.051 0.086,0.297 0.398,1.121 0.519,1.566 0.043,0.168 0.395,2.399 0.395,2.399 0,0 -0.77,0.363 -0.903,-0.153 -0.07,-0.285 -0.281,-1.402 -0.355,-1.633 -0.078,-0.23 -0.332,-0.699 -0.391,-0.906 -0.054,-0.211 -0.207,-0.777 -0.281,-1.008 -0.078,-0.23 -0.559,-1.375 -0.676,-1.679 -0.113,-0.305 -0.211,-0.692 -0.261,-0.801 -0.075,-0.184 -0.575,-1.035 -0.043,-1.18 0.511,-0.14 -0.52,-1.246 -0.739,-1.293 -0.492,-0.105 -1.644,-0.578 -2.058,-0.449 -0.153,0.047 -0.293,0.34 -0.18,0.492 0.113,0.153 1.02,0.348 1.242,0.465 0.188,0.098 0.606,0.262 0.567,0.57 -0.02,0.161 -0.196,0.411 0.031,0.563 0.23,0.152 0.574,0.156 0.519,0.652 -0.054,0.492 0.082,0.68 0.305,0.981 0.191,0.261 0.246,0.707 0.359,0.957 0.094,0.203 -0.574,0.07 -0.671,-0.156 -0.114,-0.266 -0.461,-1.051 -0.672,-1.243 -0.18,-0.164 -0.465,-0.019 -0.426,0.172 0.039,0.192 0.434,1.004 0.633,1.262 0.23,0.301 0.855,0.539 1.008,0.844 0.152,0.304 0.457,0.687 0.57,0.879 0.113,0.191 0.562,0.621 0.621,1.421 0.035,0.532 0.285,1.075 0.359,1.266 0.078,0.191 -0.351,0.258 -0.492,0.129 -0.226,-0.215 -0.371,-0.461 -0.39,-0.801 -0.02,-0.414 -0.266,-1.437 -0.641,-1.976 -0.438,-0.629 -0.656,-0.868 -0.844,-1.02 -0.191,-0.152 -0.773,-0.695 -0.965,-0.941 -0.222,-0.285 -0.558,-0.844 -0.675,-1.227 -0.114,-0.379 -0.508,-0.285 -0.567,0.055 -0.058,0.324 -0.058,0.605 0.363,1.101 0.418,0.496 0.563,0.879 0.907,0.954 0.343,0.078 0.535,0 0.8,0.46 0.27,0.457 0.942,1.602 0.981,1.868 0.039,0.269 -0.672,0.203 -0.777,-0.153 -0.09,-0.312 -0.387,-1.078 -0.5,-1.265 -0.114,-0.192 -0.204,-0.43 -0.43,-0.278 -0.231,0.153 0.086,0.598 0.152,0.774 0.09,0.226 -0.34,0.386 -0.531,0.156 -0.191,-0.23 -0.313,-0.699 -0.43,-0.914 -0.105,-0.188 -0.359,-0.441 -0.488,-0.379 -0.254,0.121 -0.09,0.559 -0.016,0.863 0.078,0.305 -0.168,0.442 -0.382,0.282 -0.305,-0.231 -0.25,-0.805 -0.442,-1.071 -0.187,-0.265 -0.492,-0.418 -0.531,-0.687 -0.039,-0.266 0.012,-0.633 0.152,-0.762 0.266,-0.25 0.153,-0.477 0.114,-0.648 -0.036,-0.157 -0.137,-0.297 -0.149,-0.512 -0.019,-0.305 0.188,-0.309 0.266,-0.461 0.074,-0.156 0.054,-0.414 0.008,-0.57 -0.051,-0.172 -0.219,-0.407 0.085,-0.485 0.309,-0.074 0.43,-0.023 0.622,0.051 0.191,0.078 0.656,0.356 0.808,0.356 0.152,0 0.707,0.011 0.613,-0.45 C 34.16,11.605 33.77,11.367 33.617,11.441 33.465,11.52 33.168,11.535 32.996,11.402 32.77,11.23 32.148,10.621 32.109,10.547 32.07,10.469 32.395,9.762 32.699,9.648 33.008,9.535 33.422,9.449 33.309,9.184 33.195,8.918 32.746,8.855 32.633,8.664 32.52,8.473 32.203,8.16 31.973,8.313 c -0.231,0.152 -0.493,0.191 -0.645,0.23 -0.152,0.039 -0.422,0.266 -0.496,0.574 -0.078,0.305 -0.734,1.512 -0.766,1.906 -0.011,0.157 -0.496,0.536 -0.418,0.723 0.079,0.192 0.231,0.117 0.383,0.156 0.153,0.036 0.074,0.344 -0.117,0.571 -0.187,0.23 -0.211,0.504 -0.266,0.609 -0.093,0.184 -0.429,0.121 -0.484,0.301 -0.109,0.359 -0.301,0.551 -0.539,0.695 z"
         style="fill:#515661;fill-opacity:1;fill-rule:nonzero;stroke:none"
         id="path842" /><path
         d="m 31.031,6.219 c 0,0 -1.238,0.648 -1.468,0.929 -0.176,0.219 -0.418,1.344 -0.504,1.469 -0.082,0.129 -0.161,0.332 -0.161,0.543 0,0.211 0.036,0.34 -0.175,0.887 -0.207,0.547 -0.375,0.84 -0.461,1.262 -0.082,0.418 0.168,0.671 -0.043,1.05 -0.207,0.375 -0.418,0.606 -0.461,0.817 -0.043,0.211 -0.246,0.48 -0.332,0.691 -0.082,0.211 -0.672,0.418 -0.547,0.043 0.129,-0.379 0.476,-1.512 0.73,-2.816 0.254,-1.301 0.27,-1.973 0.711,-3.297 0.414,-1.25 2.004,-2.164 2.004,-2.164 z"
         style="fill:#515661;fill-opacity:1;fill-rule:nonzero;stroke:none"
         id="path844" /><path
         d="m 26.828,27.293 c -0.176,0.191 -0.445,0.422 -0.656,0.559 -0.211,0.132 -0.27,0.484 -0.289,0.769 -0.02,0.289 0.441,0.539 0.578,0.5 0.137,-0.035 0.098,-0.308 0.039,-0.558 -0.059,-0.25 0.113,-0.461 0.328,-0.5 0.211,-0.04 0.192,0.234 0.344,0.714 0.156,0.481 0.558,0.711 0.773,0.731 0.211,0.019 0.438,-0.035 0.887,0.074 0.356,0.086 0.672,0.18 0.633,0.41 -0.035,0.231 0.156,0.559 0.289,0.52 0.137,-0.039 0.348,-0.348 0.309,-0.5 -0.036,-0.157 -0.559,-0.696 -1.02,-0.907 -0.461,-0.214 -0.695,-0.234 -0.984,-0.617 -0.289,-0.386 -0.133,-1.043 -0.094,-1.543 0.039,-0.5 -0.156,-0.66 -0.426,-0.621 -0.269,0.039 -0.437,0.149 -0.414,0.438 0.02,0.23 -0.125,0.34 -0.297,0.531 z m -3.012,1.816 c -0.425,-0.093 -0.355,0.11 -0.336,0.239 0.02,0.129 0.282,0.351 0.336,0.425 0.055,0.075 -0.125,0.61 0.336,0.422 0.121,-0.047 0.2,0.114 0.309,0.278 0.113,0.168 0.074,0.371 0.055,0.5 -0.016,0.129 0.242,0.203 0.41,0.39 0.281,0.317 0.832,0.367 1.203,0.367 0.367,0 0.902,-0.015 1.312,-0.238 0.313,-0.172 0.864,-0.316 1.032,-0.39 0.164,-0.075 0.535,0.097 0.672,0.027 0.183,-0.094 0.089,-0.32 0,-0.449 -0.094,-0.133 -0.364,-0.164 -0.493,-0.145 -0.129,0.016 -0.304,-0.023 -0.527,-0.097 -0.223,-0.075 -0.332,-0.184 -0.664,-0.094 -0.336,0.094 -1.129,0.094 -1.5,-0.055 -0.371,-0.144 -0.574,-0.57 -0.684,-0.828 -0.113,-0.27 -0.453,0.027 -0.656,-0.012 -0.16,-0.027 -0.43,-0.258 -0.805,-0.34 z m 2.094,4.403 c 0.012,0.215 0.184,0.523 0.262,0.621 0.078,0.094 0.359,0.465 0.566,0.515 0.137,0.036 0.535,-0.05 0.727,-0.078 0.328,-0.039 0.41,-0.5 0.023,-0.593 -0.261,-0.067 -0.492,-0.133 -0.566,-0.493 -0.082,-0.382 -0.063,-0.531 -0.442,-0.515 -0.214,0.004 -0.593,0.023 -0.57,0.543 z m 1.957,-0.965 c 0.188,-0.078 1.067,-0.094 1.18,-0.059 0.109,0.039 0.328,0.27 0.406,0.453 0.027,0.063 0.317,0.516 0.207,0.723 -0.113,0.207 -0.234,0.363 -0.207,0.621 0.02,0.207 0.258,0.332 0.543,0.207 0.285,-0.125 0.129,-0.308 0.488,-0.488 0.141,-0.066 0.094,-0.82 0.094,-0.914 0,-0.094 -0.148,-0.543 -0.242,-0.656 -0.094,-0.11 -0.316,-0.243 -0.336,-0.356 -0.02,-0.109 -0.113,-0.316 -0.34,-0.336 -0.222,-0.015 -1.125,0.098 -1.472,0.215 -0.352,0.121 -0.508,0.367 -0.563,0.457 -0.055,0.098 -0.02,0.246 0.242,0.133 z m 6.84,-6.137 c -0.059,0.078 -0.191,0.203 -0.117,0.403 0.058,0.156 0.348,0.519 0.504,0.734 0.152,0.211 0.226,1.055 0.09,1.519 -0.079,0.274 0.214,0.364 0.242,0.649 0.031,0.308 -0.285,0.32 -0.285,0.433 0,0.118 0.246,0.571 -0.024,0.879 -0.183,0.207 -0.031,0.848 0.125,0.856 0.254,0.008 0.625,-0.348 0.793,-0.535 0.153,-0.176 0.758,-1.223 0.645,-1.473 -0.153,-0.34 -0.399,-0.316 -0.344,-0.668 0.027,-0.172 0.223,-0.605 0.164,-0.738 -0.059,-0.133 -0.156,-0.153 -0.348,-0.442 -0.191,-0.289 -0.269,-0.636 -0.328,-0.808 -0.058,-0.172 -0.23,-0.422 -0.289,-0.446 -0.055,-0.019 -0.094,-0.054 -0.191,-0.152 -0.098,-0.098 -0.328,-0.363 -0.637,-0.211 z m 2.191,-0.359 c -0.285,-0.196 -0.363,-0.594 -0.437,-0.711 -0.078,-0.113 -0.582,-0.871 -0.758,-0.949 -0.187,-0.082 -0.711,-0.711 -1.269,-1 -0.559,-0.293 -1.043,-0.211 -1.696,-0.157 -0.656,0.059 -1.773,0.793 -1.965,0.829 -0.195,0.039 -0.406,-0.25 -0.636,-0.364 -0.235,-0.117 -0.367,-0.043 -0.617,-0.117 -0.25,-0.078 -0.309,-0.172 -0.598,-0.328 -0.289,-0.156 -0.445,-0.078 -0.676,0.019 -0.23,0.094 0.039,0.29 0.309,0.383 0.269,0.098 0.636,0.117 0.812,0.332 0.172,0.211 -0.097,0.309 -0.293,0.328 -0.191,0.02 -0.383,-0.117 -0.519,-0.211 -0.133,-0.097 -0.34,0.231 -0.262,0.383 0.074,0.153 0.262,0.176 0.418,0.235 0.152,0.054 0.73,-0.09 0.867,-0.012 0.133,0.078 0.063,0.332 0.004,0.449 -0.059,0.117 0.055,0.395 0.207,0.492 0.156,0.094 -1.074,-0.043 -1.117,0.145 -0.098,0.41 0.316,0.422 0.578,0.387 0.332,-0.039 0.188,-0.02 1.156,-0.075 1.348,-0.078 2.176,0.516 2.563,0.75 0.386,0.231 0.758,1.118 0.797,1.754 0.039,0.637 -0.309,0.887 -0.368,1.407 -0.054,0.519 0.297,1.828 0.375,2.078 0.079,0.25 0.485,0.105 0.465,-0.028 -0.019,-0.136 0.032,-0.242 0.164,-0.414 0.137,-0.172 0.2,-0.195 0.086,-0.465 -0.117,-0.269 -0.211,-0.566 -0.211,-1.05 0,-0.481 0.141,-0.453 0.293,-1.34 0.157,-0.891 -0.312,-1.805 -0.523,-2.348 -0.211,-0.539 -1.348,-0.98 -1.563,-1.113 -0.211,-0.137 -0.421,-0.348 -0.5,-0.465 -0.078,-0.113 -0.269,-0.059 -0.441,-0.211 -0.176,-0.156 0.223,-0.316 0.34,-0.383 0.254,-0.136 0.562,-0.422 0.64,-0.367 0.239,0.16 -0.046,0.445 0.082,0.524 0.161,0.097 0.446,-0.223 0.571,-0.129 0.152,0.113 0.492,0.339 0.105,0.437 -0.371,0.098 0.043,0.301 0.215,0.281 0.098,-0.011 0.508,-0.304 0.688,-0.152 0.132,0.113 -0.161,0.418 0.129,0.492 0.121,0.031 0.273,0.086 0.542,0.106 0.27,0.019 0.235,0.269 0.329,0.269 0.097,0 0.48,-0.039 0.789,0.078 0.308,0.114 0.789,0.575 0.945,0.75 0.238,0.27 0.531,-0.058 0.629,-0.195 0.094,-0.133 -0.051,-0.398 -0.149,-0.383 -0.093,0.02 -0.335,0.168 -0.5,0.059 z m -8.515,-7.145 c -0.156,0.192 -0.004,0.657 0.133,0.617 0.222,-0.062 0.441,-0.203 0.5,-0.257 0.054,-0.059 0.281,-0.282 0.687,-0.227 0.406,0.059 1.012,0.406 1.106,0.465 0.097,0.059 0.359,0.238 0.343,0.535 -0.015,0.297 -0.328,0.313 -0.554,0.449 -0.176,0.106 -0.309,0.231 -0.52,0.211 -0.211,-0.019 -0.598,-0.211 -0.808,-0.136 -0.215,0.078 -0.407,0.269 -0.215,0.425 0.195,0.153 0.472,0.078 0.683,0.059 0.215,-0.016 0.145,0.457 -0.129,0.492 -0.308,0.039 -0.39,0.473 -0.179,0.441 0.402,-0.058 0.461,0.219 0.328,0.336 -0.137,0.114 -0.461,0.18 -0.535,0.258 -0.078,0.078 0.144,0.285 0.336,0.285 0.191,0 0.535,-0.214 0.621,-0.261 0.25,-0.137 0.449,-0.082 0.668,0.105 0.183,0.156 0.597,-0.308 1.062,-0.387 0.461,-0.078 0.824,-0.222 0.965,-0.203 0.207,0.024 0.211,0.446 0.328,0.461 0.113,0.02 0.613,0.012 0.902,0.047 0.29,0.039 0.747,0.309 0.981,0.227 0.34,-0.118 0.043,-0.418 0.004,-0.535 -0.039,-0.114 -0.039,-0.25 -0.098,-0.383 -0.058,-0.137 -0.269,-0.289 -0.289,-0.485 -0.019,-0.191 0.176,-0.769 -0.328,-0.922 -0.5,-0.156 -0.738,-0.128 -0.758,-0.246 -0.019,-0.113 0.028,-0.39 -0.09,-0.41 -0.113,-0.019 -1.406,-0.109 -1.566,-0.156 -0.313,-0.098 -0.805,-0.867 -1.324,-1 -0.52,-0.137 -0.903,-0.301 -1.328,-0.059 -0.446,0.254 -0.696,0.274 -0.926,0.254 z m -4.903,1.157 c 0.106,-0.122 -0.203,-0.247 -0.464,0 -0.274,0.257 -0.071,0.75 0.156,0.839 0.226,0.094 0.617,0.223 1.016,0.082 0.292,-0.105 0.515,-0.254 0.515,-0.617 0,-0.156 -0.223,-0.265 -0.414,-0.324 -0.199,-0.063 -0.23,0.074 -0.191,0.152 0.039,0.078 0.226,0.184 0.019,0.418 -0.203,0.227 -0.582,0.137 -0.715,0 -0.179,-0.187 0.024,-0.484 0.078,-0.55 z m -6.667,0.023 c -0.27,0.269 -0.18,0.559 0.035,0.73 0.168,0.137 0.863,0.231 1.203,0.102 0.277,-0.102 0.496,-0.469 0.476,-0.68 -0.015,-0.152 -0.136,-0.289 -0.328,-0.363 -0.191,-0.078 -0.23,0.152 -0.156,0.309 0.078,0.152 0.156,0.5 -0.344,0.539 -0.504,0.039 -0.48,-0.36 -0.406,-0.578 0.117,-0.348 -0.074,-0.387 -0.48,-0.059 z m 4.734,6.305 c -0.266,-0.239 -0.137,-1.059 -0.481,-1.078 -0.16,-0.012 -0.386,0.152 -0.503,0.23 -0.114,0.078 -0.231,-0.039 -0.579,0 -0.343,0.039 -0.152,0.383 -0.054,0.637 0.152,0.406 0.558,0.211 0.672,0.25 0.117,0.039 0.136,0.172 0.289,0.172 0.156,0 0.269,-0.079 0.464,0.156 0.258,0.308 0.579,-0.024 0.192,-0.367 z M 15.07,18.715 c -0.402,0.324 -0.597,0.476 -0.527,0.816 0.074,0.387 0.652,0.5 0.848,0.5 0.191,0 0.441,-0.422 0.558,-0.672 0.102,-0.226 0.258,-0.507 0.121,-0.644 -0.168,-0.176 -0.652,-0.348 -1,0 z m 1.758,2.531 c -0.258,-0.031 -0.332,-0.07 -0.601,-0.187 -0.27,-0.118 -0.34,0.234 -0.223,0.308 0.113,0.078 0.48,0.172 1.031,0.223 0.328,0.035 0.828,0.012 0.985,-0.016 0.152,-0.023 0.429,-0.101 0.449,0.227 0.023,0.387 -0.395,0.234 -0.555,0.234 -0.203,0.004 -0.723,-0.023 -1.031,-0.062 -0.309,-0.039 -1.07,-0.207 -1.348,-0.399 -0.183,-0.125 -0.34,-0.371 -0.609,-0.445 -0.274,-0.078 -0.496,0.418 -0.285,0.516 0.125,0.058 0.379,0.207 0.156,0.429 -0.313,0.313 -0.098,0.781 0.016,0.899 0.117,0.113 0.472,0.625 0.585,0.742 0.118,0.113 0.411,0.051 0.528,0.129 0.062,0.043 0.426,0.297 0.578,0.504 0.117,0.152 0.348,-0.078 0.539,-0.235 0.195,-0.156 0.387,0.157 0.309,0.309 -0.079,0.156 -0.114,0.156 -0.27,0.504 -0.152,0.344 -0.5,0.304 -0.73,0.304 -0.235,0 -0.196,0.235 -0.196,0.235 0,0 0.157,0.23 0.157,0.344 0,0.117 -0.27,0.234 -0.54,0.234 -0.269,0 -0.539,-0.078 -0.734,-0.117 -0.191,-0.039 -0.133,0.234 0.039,0.387 0.156,0.14 0.348,0.519 0.695,0.617 0.133,0.039 0.438,-0.012 0.54,-0.078 0.214,-0.141 0.578,-0.321 0.578,-0.539 0,-0.223 -0.153,-0.418 0.179,-0.618 0.258,-0.156 0.453,0.153 0.61,0.27 0.156,0.117 0.445,-0.02 0.675,-0.211 0.231,-0.191 0.188,-0.731 0.133,-0.984 -0.058,-0.27 -0.308,-0.204 -0.519,-0.387 -0.27,-0.231 0.136,-0.539 0.136,-0.539 0,0 0.711,-0.406 0.672,-0.77 -0.039,-0.386 0.051,-0.808 0.157,-1.019 0.066,-0.141 -0.246,-0.168 -0.036,-0.512 0.18,-0.297 0.653,-0.59 0.688,-0.898 0.039,-0.309 -0.203,-0.442 -0.434,-0.516 -0.23,-0.078 -0.273,0.258 -0.324,0.551 -0.051,0.312 -0.359,0.484 -0.652,0.55 -0.219,0.051 -1.086,0.051 -1.348,0.016 z m 2.516,9.938 c -0.153,0.152 -0.328,0.207 -0.489,0.285 -0.191,0.09 -0.054,0.676 0.208,0.644 0.152,-0.015 0.437,0.157 0.566,0.36 0.125,0.203 0.344,0.461 0.441,0.519 0.215,0.125 0.414,0.309 0.828,0.438 0.454,0.14 1.418,0.14 1.747,0.121 0.328,-0.02 0.074,-0.309 -0.118,-0.328 -0.195,-0.02 -1.25,-0.188 -1.5,-0.305 -0.25,-0.113 -0.449,-0.375 -0.507,-0.508 -0.055,-0.137 -0.336,-0.168 -0.45,-0.359 -0.117,-0.196 -0.218,-0.582 -0.257,-0.797 -0.04,-0.207 -0.344,-0.191 -0.469,-0.07 z m 8.828,3.925 c -0.152,0.133 -0.281,0.121 -0.512,0.235 -0.226,0.117 -0.472,0.336 -0.855,0.394 -0.188,0.028 -0.492,0.078 -0.59,0.02 -0.094,-0.055 -0.137,-0.625 -0.176,-0.832 -0.035,-0.211 -0.324,-0.496 -0.398,-0.574 -0.078,-0.079 -0.059,-0.114 -0.172,-0.305 -0.114,-0.192 -0.305,-0.324 -0.403,-0.285 -0.093,0.039 -0.171,0.093 -0.304,0.113 -0.133,0.016 -0.364,-0.152 -0.477,-0.328 -0.113,-0.172 -0.515,-0.227 -0.687,-0.227 -0.172,0 0.019,0.325 0.132,0.422 0.118,0.094 0.27,0.36 0.325,0.453 0.058,0.098 0.324,0.137 0.515,0.153 0.192,0.019 0.383,0.136 0.383,0.363 0,0.23 -0.324,0.23 -0.418,0.324 -0.097,0.094 -0.258,0.125 -0.43,0.067 -0.171,-0.055 -0.125,-0.356 -0.312,-0.567 -0.109,-0.121 -0.652,-0.414 -1.074,-0.527 -0.418,-0.117 -1.199,0.055 -1.43,0.207 -0.226,0.152 -0.781,0.383 -0.934,0.383 -0.152,0 -0.296,-0.071 -0.546,-0.032 -0.246,0.039 -0.524,0.602 -0.618,0.778 -0.097,0.172 -0.293,0.496 -0.027,0.594 0.266,0.093 0.695,-0.083 0.926,-0.141 0.226,-0.055 0.703,-0.305 0.933,-0.344 0.231,-0.035 0.512,-0.172 0.801,-0.246 0.317,-0.082 0.406,-0.203 0.563,-0.336 0.152,-0.133 0.371,-0.016 0.523,0.063 0.153,0.078 0.34,0.129 0.567,0.168 0.23,0.039 0.211,0.191 0.148,0.253 -0.09,0.09 -0.273,0.161 -0.504,0.2 -0.226,0.035 -0.476,0.211 -0.621,0.254 -0.203,0.054 -0.652,0.265 -0.75,0.312 -0.215,0.094 -0.875,0.461 -0.953,0.516 -0.078,0.058 -0.332,0.051 -0.484,0.125 -0.153,0.078 -0.25,0.293 -0.02,0.465 0.23,0.171 0.648,0.121 1.031,0.082 0.379,-0.039 1.196,-0.161 1.824,-0.106 0.633,0.059 1.375,0.027 1.661,-0.125 0.285,-0.152 0.531,-0.168 0.796,-0.148 0.27,0.019 0.477,0.078 0.59,-0.02 0.114,-0.094 0.453,-0.305 0.758,-0.398 0.305,-0.094 0.785,-0.254 0.977,-0.352 0.191,-0.094 0.32,-0.363 0.465,-0.508 0.156,-0.156 0.359,-0.129 0.593,-0.234 0.16,-0.07 0.2,-0.078 0.18,-0.172 -0.02,-0.098 -0.148,-0.242 -0.207,-0.32 -0.055,-0.078 0,-0.485 0,-0.617 0,-0.137 -0.555,-0.211 -0.516,0.074 0.028,0.215 -0.125,0.594 -0.273,0.726 z m 0.391,-8.304 c -0.227,0.379 -0.059,0.363 0.246,0.601 0.3,0.239 0.207,0.602 0.226,0.867 0.016,0.262 0.36,0.356 0.512,0.469 0.148,0.113 0.273,0.344 0.461,0.438 0.191,0.093 0.39,0.074 0.597,0.297 0.211,0.226 0.129,0.515 0.278,0.793 0.191,0.355 0.492,0.246 0.566,0.511 0.043,0.157 -0.078,0.375 -0.097,0.528 -0.016,0.148 0.136,0.808 0.136,1.296 0,0.493 -0.379,0.926 -0.418,1.211 -0.039,0.282 0.075,0.243 0.207,0.508 0.133,0.266 -0.593,0.324 -0.668,0.418 -0.074,0.094 -0.476,0.52 -0.574,0.574 -0.18,0.106 -0.672,0.711 -0.699,0.969 -0.051,0.516 -2.223,0.594 -2.145,1.809 0.024,0.375 -0.543,0.261 -1.293,0.597 -0.507,0.227 -1.566,-0.261 -1.886,-0.261 -0.321,0 -2.739,0.207 -3.051,0.183 -0.246,-0.023 -0.641,-0.406 -0.777,-0.484 -0.301,-0.164 -0.512,-0.313 -1.004,-0.406 -0.489,-0.094 -0.742,-0.172 -0.778,-0.285 -0.039,-0.11 0.11,-0.305 0.149,-0.454 0.035,-0.152 -0.078,-0.359 -0.172,-0.453 -0.094,-0.097 -0.149,-0.578 -0.149,-0.754 0,-0.273 0.243,-0.722 0.391,-1.027 0.149,-0.309 0.32,-0.332 0.473,-0.465 0.152,-0.133 0.64,-0.254 0.586,-0.461 -0.035,-0.148 -0.207,-0.363 -0.414,-0.496 -0.227,-0.144 -0.618,0.047 -0.957,0.18 -0.336,0.133 -0.856,0.609 -0.93,0.777 -0.074,0.168 -0.215,0.613 -0.352,0.918 -0.136,0.301 0,0.766 0.192,1.313 0.058,0.168 0.105,0.468 0.16,0.695 0.059,0.227 0.285,0.375 0.434,0.527 0.152,0.153 0.148,0.36 0.167,0.492 0.02,0.137 -0.14,0.848 0.028,1.094 0.172,0.242 0.84,0.262 0.765,0.11 -0.062,-0.125 0.102,-1.004 0.516,-1.004 0.848,0 0.867,0.847 1.227,0.976 0.082,0.028 0.687,-0.015 1.789,-0.074 1.519,-0.078 3.195,-0.391 3.258,-0.414 0.113,-0.035 1.527,-0.633 1.605,-0.672 0.074,-0.039 0.98,-0.394 1.68,-0.699 0.699,-0.301 1.73,-0.82 1.636,-0.965 -0.308,-0.484 -0.023,-0.977 0.125,-1.109 0.207,-0.176 1.067,-0.676 1.176,-0.762 0.36,-0.285 0.625,-0.629 0.692,-0.805 0.066,-0.176 0.078,-0.484 0.148,-0.629 0.063,-0.136 0.625,-0.129 0.566,0.133 -0.05,0.242 0.309,0.418 0.493,0.547 0.144,0.102 0.484,-0.391 0.543,-0.465 0.23,-0.312 -0.055,-0.793 -0.68,-0.699 -0.465,0.07 -0.234,-0.496 -0.25,-0.629 -0.02,-0.133 -0.406,-0.184 -0.442,-0.461 -0.015,-0.098 -0.14,-0.375 -0.253,-0.504 -0.114,-0.133 -0.379,-0.25 -0.379,-0.402 0,-0.133 0.195,-0.172 0.234,-0.375 0.035,-0.207 -0.066,-0.508 -0.105,-0.715 -0.039,-0.207 -0.168,-1.043 0.039,-1.137 0.211,-0.093 0.261,0.172 0.336,0.379 0.078,0.207 0.382,0.258 0.421,0.125 0.04,-0.133 0.036,-0.515 -0.043,-0.82 -0.074,-0.301 -0.66,-0.645 -0.828,-0.703 -0.168,-0.055 -0.207,-0.094 -0.379,-0.207 -0.168,-0.11 -1.304,-0.071 -1.726,-0.16 -0.516,-0.11 -0.938,-0.325 -1.145,-0.438 -0.207,-0.109 -0.199,-0.129 -0.464,0.059 z m -12.657,9.164 c -0.398,-0.172 -0.968,0.176 -1.047,0.344 -0.129,0.285 0.207,0.593 0.598,0.722 0.301,0.102 0.75,0.129 0.902,-0.156 0.172,-0.309 -0.175,-0.793 -0.453,-0.91 z m -0.488,-1.192 c 0.148,-0.058 0.488,-0.156 0.742,-0.214 0.117,-0.032 0.317,0 0.395,-0.098 0.074,-0.094 0.324,-0.473 0.398,-0.66 0.074,-0.188 0.227,-0.301 0.453,-0.414 0.227,-0.114 0.254,-0.411 0.34,-0.551 0.102,-0.156 0.516,-0.063 0.488,-0.391 -0.027,-0.328 -0.589,-0.25 -0.851,-0.23 -0.266,0.015 -0.594,0.152 -0.957,0.308 -0.301,0.129 -0.543,0.231 -0.75,0.36 -0.207,0.136 -0.434,0.308 -0.492,0.441 -0.055,0.133 -0.082,0.305 -0.231,0.422 -0.152,0.109 -0.437,0.168 -0.586,0 -0.152,-0.172 -0.144,-0.379 -0.297,-0.457 -0.148,-0.074 -0.324,-0.117 -0.382,-0.223 -0.083,-0.148 -0.083,-0.257 -0.192,-0.304 -0.121,-0.047 -0.262,-0.008 -0.32,-0.188 -0.071,-0.215 -0.035,-0.39 -0.215,-0.566 -0.215,-0.211 -0.262,-0.672 -0.414,-0.75 -0.152,-0.074 -0.438,-0.133 -0.438,-0.285 0,-0.172 0.106,-0.383 0.293,-0.418 0.207,-0.043 0.168,-0.418 0.227,-0.571 0.059,-0.148 0.527,-0.508 0.867,-0.601 0.344,-0.098 0.512,-0.192 0.606,-0.133 0.093,0.055 -0.02,0.359 0.093,0.414 0.114,0.059 0.985,0.266 1.211,0.172 0.227,-0.094 0.699,-0.453 0.981,-0.434 0.285,0.016 0.418,0.133 0.32,0.321 -0.094,0.187 -0.527,0.359 -0.641,0.546 -0.113,0.188 -0.359,0.415 -0.359,0.415 0,0 -0.207,-0.036 -0.434,-0.055 -0.226,-0.02 -0.832,0.039 -1,0.492 -0.171,0.453 -0.093,0.754 -0.058,0.887 0.039,0.133 0.133,0.511 0.172,0.605 0.039,0.094 0.301,0.094 0.414,0.02 0.113,-0.078 0.265,-0.371 0.23,-0.524 -0.039,-0.148 -0.207,-0.773 0.051,-0.902 0.188,-0.094 0.508,-0.012 0.492,0.105 -0.019,0.11 0.028,0.325 0.18,0.286 0.152,-0.039 0.441,-0.133 0.594,-0.133 0.152,0 0.535,0.144 0.672,0.133 0.656,-0.079 0.71,-0.317 0.777,-0.493 0.18,-0.488 0.574,-0.937 1.008,-0.777 0.414,0.152 0.605,-0.129 0.793,-0.207 0.191,-0.074 0.304,-0.016 0.472,0.113 0.172,0.133 0.395,0.774 0.606,1.137 0.207,0.359 0.492,0.66 0.664,0.754 0.168,0.094 0.484,0.121 0.539,0.199 0.059,0.074 0.394,0.332 0.621,0.391 0.227,0.054 0.98,-0.125 1.094,-0.125 0.113,0 0.437,0.187 0.605,0.375 0.172,0.191 0.207,0.203 0.36,0.336 0.152,0.133 0.375,0.23 0.355,0.023 -0.016,-0.211 -0.086,-0.781 -0.312,-0.988 -0.227,-0.207 -0.352,-0.43 -0.524,-0.43 -0.168,0 -0.562,-0.152 -0.652,-0.18 -0.328,-0.101 -0.617,-0.269 -0.738,-0.378 -0.168,-0.145 -0.059,-0.516 -0.047,-0.657 0.015,-0.23 -0.051,-0.605 -0.164,-0.875 -0.258,-0.621 -0.258,-0.855 -0.332,-1.136 -0.09,-0.336 -0.028,-0.809 -0.235,-0.883 -0.211,-0.078 -0.699,-0.18 -1.035,-0.129 -0.379,0.058 -0.535,0.121 -0.723,0.023 -0.191,-0.093 -0.347,-0.297 -0.726,-0.257 -0.379,0.039 -0.438,-0.028 -0.567,-0.106 -0.132,-0.078 -0.328,-0.094 -0.519,0 -0.188,0.094 -0.324,0.297 -0.156,0.336 0.171,0.039 0.379,0.016 0.472,0.133 0.094,0.113 0.153,0.281 0.285,0.418 0.133,0.133 0.321,0.265 0.266,0.34 -0.059,0.074 -0.305,0.207 -0.359,0.168 -0.059,-0.036 -0.371,-0.243 -0.614,-0.375 -0.246,-0.133 -0.488,-0.352 -0.718,-0.274 -0.153,0.051 -0.18,0.43 -0.313,0.524 -0.133,0.093 -0.34,0.175 -0.453,0.05 -0.113,-0.132 -0.215,-0.589 -0.348,-0.648 -0.132,-0.055 -0.476,-0.16 -0.851,0.027 -0.379,0.192 -0.61,0.223 -0.778,0.258 -0.234,0.051 -0.515,0.078 -0.777,0.156 -0.203,0.063 -0.488,0.285 -1.008,0.285 -0.359,0 -1.054,-0.046 -1.109,0.18 -0.059,0.227 -0.191,0.363 -0.113,0.535 0.074,0.172 -0.188,0.512 -0.453,0.285 -0.266,-0.226 -0.153,-0.796 -0.094,-0.984 0.054,-0.187 0.406,-1.551 0.558,-1.723 0.149,-0.171 0.516,-0.882 0.801,-1.058 0.199,-0.125 0.488,-0.11 0.567,0.078 0.074,0.191 0.093,0.738 0.015,0.832 -0.074,0.094 -0.226,0.02 -0.414,0.133 -0.187,0.113 -0.5,0.543 -0.48,0.711 0.019,0.172 -0.047,0.269 0.234,0.25 0.285,-0.02 0.363,-0.098 0.438,-0.043 0.078,0.054 0.324,0.14 0.57,0.027 0.246,-0.113 0.672,-0.117 0.637,-0.777 -0.04,-0.66 -0.079,-0.946 0.035,-1.207 0.113,-0.266 0.304,-0.547 0.019,-0.852 -0.281,-0.301 -0.488,-0.609 -0.863,-0.648 -0.715,-0.071 -0.473,0.304 -0.606,0.398 -0.132,0.094 -0.48,0.196 -0.8,0.137 -0.321,-0.055 -0.672,-0.055 -0.828,0.184 -0.184,0.285 -0.321,0.402 -0.36,0.648 -0.035,0.246 -0.226,0.641 -0.394,0.828 -0.172,0.191 -0.196,0.332 -0.282,0.613 -0.082,0.27 -0.16,0.727 -0.179,0.879 -0.02,0.153 0.343,1.34 0.476,1.703 0.133,0.356 0.321,1.133 0.473,1.266 0.152,0.133 0.301,0.109 0.473,0.035 0.171,-0.074 0.398,-0.109 0.492,0.078 0.094,0.188 0.023,0.852 0.051,1.008 0.031,0.184 0.211,0.465 0.308,0.559 0.094,0.097 0.035,0.207 0.113,0.359 0.075,0.152 0.188,0.207 0.375,0.285 0.188,0.074 0.379,0.114 0.454,0.285 0.074,0.168 0.093,0.321 0.32,0.469 0.226,0.152 0.492,0.34 0.492,0.531 0,0.188 -0.246,0.301 -0.547,0.395 -0.304,0.094 -0.777,0.113 -0.871,0.281 -0.094,0.172 -0.199,0.317 0.043,0.391 0.246,0.078 0.934,0.07 1.387,-0.082 0.453,-0.153 0.957,-0.332 1.047,-0.457 0.082,-0.121 0.293,-0.43 0.445,-0.485 z M 10.48,35.391 C 10.492,34.996 9.965,34.758 9.719,34.629 8.863,34.191 9.262,33.828 8.941,33.57 8.652,33.34 8.438,34.348 8.512,34.484 c 0.078,0.137 0.078,0.543 0.293,0.657 0.211,0.113 0.531,0.457 0.687,0.586 0.117,0.097 0.785,0.484 0.863,0.621 0,0 0.118,-0.559 0.125,-0.957 z m 1.071,1.476 c 0.121,0.074 1.101,0.641 1.371,0.813 0.269,0.175 2.219,1.246 2.855,1.363 0.637,0.113 0.243,-0.773 -0.113,-1.027 -0.422,-0.293 -0.91,-0.395 -1.605,-0.723 -0.692,-0.328 -1.461,-0.633 -1.633,-0.695 -0.567,-0.203 -0.875,0.269 -0.875,0.269 z M 7.117,31.754 c -0.058,0.422 0.778,0.23 1.086,0.23 0.309,0 0.563,0.313 0.926,0.508 0.367,0.196 0.519,0.367 0.695,0.598 0.172,0.234 1.297,0.949 1.504,1.043 0.52,0.23 0.442,-0.059 0.152,-0.406 C 11.133,33.309 10.289,32.051 10.039,31.859 9.875,31.734 9.645,30.902 9.238,30.824 8.832,30.746 9.031,30.93 8.438,30.719 7.844,30.512 7.539,30.527 7.531,30.746 7.523,30.984 7.75,31.145 7.57,31.223 7.348,31.313 7.215,31.406 7.117,31.754 Z M 6.652,31.027 C 7,30.664 7.133,29.973 7.441,29.488 c 0.309,-0.484 0.465,-0.633 0.676,-0.75 0.211,-0.113 0.27,-0.25 0.172,-0.461 -0.07,-0.164 0,-0.214 0.348,-0.406 C 8.984,27.68 9.199,27.613 9.316,27.23 9.391,26.973 9.949,25.996 9.727,25.91 9.508,25.824 9.277,25.66 9.316,25.469 9.352,25.277 9.68,25.27 9.852,25.172 10.023,25.078 9.969,24.961 9.793,24.844 9.621,24.73 9.156,24.711 8.926,24.75 8.695,24.789 8.578,25.078 8.367,25.27 8.156,25.461 7.992,25.324 7.73,25.672 7.5,25.98 7.383,26.809 7.27,27.098 7.152,27.387 7.098,27.309 6.98,27.5 c -0.117,0.195 0.231,0.156 0.329,0.367 0.093,0.211 0.093,0.375 -0.098,0.387 -0.637,0.039 -0.254,0.301 -0.293,0.609 -0.035,0.278 -0.637,1.469 -0.73,1.75 -0.079,0.235 0.195,0.473 0.464,0.414 z m -1.468,-2.23 c 0.183,0.094 -0.02,0.601 0.203,0.808 0.16,0.153 0.437,-0.234 0.492,-0.593 0.066,-0.449 -0.164,-1.172 0.059,-1.5 0.222,-0.328 0.414,-0.532 0.433,-0.879 0.02,-0.348 0.27,-0.613 0.434,-0.828 0.16,-0.211 0.593,-0.563 0.675,-0.778 0.079,-0.211 -0.07,-0.386 -0.351,-0.308 -0.285,0.078 -0.84,0.547 -1.16,0.785 -0.164,0.121 -0.926,1.043 -1.004,1.18 -0.192,0.336 0.219,0.449 -0.024,0.871 -0.086,0.156 -0.054,0.383 -0.136,0.515 -0.223,0.368 0.015,0.668 0.379,0.727 z M 8.758,24.27 c 0.148,-0.094 0.199,-0.145 0.422,-0.11 0.222,0.039 1.34,0.324 2.097,0.211 0.762,-0.109 1.594,-0.496 1.727,-0.734 0.129,-0.242 0.367,-0.477 0.476,-0.61 0.114,-0.129 0.067,-0.547 -0.078,-0.605 -0.148,-0.055 -0.5,-0.227 -0.687,-0.039 -0.184,0.183 -0.36,0.18 -0.563,0.16 -0.203,-0.016 -0.664,0.023 -1.144,0.145 -0.387,0.097 -1.387,0.484 -1.723,0.671 -0.332,0.188 -0.648,0.543 -0.758,0.653 -0.109,0.113 0.082,0.347 0.231,0.258 z M 9.406,6.891 8.254,7.863 c 0,0 0.754,-0.265 0.894,0.043 0.204,0.461 0.551,0.692 0.93,0.508 0.332,-0.156 0.625,-0.059 0.793,0.285 0.195,0.399 0.379,0.582 0.336,0.965 -0.078,0.691 -0.676,2.793 -0.269,4.277 0.203,0.75 0.113,1.079 0.941,2.098 0.437,0.543 1.332,1.254 1.445,1.41 0.117,0.153 0.156,0.422 0.309,0.344 0.156,-0.074 -0.016,-0.73 -0.328,-1.078 -0.305,-0.348 -1.75,-1.309 -1.907,-2.66 -0.156,-1.348 0.04,-2.196 0.192,-2.543 0.156,-0.348 0.187,-1 0.187,-1.192 0,0 0,-0.433 0.262,-0.379 0.199,0.039 0.274,0.762 0.274,1.032 0,0.269 0.05,0.773 0.05,0.773 0,0 0.231,0.539 0.231,0.692 0,0.152 -0.231,0.695 -0.153,0.925 0.075,0.231 0.383,0.426 0.5,0.617 0.114,0.192 -0.078,0.5 0.075,0.692 0.156,0.195 0.617,0.887 0.886,0.965 0.27,0.078 1.102,0.367 1.254,0.215 0.157,-0.153 0.5,-0.598 -0.078,-0.75 C 14.5,14.945 13.594,14.594 13.363,13.785 13.133,12.977 13.199,11.301 12.16,9.18 11.117,7.063 10.438,7.285 10.078,7.148 9.742,7.02 9.406,6.891 9.406,6.891 Z M 22.75,8.449 c -0.715,2.016 -0.801,2.078 -0.758,2.711 0.043,0.629 0.442,0.672 0.696,0.293 0.25,-0.379 0.367,-0.68 0.691,-0.715 0.223,-0.023 0.266,0.313 0.223,0.735 -0.043,0.418 0.281,0.129 0.492,-0.168 0.211,-0.293 0.308,-1.231 0.351,-1.735 0.043,-0.504 0.137,-0.894 0.16,-1.308 0.028,-0.414 0.11,-0.93 -0.101,-0.93 -0.211,0 -0.391,0.078 -0.391,-0.105 0,-0.282 0.719,-0.899 0.957,-1.086 C 25.406,5.883 25.148,5.359 24.734,5.598 24.246,5.883 23.465,6.434 22.75,8.449 Z M 10.66,5.77 c 0,0 0.676,0.738 0.801,0.699 0.125,-0.043 0.293,-0.508 0.457,-0.477 0.316,0.063 0.43,0.629 0.473,0.84 0.043,0.207 0.339,0.418 0.449,0.566 0.191,0.254 0.633,1.915 0.715,2.332 0.086,0.422 0.543,3.625 0.758,3.911 0.378,0.504 0.777,0.496 0.527,-0.297 -0.317,-0.985 -0.418,-3.086 -0.25,-3.801 0.168,-0.715 -0.117,-2.047 -0.285,-2.301 -0.168,-0.25 -0.051,-0.664 0.078,-0.75 0.125,-0.082 0.613,0.235 0.699,0.571 0.082,0.335 0.156,2.277 0.238,2.585 0.086,0.313 0.305,0.45 0.379,0.672 0.098,0.274 0,0.547 0.125,0.797 0.129,0.254 0.637,1.106 0.86,1.348 0.257,0.285 0.543,0.387 0.613,0.164 0.074,-0.238 -0.84,-1.133 -1.051,-2.227 C 16.113,9.707 15.805,9.164 15.805,8.723 15.711,8.484 15.723,8.297 15.676,8.164 15.621,8.008 15.68,6.918 15.555,6.664 15.43,6.414 14.543,5.719 14.359,5.801 13.922,5.988 13.375,5.504 13.16,5.32 13.012,5.195 12.34,4.836 12.34,4.836 c 0,0 1.332,-0.516 1.629,-0.652 0.269,-0.121 0.801,-0.25 0.801,-0.25 0,0 -0.368,0.546 -0.079,1.035 0.215,0.359 0.356,0.918 0.629,0.394 0.395,-0.758 0.196,-1.961 0.731,-2.148 0.242,-0.086 1.301,0.191 1.554,0.402 0.11,0.09 0.543,0.735 0.817,0.778 0.375,0.058 0.851,0.113 1.144,0.148 0.52,0.059 0.907,0.602 1.028,0.945 0.336,0.946 -0.395,2.145 -0.395,2.145 0,0 -0.152,0.355 -0.101,1.008 0.05,0.64 -0.028,1.05 0.265,1.05 0.293,0 0.293,-1.261 0.504,-1.722 C 21.078,7.508 21.133,7.086 21.18,6.703 21.234,6.289 21.172,4.867 21.129,4.66 21.09,4.449 20.785,3.977 20.238,3.891 19.691,3.809 18.809,3.473 19.02,3.137 c 0.21,-0.336 1.597,-0.168 1.808,-0.129 0.207,0.043 0.688,0.16 0.793,0.746 0.106,0.57 0.043,1.93 0.027,2.172 -0.027,0.387 0.379,-0.071 0.493,0.027 0.207,0.18 -0.254,0.992 -0.336,1.707 -0.086,0.711 -0.391,1.36 -0.137,1.403 0.25,0.039 0.672,-1.137 1.09,-2.145 0.422,-1.008 0.351,-0.906 0.351,-1.035 0,-0.125 -0.121,-0.531 0.129,-0.695 0.254,-0.168 1.086,-0.235 1.578,-0.286 0.36,-0.039 0.563,-0.226 0.516,-0.386 -0.047,-0.164 -0.715,-0.25 -0.879,-0.235 -0.258,0.028 -0.789,0.157 -0.918,0.028 -0.09,-0.094 0.09,-1.192 0.09,-1.192 0,0 1.234,0.156 1.734,0.258 0.289,0.059 2.133,0.777 2.637,0.949 0.504,0.168 1.586,0.914 1.586,0.914 0,0 -0.473,-0.109 -0.746,0.129 -0.438,0.383 -0.871,0.383 -1.281,0.383 -0.438,0 -1.227,-0.219 -1.645,0.707 -0.422,0.922 -0.777,2.328 -0.863,3.211 -0.082,0.883 -0.496,1.762 -0.293,1.828 0.266,0.09 0.617,-0.617 0.769,-1.219 0.106,-0.425 0.309,-0.937 0.422,-1.144 0.125,-0.231 0.547,-0.602 0.547,-0.055 0,0.547 -0.324,1.047 -0.574,1.719 -0.254,0.672 -0.285,1.016 -0.555,1.246 -0.441,0.379 -0.586,0.758 -0.254,0.715 0.258,-0.031 0.649,0.019 0.493,0.25 -0.188,0.281 -0.493,0.422 -0.325,0.59 0.168,0.168 0.637,0.093 0.684,-0.2 0.051,-0.293 0.031,-0.851 0.199,-1.019 0.168,-0.168 0.375,0.055 0.293,0.336 -0.129,0.449 0.336,0.242 0.184,0.758 -0.063,0.203 -0.371,0.586 -0.328,0.715 0.043,0.125 0.48,0.398 -0.504,0.503 -0.293,0.032 -1.582,-0.402 -1.938,-0.597 -0.465,-0.258 -0.851,-0.692 -1.215,-0.828 -0.398,-0.145 -1.218,-0.387 -1.343,-0.438 -0.243,-0.105 -0.399,-0.324 -0.399,-0.492 0,-0.168 -0.422,-0.629 -0.715,-1.09 C 19.898,10.781 19.48,10.234 19.605,9.227 19.73,8.219 19.73,6.539 19.355,6.035 18.977,5.531 17.82,4.773 17.59,4.355 17.359,3.934 16.738,3.633 16.359,3.633 c -0.265,0 -0.086,1.68 -0.093,2.152 -0.008,0.438 0.187,0.738 0.328,0.817 0.14,0.074 0.367,0.484 0.347,0.847 -0.027,0.442 -0.433,0.262 -0.339,0.856 0.062,0.398 0.273,0.293 0.441,0.312 0.148,0.02 0.223,0.672 0.125,0.758 -0.113,0.102 -0.25,0.188 -0.207,0.398 0.039,0.211 0.125,0.84 0.375,0.84 0.254,0 0.379,-0.379 0.379,-0.586 0,-0.211 0.082,-2.394 0.168,-2.773 C 17.969,6.875 17.715,6.477 17.504,6.18 17.297,5.887 16.699,5.527 16.785,5.148 c 0.086,-0.375 0.188,-0.777 0.309,-0.722 0.234,0.101 0.203,0.547 0.285,0.672 0.086,0.125 1.422,1.082 1.703,1.461 0.231,0.316 0.238,1.828 0.231,2.082 -0.008,0.293 -0.375,0.5 -0.418,0.269 -0.079,-0.43 0.164,-1.082 -0.254,-1.109 -0.293,-0.024 -0.379,0.418 -0.336,1.094 0.043,0.671 0.187,2.097 0.355,2.226 0.168,0.125 0.379,0.188 0.461,0.438 0.086,0.254 0.215,0.621 0.527,0.695 0.36,0.082 0.672,0.187 0.442,0.316 -0.363,0.196 -0.883,0.418 -1.137,0.438 -0.711,0.062 -1.246,0.574 -1.598,0.828 -0.464,0.336 -0.8,1.035 -1.007,1.527 -0.039,0.086 -0.121,0.606 -0.414,0.879 -0.348,0.324 -0.813,0.543 -1.036,0.645 -0.273,0.125 -0.523,0.472 -0.101,0.386 0.418,-0.082 1.238,-0.523 1.32,-0.039 0.078,0.438 -0.691,0.442 -0.965,0.481 -0.261,0.043 -0.82,0.379 -0.547,0.652 0.196,0.192 0.75,-0.336 1.137,-0.316 0.418,0.023 0.946,0.273 1.324,0.316 0.375,0.043 1.141,0.094 1.45,0 0.273,-0.082 1.386,-0.84 1.953,-0.797 0.422,0.032 0.879,0.383 1.258,0.567 0.484,0.23 1,0.558 2.093,0.535 1.098,-0.02 1.832,-0.453 1.938,-0.18 0.101,0.262 -0.137,0.321 -0.156,0.594 -0.02,0.266 0.046,0.496 -0.079,0.621 -0.16,0.16 -0.57,-0.031 -0.699,-0.156 -0.125,-0.125 -0.281,-0.321 -0.449,-0.321 -0.168,0 -0.734,0.043 -0.695,0.168 0.043,0.125 0.211,0.211 0.59,0.211 0.293,0 0.839,0.692 1.007,0.778 0.168,0.082 0.629,0.418 0.547,0.586 -0.082,0.168 -0.187,0.168 -0.336,0.105 -0.191,-0.082 -0.218,-0.301 -0.429,-0.258 -0.211,0.039 -0.411,0.383 -0.661,0.469 -0.296,0.098 -0.875,0.145 -1.179,0.043 -0.391,-0.133 -0.692,-0.309 -0.903,-0.566 -0.246,-0.309 -0.441,-0.735 -0.734,-1.2 -0.297,-0.461 -0.715,-0.988 -0.965,-0.945 -0.254,0.043 -0.34,0.59 -0.297,1.07 0.047,0.52 0.297,0.844 0.211,1.051 -0.086,0.211 -0.406,0.516 -0.422,0.863 -0.019,0.5 0.321,0.282 0.321,0.489 0,0.211 -0.055,0.543 -0.223,0.5 -0.168,-0.043 -0.5,-0.098 -0.535,0.168 -0.043,0.293 0.129,0.226 0.355,0.269 0.215,0.047 0.207,0.367 0.25,0.492 0.043,0.129 0.078,0.286 0.266,0.368 0.316,0.14 0.367,-0.18 0.699,-0.125 0.317,0.05 0.367,0.129 0.571,0.187 0.269,0.082 0.656,-0.012 0.738,-0.137 0.086,-0.125 0.015,-0.472 -0.11,-0.64 -0.125,-0.164 -0.226,-0.512 -0.019,-0.547 0.254,-0.039 0.398,0.285 0.441,0.41 0.039,0.125 0.207,0.391 0.36,0.57 0.136,0.161 0.293,0.2 0.48,0.387 0.188,0.192 0.231,0.336 0.274,0.484 0.058,0.204 0.523,0.274 0.652,0.442 0.125,0.172 0.125,0.504 0.336,0.797 0.207,0.297 0.441,0.484 0.23,0.738 -0.211,0.25 -0.777,-0.422 -1.175,-0.844 -0.348,-0.363 -0.84,-0.941 -1.137,-0.941 -0.293,0 -0.293,0.312 -0.168,0.902 0.125,0.586 0.191,0.922 0.273,0.965 0.086,0.043 0.231,-0.023 0.313,0.016 0.086,0.043 0.383,0.609 0.762,0.863 0.375,0.25 0.8,0.453 1.179,0.324 0.375,-0.125 0.246,-0.449 0.332,-0.531 0.086,-0.086 0.547,-0.254 0.754,-0.254 0.211,0 0.258,-0.664 0.258,-0.793 0,-0.125 -0.172,-0.324 -0.129,-0.488 0.043,-0.172 0.258,-0.36 0.258,-0.442 0,-0.082 0.031,-0.566 0.156,-0.879 0.145,-0.378 0.383,-1.035 0.301,-1.621 -0.051,-0.336 -0.043,-0.652 0.082,-1.074 0.125,-0.418 0.191,-0.594 0.125,-0.965 -0.07,-0.398 -0.141,-0.597 -0.141,-0.812 0,-0.192 -0.293,-0.465 -0.242,-0.828 0.027,-0.164 0.195,-0.633 0.207,-0.965 0.027,-0.672 -0.031,-0.91 -0.156,-1.188 -0.168,-0.398 -0.449,-0.793 -0.594,-0.843 -0.398,-0.149 -0.293,-0.364 -0.461,-0.489 -0.105,-0.078 -0.273,-0.336 -0.062,-0.379 0.211,-0.043 0.359,0.043 0.652,-0.062 0.316,-0.113 0.297,-0.461 0.465,-0.461 0.164,0 0.703,0.121 0.648,0.25 -0.062,0.164 -0.187,0.562 0.442,0.207 0.183,-0.102 0.293,-0.227 0.504,-0.102 0.211,0.125 0.019,0.336 -0.106,0.461 -0.125,0.129 -0.566,0.254 -0.566,0.34 0,0.082 -0.086,0.293 0.168,0.293 0.254,0 0.566,-0.187 0.652,-0.273 0.082,-0.086 0.141,-0.274 0.313,-0.274 0.211,0 0.128,0.168 0.503,0.125 0.379,-0.043 0.528,-0.211 0.696,-0.882 0.168,-0.672 0.355,-1.981 0.437,-2.739 0.082,-0.754 0.129,-1.312 0.157,-1.465 0.035,-0.207 0.14,-0.418 0.226,-0.5 0.082,-0.086 0.336,-0.671 0.504,-0.8 0.168,-0.125 0.547,-0.082 0.375,0.296 -0.168,0.379 -0.418,0.559 -0.445,0.84 -0.024,0.254 0.152,0.629 0.109,0.84 -0.043,0.211 -0.461,0.254 -0.418,0.59 0.039,0.336 0.145,1.195 0.145,1.406 0,0.211 -0.391,0.293 -0.309,0.59 0.086,0.293 0.164,0.481 0.035,0.734 -0.125,0.25 -0.336,0.68 -0.379,0.848 -0.043,0.168 -0.101,0.985 -0.258,1.055 -0.277,0.117 -0.671,0 -0.875,0.156 -0.164,0.129 -0.25,0.418 -0.46,0.418 -0.211,0 -0.379,0.125 -0.547,0.254 -0.168,0.125 -0.293,0.523 -0.043,0.398 0.254,-0.125 0.82,-0.527 1.031,-0.527 0.211,0 0.484,0 0.609,-0.039 0.125,-0.043 0.547,-0.211 0.754,-0.379 0.211,-0.168 0.305,-0.527 0.305,-0.609 0,-0.086 0.434,-0.051 0.434,0.121 0,0.168 0.125,0.719 0.042,0.887 -0.085,0.167 -0.39,0.421 -0.39,0.421 0,0 -0.598,0.231 -0.559,0.442 0.043,0.207 0.528,0.105 0.778,0.019 0.254,-0.082 0.652,-0.398 0.738,-0.316 0.082,0.086 -0.274,0.547 -0.149,0.969 0.125,0.418 0.926,0.504 1.219,0.375 0.293,-0.125 0.332,-0.285 0.457,-0.325 0.125,-0.043 0.567,-0.085 0.774,0 0.211,0.082 0.535,0.18 0.535,0.305 0,0.125 -0.422,0.231 -0.336,0.442 0.082,0.21 0.23,0.21 0.48,0.168 0.254,-0.043 0.547,0.042 0.883,0.125 0.336,0.085 1.387,0.382 1.817,0.535 0.242,0.09 0.5,0.449 0.5,1.035 0,0.59 -0.02,1.234 -0.188,1.242 -0.312,0.016 -0.34,-0.754 -0.551,-1.172 -0.226,-0.453 -0.758,-0.777 -0.84,-0.695 -0.085,0.086 -0.23,0.234 0.063,0.57 0.293,0.336 0.441,0.504 0.441,0.754 0,0.254 0.032,0.449 0.075,0.559 0.05,0.136 0.304,0.375 0.261,0.554 -0.062,0.254 -0.644,0.196 -0.812,0.047 -0.129,-0.113 -0.094,-1.246 -0.219,-1.457 -0.125,-0.207 -0.523,-1.008 -0.863,-1.176 -0.332,-0.168 -0.692,0 -0.567,0.379 0.129,0.379 0.211,0.883 0.422,1.008 0.211,0.125 0.418,0.418 0.418,0.418 l -0.039,0.254 c 0,0 0,0.59 0.082,0.762 0.086,0.168 0.336,0.293 0.379,0.418 0.043,0.125 0.25,0.757 0.461,1.05 0.211,0.293 0.129,0.415 0.426,0.415 0.293,0 0.383,-0.235 0.465,-0.528 0.086,-0.293 0.98,-0.23 0.98,-0.23 0,0 -0.535,2.449 -0.793,3.082 -0.094,0.238 -1.465,2.972 -1.961,3.773 -0.512,0.828 -2.484,3.235 -2.914,3.543 -0.316,0.227 -1.64,1.363 -1.68,1.449 -0.043,0.082 -3.386,1.969 -3.593,2.094 -0.211,0.129 -3.059,1.09 -3.692,1.172 -0.629,0.082 -3.558,0.297 -3.855,0.27 -0.469,-0.047 -2.582,-0.27 -3.235,-0.411 C 16.484,39.391 12.027,37.75 11.719,37.566 11.293,37.309 7.598,34.332 7.43,34.207 7.262,34.078 4.496,30.223 4.352,29.887 4.227,29.594 3.203,27.313 3.164,27.02 3.121,26.723 2.273,23.148 2.23,22.855 2.188,22.563 2.238,20.023 2.285,19.52 2.336,18.945 2.715,16.941 2.801,16.52 2.883,16.102 3.598,14.129 4.145,12.953 4.691,11.777 5.469,10.832 6.352,9.781 7.234,8.73 9.758,6.543 9.969,6.25 10.18,5.957 10.66,5.77 10.66,5.77 Z M 3.445,25.598 c -0.007,0.183 0.571,0.398 0.414,0.648 -0.32,0.524 0.481,0.731 0.325,1.043 C 4.027,27.598 3.926,27.961 3.746,27.855 3.512,27.727 2.852,25.547 2.75,25.031 2.695,24.766 2.516,23.168 2.543,22.809 2.566,22.445 2.969,22.32 3.008,22.289 3.137,22.188 4.227,21.742 4.379,21.672 4.629,21.555 5.359,20.895 5.438,20.738 5.516,20.586 5.547,20.188 5.566,19.859 5.582,19.586 5.637,19.293 5.465,19.238 5.262,19.18 5.035,19.305 4.996,19.496 4.961,19.691 4.84,20.129 4.66,20.094 4.336,20.023 4.172,20.641 4.172,20.816 c 0,0.379 -0.715,0.442 -0.699,0.129 0.011,-0.183 0.336,-1.242 0.343,-1.629 0.008,-0.289 -0.3,-0.55 -0.152,-0.843 0.117,-0.235 0.172,-1.121 0.211,-1.266 0.156,-0.285 0.852,-0.492 0.516,0.414 -0.098,0.266 -0.235,0.613 0.062,0.731 0.176,0.07 0.285,0.062 0.559,-0.524 0.179,-0.39 0.851,-0.207 0.543,0.438 -0.266,0.554 0.351,0.476 0.488,0.535 0.133,0.058 0.156,0.32 0.137,0.5 -0.032,0.246 0.254,0.301 0.465,0.258 0.21,-0.047 1.101,-0.516 1.632,-0.418 0.618,0.117 0.875,0.211 1.071,0.289 0.191,0.078 0.5,0.078 0.422,-0.196 -0.079,-0.269 0.214,-0.757 0.253,-0.953 0.036,-0.191 0.411,-0.394 0.344,-0.601 C 10.297,17.473 9.637,17.211 9.48,17.195 9.305,17.172 9.152,17.773 9.113,18.117 9.074,18.465 8.539,18.469 8.426,18.164 8.27,17.75 8.035,17.723 7.934,17.18 7.863,16.809 7.52,16.793 7.262,16.586 6.801,16.219 7.176,15.941 7.156,15.785 7.102,15.332 6.637,15.277 6.48,15.461 6.316,15.648 6.051,15.434 5.875,15.414 5.621,15.383 4.977,15.488 4.703,15.523 4.313,15.578 4.266,15.766 4.207,15.922 4.078,16.285 3.336,15.785 3.336,15.785 c 0,0 0.965,-2.043 1.16,-2.613 C 4.664,12.684 5.484,11.457 5.527,11.336 5.656,11 6.121,11.52 5.684,12.137 5.406,12.531 4.625,13.84 4.391,14.543 4.25,14.969 4.953,14.914 5.09,14.645 5.176,14.469 5.84,13.145 6.148,12.602 6.457,12.063 7.176,10.816 7.313,10.508 7.445,10.207 7.754,9.914 7.906,9.605 8.063,9.297 8.566,9.27 8.371,9.914 8.176,10.57 7.234,12.07 7.004,12.398 c -0.223,0.309 -0.918,1.54 -0.957,1.731 -0.039,0.191 -0.09,0.476 0.023,0.516 0.118,0.039 0.649,-0.157 0.801,-0.387 0.156,-0.231 0.719,-1.723 0.914,-1.992 0.192,-0.27 0.613,-1.153 0.844,-1.422 0.234,-0.27 0.766,0.101 0.519,0.519 -0.57,0.953 -1.16,2.137 -1.398,2.453 -0.277,0.372 0.027,0.907 0.469,0.465 0.383,-0.383 0.554,-0.84 0.746,-1.187 0.195,-0.348 0.48,-0.817 0.598,-1.008 0.113,-0.191 0.585,-0.023 0.511,0.281 -0.078,0.309 -0.465,0.985 -0.695,1.219 -0.231,0.23 -0.363,0.516 -0.481,0.746 -0.113,0.234 0,0.434 0.243,0.586 0.308,0.199 0.457,0.184 0.691,0.414 0.231,0.231 0.457,0.504 0.688,0.621 0.23,0.117 0.558,0.199 0.714,0.504 0.153,0.309 0.383,0.867 0.789,1.023 0.329,0.125 0.426,0.25 0.637,0.52 0.301,0.387 0.422,0.48 0.695,0.461 0.325,-0.02 0.305,0.387 0.364,0.695 0.035,0.192 -0.289,0.77 -0.289,1.078 0,0.309 0.066,1.176 -0.192,1.313 -0.183,0.094 -0.59,-0.133 -0.754,0.008 -0.152,0.14 -0.535,0.066 -0.636,-0.086 C 11.711,21.262 11.434,21.246 11.313,21.348 11.105,21.527 10.84,21.48 10.691,21.332 10.59,21.23 10.313,21.313 10.145,21.387 9.656,21.602 9.73,21.16 9.73,21.16 c 0,0 0.137,-0.383 0.309,-0.383 0.141,0 0.348,0.114 0.461,0.078 0.109,-0.039 0.254,-0.363 0.418,-0.488 0.164,-0.129 0.375,-0.176 0.273,-0.429 -0.058,-0.157 0.094,-0.29 0.207,-0.329 0.223,-0.074 0.5,-0.05 0.606,-0.171 0.078,-0.094 0.062,-0.528 -0.207,-0.758 -0.27,-0.235 -0.992,-0.032 -1.07,0.515 -0.094,0.696 -0.739,0.973 -1.149,1.082 -0.519,0.133 -0.695,0 -1.117,-0.234 -0.426,-0.23 -1.32,-0.238 -1.676,-0.105 -0.312,0.117 -0.504,0.601 -0.226,0.601 0.273,0 0.933,0.121 1.23,0.121 0.426,0 0.777,0.156 0.938,0.488 0.183,0.383 0.171,0.383 -0.368,0.309 -1.113,-0.152 -2.203,0.063 -2.82,0.238 -0.223,0.063 -0.992,0.743 -1.109,0.801 -0.082,0.043 -0.645,0.352 -1.035,0.645 -0.391,0.297 -0.329,0.636 -0.258,1.007 0.019,0.098 0.129,0.727 0.156,0.829 0,0 0.344,-0.379 0.437,-0.493 0.098,-0.109 0.805,-0.515 1.165,-0.953 0.328,-0.398 1.285,-0.949 1.582,-1.09 0.839,-0.394 1.796,-0.355 2.023,-0.269 0.227,0.082 0.684,0.414 0.398,0.703 C 8.609,23.164 8.117,23.539 7.914,23.664 7.707,23.789 7.5,23.637 7.355,23.781 7.211,23.926 6.824,24.262 6.652,24.254 6.109,24.23 5.43,24.395 5.23,24.438 4.867,24.512 4.195,24.754 3.938,24.934 3.68,25.117 3.453,25.418 3.445,25.598 Z"
         style="fill:#515661;fill-opacity:1;fill-rule:nonzero;stroke:none"
         id="path846" /><g
         id="g880" /><path
         d="M 3.438,25.828 C 3.426,26.012 4.004,26.227 3.852,26.477 3.527,27 4.328,27.211 4.172,27.52 4.02,27.832 3.918,28.191 3.734,28.09 3.5,27.961 2.84,25.777 2.738,25.262 2.688,24.996 2.504,23.402 2.531,23.039 2.559,22.676 2.957,22.551 2.996,22.523 3.125,22.418 4.215,21.973 4.367,21.902 4.617,21.785 5.348,21.125 5.426,20.969 5.504,20.816 5.535,20.418 5.555,20.09 5.574,19.816 5.625,19.523 5.453,19.469 5.25,19.41 5.027,19.535 4.988,19.73 4.949,19.922 4.828,20.359 4.652,20.324 4.324,20.254 4.16,20.871 4.16,21.047 4.16,21.43 3.445,21.488 3.461,21.176 3.473,20.992 3.797,19.938 3.805,19.547 3.813,19.262 3.504,19 3.652,18.703 3.77,18.469 3.828,17.586 3.863,17.438 4.02,17.152 4.715,16.945 4.379,17.852 4.281,18.121 4.145,18.465 4.445,18.586 4.617,18.656 4.727,18.648 5,18.059 5.184,17.672 5.855,17.855 5.543,18.5 c -0.266,0.555 0.352,0.477 0.488,0.531 0.133,0.059 0.157,0.324 0.137,0.5 -0.031,0.25 0.254,0.305 0.465,0.258 0.211,-0.043 1.101,-0.516 1.633,-0.414 0.617,0.117 0.875,0.211 1.07,0.285 0.191,0.078 0.5,0.078 0.422,-0.191 -0.074,-0.27 0.215,-0.762 0.254,-0.953 0.039,-0.192 0.414,-0.395 0.343,-0.602 C 10.285,17.707 9.625,17.445 9.469,17.426 9.293,17.406 9.141,18.004 9.102,18.352 9.066,18.699 8.527,18.703 8.414,18.395 8.258,17.98 8.023,17.957 7.922,17.414 7.852,17.039 7.508,17.023 7.25,16.82 6.789,16.449 7.164,16.172 7.145,16.02 7.09,15.566 6.625,15.508 6.469,15.691 6.305,15.883 6.039,15.664 5.863,15.645 5.609,15.617 4.965,15.723 4.691,15.758 4.301,15.809 4.254,16 4.195,16.152 4.066,16.516 3.324,16.02 3.324,16.02 c 0,0 0.965,-2.047 1.16,-2.618 0.168,-0.488 0.989,-1.714 1.036,-1.836 0.128,-0.336 0.593,0.184 0.152,0.805 -0.277,0.391 -1.059,1.703 -1.293,2.402 -0.141,0.426 0.562,0.375 0.699,0.106 0.086,-0.176 0.75,-1.504 1.059,-2.043 0.308,-0.539 1.031,-1.785 1.164,-2.094 0.133,-0.304 0.441,-0.597 0.594,-0.906 0.156,-0.309 0.66,-0.336 0.464,0.309 -0.195,0.656 -1.136,2.156 -1.367,2.484 -0.222,0.312 -0.918,1.539 -0.957,1.73 -0.039,0.196 -0.09,0.481 0.024,0.52 0.117,0.035 0.648,-0.156 0.804,-0.391 0.153,-0.23 0.719,-1.718 0.91,-1.988 0.192,-0.27 0.614,-1.152 0.844,-1.422 0.235,-0.269 0.766,0.102 0.52,0.516 -0.571,0.957 -1.16,2.14 -1.399,2.457 -0.277,0.367 0.028,0.902 0.469,0.465 0.383,-0.387 0.555,-0.844 0.746,-1.192 0.195,-0.347 0.481,-0.816 0.598,-1.008 0.113,-0.191 0.586,-0.023 0.512,0.286 -0.079,0.308 -0.461,0.984 -0.696,1.214 -0.23,0.231 -0.363,0.516 -0.476,0.747 -0.118,0.234 0,0.433 0.238,0.585 0.309,0.2 0.461,0.184 0.691,0.415 0.231,0.234 0.457,0.507 0.688,0.621 0.23,0.117 0.558,0.199 0.715,0.507 0.152,0.305 0.386,0.868 0.789,1.02 0.328,0.125 0.426,0.25 0.636,0.519 0.301,0.387 0.426,0.481 0.696,0.461 0.328,-0.015 0.308,0.387 0.363,0.696 0.039,0.191 -0.289,0.769 -0.289,1.078 0,0.312 0.07,1.176 -0.191,1.312 -0.184,0.098 -0.59,-0.132 -0.754,0.012 -0.153,0.137 -0.535,0.066 -0.637,-0.09 -0.137,-0.203 -0.414,-0.222 -0.535,-0.121 -0.207,0.18 -0.473,0.133 -0.621,-0.015 -0.102,-0.102 -0.375,-0.016 -0.547,0.054 -0.488,0.215 -0.414,-0.226 -0.414,-0.226 0,0 0.136,-0.383 0.308,-0.383 0.141,0 0.348,0.113 0.465,0.078 0.11,-0.039 0.254,-0.363 0.414,-0.488 0.164,-0.129 0.375,-0.172 0.278,-0.43 -0.063,-0.152 0.089,-0.289 0.207,-0.328 0.218,-0.074 0.5,-0.051 0.601,-0.172 0.078,-0.094 0.063,-0.527 -0.207,-0.758 -0.269,-0.23 -0.992,-0.031 -1.07,0.516 -0.094,0.695 -0.738,0.976 -1.149,1.082 -0.519,0.133 -0.695,0 -1.117,-0.231 C 8.023,20.043 7.129,20.035 6.773,20.168 6.461,20.285 6.27,20.77 6.547,20.77 c 0.273,0 0.937,0.121 1.23,0.121 0.426,0 0.778,0.156 0.938,0.492 0.183,0.379 0.172,0.379 -0.367,0.305 -1.114,-0.153 -2.203,0.062 -2.817,0.238 -0.222,0.062 -0.996,0.742 -1.113,0.801 -0.082,0.043 -0.641,0.347 -1.035,0.644 -0.391,0.297 -0.328,0.633 -0.258,1.008 0.02,0.098 0.129,0.726 0.156,0.828 0,0 0.344,-0.379 0.442,-0.488 0.093,-0.11 0.8,-0.52 1.16,-0.957 0.328,-0.399 1.285,-0.949 1.582,-1.086 0.84,-0.395 1.797,-0.356 2.023,-0.274 0.227,0.082 0.684,0.414 0.399,0.703 -0.289,0.293 -0.782,0.668 -0.985,0.793 -0.207,0.122 -0.414,-0.031 -0.558,0.114 -0.145,0.144 -0.531,0.484 -0.703,0.476 -0.543,-0.027 -1.223,0.137 -1.422,0.18 -0.364,0.078 -1.035,0.316 -1.293,0.5 -0.258,0.18 -0.485,0.484 -0.488,0.66 z"
         style="fill:#ffffff;fill-opacity:1;fill-rule:nonzero;stroke:none"
         id="path884" /></g></g></svg>
