<svg xmlns="http://www.w3.org/2000/svg" viewBox="0 0 573.29 142.05" xmlns:v="https://vecta.io/nano"><path d="M467.81 37.18v66.19h-13.52V99a20.52 20.52 0 0 1-13.71 5.45c-14.27 0-22-12.08-22.06-24.74 0-12.38 7.84-24.3 21.81-24.32 5.06 0 10.58 1.72 14 5.53V31.89h6c7.57-.01 7.48 5.29 7.48 5.29zM455.32 79.9c0-6.29-4.47-13.42-11.61-13.41s-11.86 7.14-11.85 13.43 4.74 13.5 11.88 13.49 11.59-7.23 11.58-13.51zm-94.86 23.47H347v-4.24s-5.68 5.45-13.61 5.45c-14.17 0-21.89-12.08-21.9-24.75 0-12.37 7.78-24.29 21.66-24.3 5 0 10.5 1.71 13.85 5.52v-4.57h13.45zM348 80c0-6.28-4.44-13.41-11.53-13.4s-11.73 7.13-11.73 13.4 4.71 13.5 11.8 13.5S348.05 86.27 348 80zm171.57 15.55a24.82 24.82 0 0 1-19.65 9.14c-14.66 0-26-9.49-26-24.63s10.59-24.57 25.25-24.57c12.64 0 22.66 9.82 22.66 24.53v4.22h-34a11.51 11.51 0 0 0 11.42 9.91c4.78 0 8-2.49 10.47-5.81zM507.88 75a9.48 9.48 0 0 0-9.36-9.72A10.44 10.44 0 0 0 487.8 75zm20.24-18.52h13.37v6.29A17.41 17.41 0 0 1 556 55.11c13.3 0 17.29 9.79 17.3 22.53v25.73h-7.85c-5.54 0-5.38-6.09-5.38-6.09v-17c0-5.49-.91-12.91-8.78-12.91-7.64 0-9.79 5.32-9.79 12.53v23.52h-13.38zm-292.28 46.99V49.06a6.13 6.13 0 0 1 2-4.69 7.83 7.83 0 0 1 5-2.13h13.92l13.83 48.37 13.75-48.37h21v61.22h-13.21V54.57L278 103.46h-14.45l-14.38-48.89v48.88zM397 111.81c-3.92 10.1-6.16 15.42-20.18 15.43a28.25 28.25 0 0 1-9.87-1.75l1.95-11.32a20.78 20.78 0 0 0 6.86 1.46c6.66 0 7.74-2.85 9.79-8l1.08-3.12-20.93-48h14.85l13.14 32.89 11-32.89h14z" fill="gray"/><path d="M182.21,94.74c-22.88,0-32.54-25-52.4-25-15.37,0-20.41,15.2-35.81,15.2a21,21,0,1,1,0-42c15.25,0,20.56,15.18,35.78,15.18,19.88,0,29.56-24.93,52.43-24.93a30.78,30.78,0,0,1,0,61.55Z" fill="#0b7384"/><path d="M34.67,67.23c25.84,0,39.27,29,59.15,29C109.2,96.23,114.25,81,129.67,81a21,21,0,1,1,0,42c-15.26,0-20.59-15.2-35.82-15.2-19.9,0-33.35,28.9-59.18,28.9a34.77,34.77,0,0,1,0-69.53Z" fill="#53a00a"/><path d="M153.06 28.44A23.07 23.07 0 1 1 136 .64a23.07 23.07 0 0 1 17.06 27.8z" fill="#d64405"/><path d="M194.48 121.64a20.42 20.42 0 1 1-20.41-20.42 20.41 20.41 0 0 1 20.41 20.42z" fill="#0e415a"/></svg>