<svg xmlns="http://www.w3.org/2000/svg" viewBox="0 0 121951 31987" xmlns:xlink="http://www.w3.org/1999/xlink">
<path style="fill:#FFF" d="M15994 0l89964 0c69,0 137,0 206,1l1 0c4334,55 8253,1834 11102,4683 2849,2849 4628,6768 4683,11102l0 1c1,68 1,137 1,206 0,69 0,137 -1,206l0 1c-55,4334 -1834,8253 -4683,11102 -2849,2849 -6768,4628 -11102,4683l-1 0c-68,1 -137,1 -206,1l-89964 0c-4399,0 -8398,-1799 -11296,-4697 -2898,-2898 -4697,-6897 -4697,-11296 0,-4399 1799,-8398 4697,-11296 2898,-2898 6897,-4697 11296,-4697zm88775 28828c-96,143 -181,258 -233,444 -228,-24 -455,-54 -679,-90 94,-407 115,-693 -202,-1010 -248,-249 -471,-1185 -471,-1544 0,-578 415,-1203 917,-1465 395,-206 942,-334 1095,242 -187,280 -543,280 -731,551 -255,367 -454,912 -271,1370 189,473 145,259 26,768 335,178 660,156 1017,325 282,133 520,386 791,490 226,86 1977,-81 2459,-81 481,0 467,126 665,134 -1024,251 -2093,386 -3195,386 -119,0 -237,-2 -355,-5 -241,-445 -405,-515 -835,-515zm1778 -26175c513,22 1018,73 1514,152l0 537c752,0 831,-148 1341,122 -102,384 -571,320 -1028,376 -877,106 -619,398 -619,663 0,191 -574,1518 -714,1851 -116,276 -162,383 -384,532 -184,-385 366,-1739 366,-2322l-364 70c-6,-1045 79,-1135 -114,-1982zm5453 1429c271,138 536,285 796,440 -1000,870 -1137,942 -1478,2635 -199,986 -260,1632 -534,2582 -56,194 -223,668 -223,816 0,146 238,203 524,-330 155,-288 187,-444 366,-733 376,-606 -169,-292 391,-1686 44,-110 110,-261 145,-404 45,-186 27,-296 61,-489 64,-371 385,-1356 630,-1569 152,-132 484,-363 688,-411l0 -50c243,162 480,332 711,509 -437,-61 -1048,992 -1100,1167 -145,486 -715,2009 -952,2346 -326,464 -134,380 -66,551 59,147 105,-26 -8,224l-313 548c-113,196 -92,-36 -100,327 165,14 166,29 305,61 501,-336 141,-324 631,-652 217,-145 467,-785 467,-815 0,-203 -109,-179 -305,-183 8,-375 75,-292 225,-507l669 -1652c156,-332 351,-292 671,-433 459,-202 387,15 742,279 225,168 265,101 437,357 -289,433 -711,101 -915,978 125,188 294,352 476,500 71,58 211,154 306,184 238,74 492,-129 680,112l62 304c-699,371 -630,-183 -1463,-183 -362,0 -61,360 -61,611 0,229 -244,337 -244,428 0,334 122,339 122,672 0,306 -144,251 -216,585 -57,269 58,438 200,591 221,239 217,133 309,484 236,899 499,443 499,417 0,-478 -219,-379 0,-794 726,385 348,948 914,1100 215,-144 207,-100 109,-346 -230,-581 -81,-407 13,-448 27,-12 80,-164 287,261 410,839 264,1240 932,1084 -78,-338 -736,-1624 -1008,-1740 -360,-153 -354,92 -813,-530 -243,-329 -751,-842 -353,-1254 8,-9 24,-21 32,-29l68 -54c386,259 269,638 746,1147 690,737 1336,1110 1655,2192 86,293 112,501 165,812 100,585 700,741 612,374 -84,-351 -100,-88 -276,-1078 -75,-423 -862,-1569 -995,-1692 -312,-286 -555,-245 -893,-939 -61,-126 -78,-160 -131,-301 -89,-237 -78,-104 -30,-332 816,0 370,1085 1280,1161 -46,-551 -395,-942 -447,-1080 -264,-697 319,-548 -529,-998 30,-358 415,-704 -1280,-1100 0,-847 712,-241 1402,-183l-23 -34c289,377 558,770 806,1178 -17,-16 -34,-31 -51,-43 -42,75 -61,65 -61,183 0,288 333,1128 452,1441 178,467 385,849 511,1321 233,874 326,838 462,1309 68,237 112,540 154,763 64,339 22,515 372,544 0,-94 -5,-198 -15,-309 72,561 109,1134 109,1715 0,857 -82,1694 -236,2506 -332,8 -256,36 -371,281 -94,200 43,104 -166,203 -364,173 -586,-475 -684,-768 -181,-540 -490,-503 -455,-1176 12,-240 54,-41 -4,-215 -82,-243 -615,-424 -615,-1199 0,-383 717,-138 1090,741 85,201 77,615 106,810 36,239 -28,201 111,317 148,123 334,77 522,27 0,-424 -8,-187 -137,-474 -81,-180 -71,-293 -112,-499 -68,-345 -422,-553 -422,-739 0,-524 612,132 694,282 125,231 95,561 262,776 115,148 -88,71 202,103 130,-271 110,-986 35,-1256 -123,-441 -454,-455 -881,-586 -269,-83 -872,-276 -1169,-295 -282,-18 -505,75 -616,-121 -110,-195 117,-184 253,-370 -911,-612 -1091,61 -1524,61 -1046,0 -659,-441 -610,-1039 -468,109 -392,306 -1097,306 26,-319 110,-245 339,-393 120,-77 331,-246 331,-401 0,-365 116,-635 -305,-733 -204,426 -336,737 -917,792 -720,68 -719,314 -1216,431 15,-661 496,-179 853,-856 1113,0 609,-451 974,-1163 354,-692 -16,-785 229,-1111 188,-250 171,-143 106,-562 -206,-1323 215,-836 215,-1137 0,-452 -153,-561 61,-916 56,-93 483,-680 30,-594 -254,48 -360,436 -483,629 -269,421 -340,2184 -445,2732 -96,495 -161,1450 -687,1450 -447,0 -281,-217 -625,105 -184,171 -259,201 -594,201 7,-300 38,-270 242,-369 132,-64 307,-102 307,-303 0,-399 -503,8 -732,61 -178,-371 161,-185 -122,-371 -65,-43 -106,-55 -224,-69 -280,-33 -281,204 -505,320 -171,89 -301,59 -551,59 48,205 134,308 268,465 153,179 204,143 359,312 846,917 87,1829 292,2392 518,1426 56,1244 56,2148 0,446 103,361 -3,852l-391 1445c-96,198 -116,10 -73,362 41,332 6,438 -21,764 -136,32 -330,73 -439,110 -304,103 -176,42 -285,264 -329,666 -1169,-23 -1298,-180 -253,-308 -153,-439 -599,-439 -76,-329 -244,-774 -244,-1161 0,-520 567,-80 749,105 160,161 195,262 362,432 62,63 840,959 840,381l-401 -820c-181,-495 -368,-137 -602,-619 -206,-426 -368,-322 -594,-627 -231,-311 -129,-612 -598,-623 9,422 183,422 183,917 -527,123 -574,-61 -1036,-61 -269,0 -458,267 -629,-101 -143,-308 17,-470 -468,-510l0 -245c188,-90 224,-61 488,-61 42,-180 61,-187 61,-428 -553,-148 61,-761 61,-978 0,-190 -382,-1528 122,-1528 313,0 781,862 940,1136 254,436 544,881 1194,881 296,0 595,5 809,-167 141,-113 206,-165 349,-261 73,49 557,491 533,78 -10,-180 -335,-318 -482,-435 -170,-134 -296,-347 -478,-438 -281,-140 -524,14 -609,-306 191,-16 217,-61 427,-61 215,0 684,586 915,367l183 -978c-522,0 -740,183 -1280,183 -1806,0 -2047,-794 -2621,-794 -592,0 -1223,611 -1646,611 -1397,0 -1434,-245 -1951,-245 -83,0 -1193,535 -787,-44 174,-248 787,-313 1092,-384 0,-736 -544,-183 -1158,-183 305,-456 793,-420 1110,-843 139,-186 205,-462 292,-686 720,-1856 2377,-1490 2805,-2077 -348,-168 -499,-31 -693,-405 -340,-657 -214,-304 -439,-599 -176,-231 -270,-1419 -270,-1868 0,-287 11,-532 305,-611 193,289 49,636 183,917 138,-37 244,-59 244,-245 0,-1977 -165,-1515 -1299,-2549 -323,-294 -52,-534 -409,-630 -262,1128 -113,597 463,1430 367,530 89,1565 83,2234 -4,469 81,877 -303,980 -163,-120 -199,-259 -246,-495 -78,-394 19,-249 133,-476 69,-137 70,-70 29,-280 -89,-452 -465,-79 -465,-583 0,-319 244,-212 244,-672 0,-535 -463,-429 -490,-1098 -19,-466 -72,-1055 -2,-1387 186,-48 373,-91 562,-131 88,114 199,163 313,276 238,236 166,302 592,629 1085,831 1142,1155 1099,2569 -31,1053 -325,1203 659,2513l252 420c85,207 -56,4 103,202 196,242 787,326 1171,476 475,186 1443,1290 2811,971 -20,-243 -61,-147 -61,-306 0,-236 244,-315 244,-795 -162,-59 -76,118 -152,-139 -57,-193 178,-213 -92,-411 -139,37 -210,15 -238,495 -29,501 -190,603 -554,422 35,-425 209,-125 244,-550 -188,-90 -224,-61 -488,-61 32,-383 195,-361 377,-600 159,-208 205,-471 302,-736 191,-517 479,-891 479,-1598 -663,15 -523,1054 -983,1767 -291,451 -415,270 -236,-422 106,-411 122,-734 209,-1197 108,-580 428,-1755 694,-2116 497,-674 1806,-88 2061,-654zm6497 7307c207,562 375,1142 505,1737 -130,-556 -308,-1163 -505,-1737zm406 7895c-41,162 -85,323 -132,482 46,-159 89,-319 132,-482zm-1127 2932c-313,593 -669,1160 -1064,1696 -37,-146 -101,-321 -86,-445 37,-291 153,-180 153,-383 0,-266 -77,-232 -40,-414 47,-230 163,-96 163,-320 0,-221 -131,-184 -166,-438 -21,-156 44,-225 44,-478 0,-958 -488,-1088 -488,-1344 0,-508 416,-203 638,-29 351,276 232,340 417,743 112,244 408,447 375,718 -37,309 -308,575 54,694zm-1711 2507c-202,234 -412,460 -630,679 -306,-459 -105,-201 -241,-485l-366 0c-129,1555 -1681,1132 -1707,2323 25,-6 55,-17 89,-31 -762,494 -1578,912 -2436,1244 20,-36 24,-85 76,-189 255,-517 899,-583 1340,-857 254,-158 358,-648 722,-926 135,-103 172,-151 284,-265 276,-284 331,-208 657,-381 -534,-1012 289,-213 47,-2131 -48,-381 45,-257 75,-619 -440,-295 -402,-271 -547,-735 -138,-440 -425,-304 -676,-544 -529,-505 -570,-345 -604,-678 -73,-715 -133,-351 -428,-793 53,-201 88,-201 244,-306 310,72 618,279 929,353 431,103 697,26 1132,88 249,35 629,237 842,379 284,190 635,900 252,1003 -308,84 -138,-328 -471,-417 -80,161 -61,-50 -61,184 0,674 297,992 -61,1528l96 88c9,8 23,20 33,28 373,323 234,573 664,801 0,354 -94,487 185,547 103,22 188,-1 334,32 133,30 114,50 229,82zm-13564 4173c-1163,-311 -2264,-775 -3279,-1369 171,-60 63,-103 243,-103 573,0 1274,410 1788,652 337,159 767,216 1033,492 167,173 106,245 215,328zm-4194 -1956c-515,-361 -1004,-757 -1462,-1185 27,-282 125,-352 181,-592 492,41 6,404 812,837 534,287 473,389 469,941zm-2748 -2568c-337,-418 -650,-857 -935,-1314 291,452 606,884 935,1314zm-2020 -3459c-603,-1522 -935,-3182 -935,-4919 0,-504 29,-1001 83,-1490 -64,706 -51,1388 -51,2284 235,-55 499,-221 767,-331 410,-169 1123,-574 1224,-1034 36,-165 20,-351 35,-523 24,-293 74,-153 -74,-434 -330,28 -293,71 -380,353 -118,380 -125,202 -359,373 -392,287 21,854 -724,680 0,-531 244,-906 244,-1283 0,-217 -122,-342 -122,-489 0,-1389 610,-1596 610,-1161 0,535 -303,463 0,917 294,-79 241,-190 391,-406 196,-283 480,-153 462,-22l-72 610c186,86 384,44 466,218 96,204 -67,456 216,456 616,0 706,-506 1803,-218 735,193 634,313 709,-197 106,-730 378,-605 415,-1051 -237,-126 -437,-237 -732,-305 -54,231 -121,288 -171,562 -10,53 38,293 -213,330 -311,47 -63,26 -164,-37 -176,-76 -46,69 -198,-169l-108 -197c-361,-580 -119,-574 -528,-816 -697,-412 -251,-463 -293,-759 -70,-495 -578,-138 -581,-138 -428,0 13,-168 -958,-44 -919,117 -438,411 -810,411 -157,0 -167,-27 -286,-57 391,-1257 962,-2434 1683,-3501 -21,65 -10,33 -11,109 0,18 7,75 7,95 2,689 -1068,1553 -1088,2437 284,66 418,53 572,-221 117,-208 194,-398 302,-615 418,-840 884,-1529 1299,-2364 620,-1247 1243,-1023 437,316 -170,282 -301,544 -475,807 -341,514 -915,1326 -915,1955 415,-9 618,-215 751,-531l834 -1731c144,-280 277,-528 549,-672l163 142c107,136 81,-76 81,163 0,132 -484,959 -584,1126 -124,208 -575,946 -575,1135 0,601 571,-32 813,-469 177,-321 498,-777 590,-1120l305 0c122,232 126,222 3,487 -530,1146 -1353,1255 -311,1837 229,128 280,199 465,390 446,460 539,136 920,850 343,644 563,398 909,861 383,512 596,262 754,528 191,320 -74,714 -113,1042 -137,1164 300,1155 -1103,1155 -97,0 -128,-182 -322,-213 -197,-32 -139,91 -409,91 -245,0 -188,-84 -368,-91 -83,-3 -319,78 -385,81 -482,22 -68,-479 21,-479 230,0 115,40 366,61 167,-250 410,-380 478,-621 128,-454 60,-287 620,-418 0,-889 -532,-740 -792,-489 -192,186 -177,541 -360,739 -785,847 -1367,55 -2018,55 -415,0 -963,-87 -976,489 606,0 1706,-16 1768,733 -309,0 -332,-61 -671,-61 -1992,0 -1586,208 -3068,1080 -806,474 -407,743 -407,1548 302,-202 1225,-1106 1567,-1363 1245,-933 2701,-965 2701,-349 0,193 -647,700 -826,761 -372,128 -233,-57 -563,230 -426,371 -1247,234 -1844,474 -1424,572 -650,966 -608,1041 99,175 0,138 0,366 0,205 207,343 305,489 -69,299 -144,377 -134,518zm-455 -8476c27,-99 56,-198 85,-296 -20,109 -53,189 -85,296zm4100 -6509c241,-211 491,-413 747,-606 -25,34 -43,67 -51,99 1574,131 2214,2630 2439,3972 51,306 94,841 187,1096 247,681 1026,711 1520,1043 -220,946 -1313,176 -1622,-207 -380,-470 -80,-324 -238,-739 -36,-94 -396,-431 -396,-520 0,-306 122,-427 122,-733 0,-132 -102,-285 -141,-408l-164 -1364 -244 0c-77,930 -366,1507 -366,2261 0,1177 302,1716 1112,2430 290,256 806,735 595,1176 -230,-154 -525,-564 -746,-780 -240,-236 -522,-473 -719,-747 -1216,-1698 -365,-3810 -365,-4646 0,-285 -266,-917 -610,-917 -278,0 -283,241 -633,28 -230,-140 -202,-308 -403,-456l-25 18zm1560 -1173c470,-302 960,-575 1468,-818 83,188 364,369 532,446 305,140 454,-31 794,182 548,344 655,614 671,1283 11,479 363,2039 547,2446 101,223 207,418 340,637 663,1094 6,746 -268,329 -624,-951 -393,-566 -595,-1359 -86,-337 -276,-373 -323,-716 -111,-809 130,-2066 -678,-2254 -230,480 12,624 119,1103 121,540 3,1790 3,2442 0,910 540,2266 57,2036 -292,-139 -351,-601 -418,-941 -216,-1093 -358,-2826 -838,-3804 -103,-210 -176,-193 -301,-371 -251,-360 -68,-498 -451,-832 -152,102 -205,217 -305,367 -154,-41 -218,-103 -355,-178zm2660 -1317c244,-89 492,-170 743,-244 -4,452 -91,882 -366,1067 -202,-136 -446,-569 -377,-823zm2288 -605c367,-63 738,-110 1114,-142l487 249c1204,367 868,273 1010,1559 46,417 -12,1027 -175,1431 -179,442 -212,906 -323,1387l-244 0c-106,-456 -61,-679 -61,-1222 0,-216 174,-446 253,-663 279,-771 271,-1787 -764,-1942 -793,-118 -980,-73 -1297,-656zm1625 18846c85,364 509,592 854,672 892,-599 -485,-917 -488,-917 -171,0 -263,127 -366,245zm1890 5867c218,0 274,-36 383,-44 367,-26 148,95 583,-22 157,-42 105,-27 312,-58l1160 -365c-25,-298 -155,-338 -183,-672 -434,36 -292,591 -1159,610 -583,13 -240,49 -632,222 -297,131 -406,20 -586,268 115,65 11,61 122,61zm-305 -19252c0,-466 213,-848 343,-1245 254,-777 1000,-2788 1913,-2788 32,0 134,88 183,122 -40,476 -727,618 -854,1161 549,264 461,-401 254,1660 -66,654 -79,1496 -620,1640 0,-1591 -562,-111 -975,0 -238,-160 -244,-244 -244,-550zm7780 8405c-363,85 -455,76 -750,233 -565,301 -255,108 -659,22 -394,-83 -468,441 -1006,79 231,-316 381,-28 488,-428 -174,-86 116,-61 -366,-61 14,-614 366,-170 366,-550 0,-249 -110,-126 -303,-130 -224,-5 -257,-58 -368,-175 297,-444 497,-122 976,-122 28,0 306,-178 389,-221 157,-82 282,-83 282,-268 0,-426 -870,-733 -1158,-733 -296,0 -335,117 -853,367 -114,-237 -118,-242 -61,-489 584,0 655,-245 976,-245 1461,0 981,807 2080,909l846 68c0,826 812,25 853,979 29,662 353,611 367,1222 -741,62 -384,-183 -1585,-183 -36,-429 -164,-355 -511,-273zm-13328 -2110c0,-297 584,-672 732,-672 862,0 157,1161 -122,1161 -311,0 -610,-167 -610,-489zm6280 489c137,-53 234,-61 427,-61 -119,226 -122,186 -122,489 761,366 554,-368 549,-428 249,6 265,37 427,122l0 367c-557,374 -1504,448 -1280,-489zm-4695 245c0,-219 266,-348 488,-367 -10,463 -226,611 366,611 447,0 -98,-628 288,-596 374,30 401,757 -368,817 -410,32 -774,-51 -774,-465zm854 672c724,0 760,-453 853,-856 169,4 202,4 305,60l182 184c-46,555 -549,657 -549,917 0,265 50,97 27,288 -12,104 -59,201 -72,276 -40,234 22,417 -56,619 -133,345 -530,332 -631,712 211,316 488,156 488,611 0,358 -63,566 -364,682 -389,150 -340,-193 -611,-193 -407,0 -244,243 -244,489 0,136 -437,428 -671,428 -466,0 -767,-425 -793,-733 276,6 242,61 549,61 700,0 366,-237 366,-489 0,-264 449,67 695,-343 269,-448 191,-459 98,-635 -277,74 -141,164 -488,245 -162,-109 -251,-261 -437,-357 -261,-135 -305,3 -515,-217 -842,-881 -385,-1079 -328,-1321 -142,-195 -102,-50 -244,-244 53,-201 88,-201 244,-306 240,64 306,185 478,316 456,346 1291,321 1880,388 318,36 478,-155 242,-302 -353,-219 -1754,239 -1807,-401 182,-88 274,-9 438,46 320,108 592,76 964,76zm-6950 2200c167,-625 1716,-1178 2320,-1220 201,-14 392,19 584,-26 431,-101 155,-253 815,-99 97,418 129,267 -252,787 -591,808 -1862,746 -2743,560 -676,-142 -329,188 -724,-2zm14957 -78c257,55 -18,234 651,78 -143,-537 -638,-167 -976,-672 394,-196 443,-134 789,65 572,328 437,56 811,287 107,66 228,198 351,198 335,0 1691,-1238 3014,-332 199,137 862,727 1036,979 714,1036 184,839 1011,821 42,182 85,182 -35,326 -430,513 -593,-359 -1207,-487 -452,-94 -240,112 -624,-169 -178,-130 -341,-106 -572,-160 -86,-174 -61,116 -61,-367 -538,0 -511,333 -790,-54l241 -69c-41,-499 -465,-230 -476,-227 -338,75 -45,-72 -195,-384 -199,106 -682,384 -793,550 275,146 222,43 429,243l329 281c266,173 504,257 781,440 630,415 936,1665 678,2602 -141,515 -253,768 100,1506 -118,177 -118,97 -212,337 -64,164 -8,274 -214,274 -212,0 -260,-363 -306,-549 -392,-1567 123,-1371 123,-2080 0,-598 -273,-1193 -734,-1465 -1745,-1030 -3046,-2 -3046,-613 0,-284 486,-183 793,-183 -350,-663 324,-748 -485,-736 -947,14 -608,-484 -410,-442zm-17761 3195c0,-209 37,-155 130,-484 249,-880 -300,-369 244,-1036 66,-81 56,-81 133,-173 105,-124 187,-207 287,-323 750,-866 1829,-997 990,-169 -118,117 -174,198 -277,334 -109,145 -190,226 -249,423 -73,246 -15,245 -137,473 -277,519 -277,188 -266,1017 5,381 45,821 -366,855 -93,-194 -61,-278 -61,-550 -158,-84 -427,-147 -427,-367zm1646 -611c215,-323 208,-135 330,-647 291,-1225 438,-782 783,-1109 182,-173 149,-383 533,-383 306,0 483,55 610,244 -173,237 -144,75 -488,306 83,311 208,212 366,428 -254,1092 -508,1157 -946,1439 -293,189 -151,113 -151,517 -937,497 -905,1772 -1341,1772 -611,0 170,-1089 271,-1504 53,-216 -22,-281 -25,-503l364 -70c-8,-361 -89,-344 -305,-489zm3902 -1895c0,0 246,-56 248,-57 340,-127 130,-371 423,-371 389,0 573,120 796,425 312,428 143,316 24,763 -89,332 32,719 -37,1063 -106,523 -902,339 -957,340 -181,4 -435,148 -435,-147 0,-563 732,-508 732,-856 0,-383 -178,-651 -495,-442 -636,418 -1460,2826 -785,2826 310,0 75,-253 305,-733 361,-84 514,-31 914,-62 315,-24 405,-143 697,-218 275,-71 501,-79 756,-159 304,-96 993,-644 1231,378 598,-13 328,-489 671,-489 485,0 658,702 1158,367 -391,-586 -434,-588 -792,-672l0 -183c376,-88 128,-169 538,-57 216,59 381,27 594,83 210,55 294,193 520,213 202,17 310,-56 604,-56 823,0 643,313 725,740 227,1179 373,530 373,2010 999,530 1707,376 1707,1589 -217,-51 -281,-118 -421,-250l-92 -91c-753,-711 -886,150 -1620,-393 -492,-364 -782,-102 -1244,-1258 -367,-918 -673,-330 -1012,-330 -396,0 -423,-134 -690,164 -296,330 -165,873 -1052,728 -453,-74 -430,25 -819,25 -15,-182 -44,-306 -244,-306 -624,0 267,1088 -610,1161 -163,-309 -313,-798 -142,-1181 242,-541 891,-347 1057,-347 102,0 293,-340 416,-439 212,-171 304,-105 377,-417 -161,-80 50,-61 -183,-61 -866,0 -276,518 -1707,183 -69,-144 -53,-223 -122,-367 -332,160 -693,184 -943,461 -185,205 -90,317 -237,496 -149,181 -48,-19 -189,177 -24,34 -75,171 -94,211 337,226 331,103 529,508l310 667 544 494c244,157 92,20 243,245 439,654 659,-208 800,-337 366,-337 2146,-1074 2146,-477 0,209 -76,128 -216,211 -320,188 -91,205 -348,446 -417,391 -129,-62 -533,627 -246,419 -620,201 -1047,479 -281,183 -292,744 -2002,744 -231,0 -345,-348 258,-475 1307,-276 357,-620 135,-958 -144,-219 -15,-176 -251,-298 -136,-70 -227,-50 -338,-150l-373 -665c-114,-297 38,-644 -102,-937 -247,-119 -316,37 -610,61 -169,-253 -150,-161 -268,-526 -73,-226 -122,-373 -197,-597 -78,-233 -328,-985 -328,-1199 0,-654 486,-1266 573,-1503 57,-157 74,-266 140,-410 299,-649 601,-409 994,-409zm5670 489c0,-196 467,-102 640,-157 178,-57 313,-233 454,-28 99,144 66,419 182,619 113,196 257,213 128,483 -297,-79 12,-77 -633,-283 -207,-66 -1,-19 -183,-61 -19,-4 -586,59 -586,-573zm4572 2017c0,-232 96,-330 233,-439 205,-163 570,-430 653,-690 68,-215 22,-398 273,-398 916,0 -253,1366 794,1893 291,146 408,146 679,359 69,54 193,161 260,228 94,95 154,174 218,270 -56,240 -67,248 -244,367 -213,-143 -244,-200 -244,-550 -217,-51 -355,-150 -617,-176 -279,-27 -497,17 -698,-95 -325,-179 -423,-621 -514,-1013 -281,23 -166,49 -376,185l71 487c22,141 -488,279 -488,-428zm-1588 1104c-71,-190 5,-31 -78,-168 -112,-184 -141,-121 -163,-386 233,-84 423,32 650,146 340,171 298,37 692,37 264,1137 1642,701 1821,711 248,13 343,112 622,140 258,26 479,11 527,278 64,351 -279,155 -472,155 -127,0 -678,223 -813,285 -246,113 -500,204 -833,204 -1061,0 -810,-175 -1402,-489 0,-392 17,-347 -122,-611 -333,-155 -221,258 -429,-301zm-11947 546c477,0 338,46 664,133 277,74 283,-59 527,74 261,142 371,584 591,818l901 1175c119,155 222,228 243,490 -309,-7 -380,-99 -720,-317 -172,-111 -508,-331 -630,-469 -308,-346 5,-142 -552,-486 -197,-122 -467,-378 -720,-378 -454,0 -380,137 -793,-61 29,-354 181,-420 427,-550 -68,-142 -235,-428 61,-428zm8901 367c145,217 75,100 161,388 150,503 229,421 377,539l65 57c336,322 197,395 998,527 380,63 630,4 715,322 -1718,0 -1676,-23 -2393,-840 -313,-356 -594,-17 -594,-566 0,-210 478,-412 671,-428zm5914 1100c47,-563 1060,-611 1524,-611 230,0 95,98 412,442 313,340 259,589 259,1085 0,81 -272,550 -610,550 -485,0 -61,-601 -61,-733 0,-257 -312,-794 -549,-794l-976 61zm-3048 550c89,7 279,42 357,70 303,110 88,24 244,185 275,283 295,121 680,112l443 595c169,186 220,556 227,872 903,0 646,-114 1273,-374 755,-312 63,-787 799,-787 0,924 67,355 183,855 -228,110 -447,105 -626,289 -267,275 -39,229 -504,411 -238,93 -466,138 -681,235 -363,164 -293,287 -750,287 -279,0 -137,-83 -482,0 -207,50 -244,112 -455,160l-2353 87c-279,21 -855,148 -855,-247 0,-235 339,-192 585,-330 574,-324 1333,-681 1976,-831 -26,-317 -40,-204 -323,-288 -906,-268 -279,-125 -1039,144 -254,90 -462,127 -702,213 -408,145 -847,415 -1349,297 7,-324 277,-818 511,-960 459,-279 -40,290 1114,-284 872,-434 1915,-137 2094,633 283,0 671,-51 671,-306 0,-373 -393,-129 -654,-383 -180,-175 -348,-386 -382,-656zm1768 122c0,-370 281,-367 488,-367 481,0 -118,568 854,794 0,310 18,368 -248,426 -197,42 -437,59 -545,6 -206,-100 -549,-557 -549,-860zm-8230 2261c0,-594 1158,-546 1158,122 0,621 -1158,293 -1158,-122zm-18099 -3314c-201,150 -469,353 -804,618 -335,260 -657,472 -970,627 -438,225 -858,397 -1264,516 -402,119 -970,181 -1702,181 -603,0 -1171,-110 -1711,-335 -541,-225 -1014,-538 -1425,-945 -389,-397 -702,-887 -938,-1470 -237,-578 -353,-1192 -353,-1840 0,-1002 215,-1849 639,-2555 429,-702 1104,-1258 2024,-1673 818,-371 1787,-627 2900,-768 1117,-141 2319,-247 3606,-318l0 -472c0,-574 -89,-1037 -264,-1390 -174,-353 -416,-627 -728,-816 -317,-203 -697,-335 -1153,-402 -451,-66 -920,-97 -1398,-97 -568,0 -1233,84 -2002,256 -764,172 -1533,424 -2301,750l-143 0 0 -2467c456,-128 1104,-269 1953,-424 849,-154 1684,-234 2515,-234 1005,0 1850,79 2542,234 688,154 1309,432 1859,839 532,397 929,914 1193,1540 264,631 393,1399 393,2304l0 9886 -2466 0 0 -1545zm0 -2017l0 -3985c-581,53 -1318,124 -2207,212 -894,88 -1613,216 -2158,380 -652,199 -1193,499 -1617,905 -425,406 -639,975 -639,1704 0,821 237,1443 706,1862 469,419 1153,631 2055,631 777,0 1474,-163 2100,-494 626,-327 1215,-733 1760,-1214zm-12769 -2264c0,-719 -103,-1311 -313,-1778 -210,-468 -630,-865 -1264,-1187 -411,-216 -858,-353 -1340,-415 -483,-57 -1166,-88 -2055,-88l-2936 0 0 7070 2100 0c1130,0 2024,-53 2676,-155 652,-101 1229,-322 1725,-653 487,-335 840,-715 1068,-1139 228,-424 340,-975 340,-1655zm-912 -8703c0,-459 -80,-861 -237,-1196 -156,-340 -407,-605 -755,-803 -416,-230 -885,-371 -1398,-424 -514,-49 -1220,-75 -2127,-75l-2480 0 0 5587 2936 0c813,0 1407,-40 1792,-123 380,-79 777,-247 1184,-503 393,-247 675,-574 840,-975 165,-402 246,-896 246,-1487zm3619 8615c0,958 -183,1805 -550,2538 -366,733 -858,1337 -1479,1809 -733,569 -1519,975 -2355,1209 -840,238 -1921,357 -3244,357l-5590 0 0 -19250 5170 0c1389,0 2431,44 3123,137 693,88 1358,300 1997,636 697,371 1206,856 1532,1456 322,596 483,1302 483,2110 0,905 -241,1712 -724,2427 -487,715 -1157,1275 -2011,1681l0 106c1157,309 2055,878 2694,1699 634,825 952,1854 952,3085zm-15118 5914l-2600 0 0 -16585 -5080 11289 -1568 0 -5040 -11289 0 16585 -2413 0 0 -19250 3525 0 4870 10720 4696 -10720 3610 0 0 19250zm-23193 -7573l-3003 -9038 -2994 9038 5996 0zm-11117 7573l6577 -19250 3199 0 6577 19250 -2743 0 -1760 -5349 -7462 0 -1756 5349 -2632 0zm-6621 344c-1412,0 -2614,-146 -3601,-433 -992,-291 -1921,-649 -2793,-1068l0 -3213 183 0c853,790 1818,1403 2900,1836 1077,437 2118,653 3119,653 1425,0 2507,-296 3239,-883 728,-591 1095,-1364 1095,-2326 0,-768 -192,-1390 -572,-1871 -384,-481 -992,-838 -1823,-1068 -603,-172 -1153,-318 -1649,-428 -496,-110 -1121,-265 -1872,-455 -670,-172 -1273,-388 -1805,-658 -532,-265 -1001,-613 -1412,-1046 -402,-424 -715,-918 -934,-1492 -223,-574 -335,-1236 -335,-1986 0,-1558 617,-2864 1845,-3919 1233,-1055 2801,-1584 4714,-1584 1090,0 2122,106 3096,322 974,216 1872,525 2703,922l0 3072 -197 0c-617,-560 -1412,-1050 -2381,-1465 -965,-419 -1979,-627 -3043,-627 -1206,0 -2176,278 -2918,830 -742,556 -1113,1284 -1113,2189 0,812 219,1461 652,1946 433,481 1063,830 1885,1055 550,146 1224,313 2015,499 795,185 1452,353 1975,512 1345,402 2328,1015 2945,1831 621,821 929,1827 929,3023 0,750 -156,1492 -465,2224 -308,733 -742,1355 -1300,1862 -626,560 -1336,989 -2127,1293 -786,300 -1774,450 -2958,450zm80820 4051c-1311,-727 -2509,-1633 -3561,-2685 -2894,-2894 -4685,-6893 -4685,-11309 0,-4416 1790,-8415 4685,-11309 1052,-1052 2250,-1958 3561,-2685l-82216 0c-3847,0 -7346,1575 -9883,4112 -2537,2537 -4112,6035 -4112,9883 0,3847 1575,7346 4112,9883 2537,2537 6035,4112 9883,4112l82216 0zm7748 -27989c-3865,0 -7363,1566 -9896,4099 -2532,2532 -4099,6031 -4099,9896 0,3865 1566,7363 4099,9896 2532,2532 6031,4099 9896,4099 120,0 240,-2 360,-5l2 0c59,-1 118,-3 177,-6 3635,-139 6926,-1683 9344,-4101 2418,-2418 3962,-5710 4101,-9344 2,-59 4,-118 6,-177l0 -2c3,-120 5,-239 5,-360 0,-120 -2,-240 -5,-360l0 -2c-1,-59 -3,-118 -6,-177 -139,-3635 -1683,-6926 -4101,-9344 -2418,-2418 -5710,-3962 -9344,-4101 -59,-2 -118,-4 -177,-6l-2 0c-120,-3 -239,-5 -360,-5z"/>
</svg>
