<svg xmlns="http://www.w3.org/2000/svg" width="340" height="85" viewBox="0 0 170 42.5" xmlns:v="https://vecta.io/nano">

<path d="M167.194 38.223h-1.39V30.62h1.39zm-2.57 0h-1.371v-5.356h1.37zm-1.606-6.856c0-.512.418-.91.922-.91a.9.9 0 0 1 .898.91.912.912 0 0 1-.898.903c-.504 0-.922-.418-.922-.903m-3.437 6.906a2.67 2.67 0 0 1-2.711-2.718c0-1.594 1.265-2.743 2.765-2.743 1.22 0 2.258.762 2.559 2.016h-1.457c-.227-.441-.621-.719-1.137-.719-.746 0-1.347.598-1.347 1.438 0 .832.601 1.433 1.347 1.433.485 0 .86-.246 1.094-.644h1.465c-.34 1.273-1.446 1.937-2.578 1.937m-3.63-2.953v2.903h-1.425V35.64c0-.184.129-1.532-.898-1.586-.504-.032-1.403.246-1.403 1.652v2.516h-1.414v-5.356h1.09l.184.653h.18c.226-.266.73-.704 1.628-.704 1.383 0 2.059 1.028 2.059 2.504m-6.406-2.453v5.356h-1.07l-.192-.602h-.14c-.216.27-.684.652-1.563.652-1.426 0-2.153-1.003-2.153-2.503v-2.903h1.457v2.582c0 .664.051 1.582.973 1.582.473 0 1.242-.246 1.242-1.648v-2.516zm-7.442 2.676c0-.832-.492-1.488-1.308-1.488s-1.36.656-1.36 1.488.547 1.488 1.36 1.488 1.308-.652 1.308-1.488m-4.07.012c0-1.715 1.328-2.739 2.762-2.739 1.445 0 2.71 1.036 2.71 2.72 0 1.702-1.308 2.737-2.753 2.737-1.454 0-2.72-1.035-2.72-2.718m-.59.418c-.425 1.433-1.624 2.3-3.073 2.3-1.957 0-3.383-1.605-3.383-3.8s1.414-3.801 3.375-3.801a3.14 3.14 0 0 1 3.082 2.305h-1.617c-.278-.602-.781-.891-1.446-.891-1.218 0-1.914.996-1.914 2.387s.707 2.39 1.938 2.39c.664 0 1.144-.289 1.422-.89zm-9.87-.653v2.903h-1.438V35.64c0-.524.086-1.586-.875-1.586-.472 0-1.382.246-1.382 1.652v2.516h-1.434V30.62h1.36v2.805h.179c.258-.27.75-.61 1.543-.61 1.383 0 2.047 1.028 2.047 2.504m-8.602 2.953a2.67 2.67 0 0 1-2.707-2.718c0-1.594 1.262-2.743 2.762-2.743a2.56 2.56 0 0 1 2.559 2.016h-1.454c-.226-.441-.62-.719-1.136-.719-.75 0-1.352.598-1.352 1.438 0 .832.602 1.433 1.352 1.433.48 0 .855-.246 1.093-.644h1.465c-.343 1.273-1.445 1.937-2.582 1.937m-3.027-5.46v1.37a2.84 2.84 0 0 0-.473-.042c-.75 0-1.531.386-1.531 1.37v2.712h-1.422v-5.356h1.09l.191.59h.172c.235-.234.762-.645 1.64-.645zm-6.168 3.16v-.106c-.977.106-1.941.223-1.941.781 0 .813 1.851.75 1.941-.675m1.945 1.218v1.032h-.32c-.621 0-1.059-.227-1.242-.688-.32.442-.856.738-1.692.738-1.21 0-1.98-.62-1.98-1.582 0-1.671 2.281-1.82 3.308-1.875-.019-.62-.363-.843-.91-.843-.761 0-.812.457-.812.457h-1.34c.098-.953.879-1.618 2.184-1.618 1.277 0 2.175.633 2.175 2.188v1.422c0 .621.223.77.63.77m-9.766-2.32h2.41c-.16-.634-.598-.892-1.137-.892-.586 0-1.058.332-1.273.891m3.824 1.082h-3.91c.164.813.824 1.113 1.406 1.113.727 0 1.035-.453 1.035-.453h1.352c-.407 1.074-1.383 1.66-2.434 1.66-1.445 0-2.707-1.101-2.707-2.77 0-1.66 1.254-2.69 2.664-2.69 1.371 0 2.766.953 2.594 3.14m-8-2.004c-.45 0-.64.227-.64.45 0 .363.48.472.8.535.953.203 1.918.492 1.918 1.628 0 1.102-.91 1.711-2.012 1.711-1.234 0-2.187-.746-2.25-1.882h1.317c.03.32.246.738.898.738.547 0 .676-.29.676-.516 0-.394-.375-.511-.738-.597-.633-.141-1.993-.399-1.993-1.618 0-1.046 1.008-1.586 2.047-1.586 1.2 0 1.989.731 2.055 1.63h-1.316c-.043-.18-.215-.493-.762-.493m-6.746.922h2.41c-.16-.633-.602-.89-1.137-.89-.59 0-1.058.331-1.273.89m3.824 1.082h-3.91c.16.813.824 1.113 1.402 1.113.73 0 1.04-.453 1.04-.453h1.35c-.41 1.074-1.382 1.66-2.433 1.66-1.445 0-2.707-1.101-2.707-2.77 0-1.66 1.254-2.69 2.664-2.69 1.371 0 2.766.953 2.594 3.14m-9.543-1.812h1.18c.61 0 1.015-.47 1.015-1.09s-.418-.985-1.015-.985h-1.18zm2.484 4.082l-1.593-2.754h-.891v2.754h-1.36v-7.496H86.6c1.23 0 2.324.824 2.324 2.3a2.386 2.386 0 0 1-1.351 2.188l1.812 3.008zm80.036-15.243c-.45 0-.641.223-.641.45 0 .363.48.472.805.535.953.203 1.914.492 1.914 1.625 0 1.105-.91 1.715-2.012 1.715-1.23 0-2.184-.75-2.25-1.883h1.316c.036.32.246.738.903.738.543 0 .672-.289.672-.515 0-.395-.375-.512-.739-.598-.632-.14-1.992-.399-1.992-1.617 0-1.051 1.008-1.586 2.047-1.586 1.2 0 1.992.73 2.055 1.629h-1.317c-.043-.184-.215-.493-.761-.493m-6.747.918h2.41c-.16-.628-.597-.886-1.136-.886-.586 0-1.059.332-1.274.886m3.825 1.082h-3.91c.16.817.824 1.114 1.402 1.114.73 0 1.039-.45 1.039-.45h1.352c-.407 1.07-1.383 1.66-2.434 1.66-1.445 0-2.707-1.1-2.707-2.773 0-1.66 1.254-2.687 2.664-2.687 1.371 0 2.766.953 2.594 3.136m-8.578 2.325a2.67 2.67 0 0 1-2.707-2.72c0-1.597 1.261-2.741 2.761-2.741 1.219 0 2.258.761 2.559 2.011h-1.457a1.24 1.24 0 0 0-1.137-.714c-.746 0-1.348.597-1.348 1.433s.602 1.434 1.348 1.434c.484 0 .86-.246 1.094-.64h1.469c-.344 1.273-1.446 1.937-2.582 1.937m-3.63-2.953v2.898h-1.425v-2.578c0-.184.129-1.531-.899-1.586-.503-.031-1.402.246-1.402 1.648v2.516h-1.414v-5.352h1.094l.18.653h.183c.223-.27.727-.707 1.625-.707 1.383 0 2.059 1.027 2.059 2.508m-9.887-.454h2.41a1.08 1.08 0 0 0-1.133-.886c-.59 0-1.062.332-1.277.886m3.824 1.082h-3.91c.164.817.824 1.114 1.406 1.114.727 0 1.035-.45 1.035-.45h1.352c-.406 1.07-1.383 1.66-2.43 1.66-1.449 0-2.71-1.1-2.71-2.773 0-1.66 1.253-2.687 2.667-2.687 1.371 0 2.762.953 2.59 3.136m-6.254 2.27h-1.37v-5.352h1.37zm-1.605-6.852c0-.511.418-.91.922-.91a.9.9 0 0 1 .898.91c0 .48-.406.899-.898.899-.504 0-.922-.418-.922-.899m-3.438 6.907c-1.488 0-2.71-1.145-2.71-2.72 0-1.597 1.265-2.741 2.765-2.741 1.219 0 2.258.761 2.559 2.011h-1.457c-.227-.437-.622-.714-1.137-.714-.75 0-1.348.597-1.348 1.433s.598 1.434 1.348 1.434c.484 0 .86-.246 1.094-.64h1.464c-.34 1.273-1.445 1.937-2.578 1.937m-5.89 0c-1.637 0-2.774-1.07-2.774-2.473h1.395c.125.93.898 1.145 1.367 1.145.363 0 1.094-.13 1.094-.825 0-.632-.61-.886-1.22-1.125-1.007-.394-2.433-.879-2.433-2.3 0-1.262 1.106-2.036 2.442-2.036 1.554 0 2.422 1.04 2.422 1.993h-1.371c-.075-.418-.536-.684-1.07-.684-.516 0-.942.254-.942.727 0 .46.414.644 1.144.972.782.356 2.45.774 2.45 2.465 0 1.402-1.145 2.14-2.504 2.14m-6.532-.054h-1.39v-7.602h1.39zm-4.039-2.246v-.11c-.972.11-1.937.227-1.937.786 0 .812 1.855.746 1.937-.676m1.95 1.219v1.027h-.32c-.622 0-1.06-.223-1.243-.684-.32.438-.855.739-1.691.739-1.211 0-1.98-.621-1.98-1.586 0-1.668 2.28-1.82 3.308-1.871-.024-.621-.363-.848-.91-.848-.762 0-.817.46-.817.46h-1.336c.094-.952.88-1.616 2.184-1.616 1.273 0 2.172.633 2.172 2.183v1.426c0 .621.226.77.633.77m-8.598 1.082c-1.488 0-2.711-1.145-2.711-2.72 0-1.597 1.266-2.741 2.766-2.741 1.218 0 2.257.761 2.558 2.011h-1.457c-.222-.437-.62-.714-1.137-.714-.746 0-1.347.597-1.347 1.433s.601 1.434 1.347 1.434c.485 0 .86-.246 1.094-.64h1.465c-.34 1.273-1.441 1.937-2.578 1.937m-3.703-.055h-1.371v-5.352h1.37zm-1.61-6.852c0-.511.418-.91.922-.91.492 0 .899.399.899.91 0 .48-.407.899-.899.899-.504 0-.922-.418-.922-.899m-2.75 2.582c-.449 0-.644.223-.644.45 0 .363.484.472.805.535.953.203 1.914.492 1.914 1.625 0 1.105-.91 1.715-2.012 1.715-1.23 0-2.184-.75-2.246-1.883h1.316c.031.32.246.738.899.738.547 0 .675-.289.675-.515 0-.395-.375-.512-.738-.598-.633-.14-1.992-.399-1.992-1.617 0-1.051 1.004-1.586 2.043-1.586 1.2 0 1.992.73 2.055 1.629h-1.317c-.043-.184-.21-.493-.758-.493m-2.699-1.082l-1.863 5.555c-.3.89-.652 1.992-2.27 1.992-.964 0-1.468-.383-1.629-.586l.676-.953c.055.051.383.332.836.332s.75-.183.867-.547l.149-.437h-.719l-1.84-5.356h1.489l1.347 3.899h.215l1.305-3.899zm-6.18 2.454v2.898h-1.433v-2.578c0-.524.086-1.586-.879-1.586-.473 0-1.383.246-1.383 1.648v2.516h-1.433v-7.602h1.359v2.805h.184c.257-.266.75-.61 1.539-.61 1.382 0 2.047 1.028 2.047 2.509m-7.57-2.293c0-.633-.419-.985-1.016-.985h-1.395v2.078h1.395c.609 0 1.015-.472 1.015-1.093m1.414 0c0 1.476-1.093 2.41-2.324 2.41h-1.5v2.781h-1.36v-7.492h2.86c1.23 0 2.324.812 2.324 2.3m71.586-8.453c0-.89-.48-1.414-1.18-1.414-.652 0-1.304.473-1.304 1.414s.652 1.415 1.305 1.415c.699 0 1.18-.528 1.18-1.415m1.339-4.925v7.601h-1.05l-.15-.511h-.163c-.328.363-.781.566-1.356.566-1.363 0-2.496-1.113-2.496-2.73s1.133-2.731 2.496-2.731c.555 0 1.035.191 1.38.578V8.68zm-6.137 4.699v2.902h-1.425V13.7c0-.18.128-1.527-.899-1.582-.504-.031-1.402.246-1.402 1.649v2.515h-1.414V10.93h1.093l.18.652h.184c.222-.27.726-.707 1.629-.707 1.379 0 2.054 1.027 2.054 2.504m-7.882.656v-.11c-.973.11-1.938.227-1.938.782 0 .813 1.852.75 1.938-.672m1.949 1.219v1.027h-.32c-.622 0-1.06-.222-1.243-.683-.32.437-.855.738-1.691.738-1.211 0-1.98-.621-1.98-1.586 0-1.668 2.28-1.82 3.308-1.875-.023-.621-.363-.844-.91-.844-.762 0-.817.461-.817.461h-1.336c.094-.953.88-1.617 2.184-1.617 1.273 0 2.172.633 2.172 2.184v1.425c0 .621.226.77.633.77m-12.442-2.582c0 .41.29.707.91.707.61 0 .91-.297.91-.707 0-.395-.3-.672-.91-.672s-.91.266-.91.672m2.024 3.996c0-.29-.239-.516-.836-.516-.301 0-.719 0-1.028-.011l-.363.386c-.066.27.203.707 1.145.707.695 0 1.082-.226 1.082-.566m1.316.043c-.043 1.207-1.144 1.766-2.422 1.766-1.66 0-2.61-.954-2.363-2.11l.61-.492c-.344-.215-.567-.547-.567-.941 0-.442.277-.75.66-.954-.363-.332-.543-.78-.543-1.285 0-1.027.79-1.832 2.14-1.832.473 0 .888.098 1.22.27.582-.27.91-.7.91-.7l.664.891s-.364.246-.856.395c.203.281.313.613.313.965 0 1.02-.934 1.832-2.281 1.832-.282 0-.536-.032-.762-.098a.314.314 0 0 0-.16.27c0 .382.59.32.953.32h.75c1.176 0 1.765.8 1.734 1.703m-5.707-3.332v2.902h-1.426V13.7c0-.18.13-1.527-.898-1.582-.504-.031-1.402.246-1.402 1.649v2.515h-1.414V10.93h1.093l.18.652h.184c.226-.27.726-.707 1.625-.707 1.382 0 2.058 1.027 2.058 2.504m-6.469 2.902h-1.37v-5.355h1.37zm-1.605-6.851a.91.91 0 0 1 .922-.91c.492 0 .898.394.898.91 0 .48-.406.898-.898.898-.504 0-.922-.418-.922-.898m-.695 1.445v1.371a2.474 2.474 0 0 0-.473-.043c-.75 0-1.531.383-1.531 1.371v2.707h-1.422V10.93h1.09l.195.586h.168c.234-.235.762-.641 1.64-.641zm-8.172 2.055h2.41c-.164-.633-.602-.887-1.137-.887-.59 0-1.058.332-1.273.887m3.824 1.082h-3.91c.16.812.824 1.113 1.402 1.113.73 0 1.04-.45 1.04-.45h1.347c-.406 1.071-1.38 1.66-2.43 1.66-1.445 0-2.707-1.105-2.707-2.773 0-1.66 1.25-2.687 2.664-2.687 1.371 0 2.762.953 2.594 3.137m-9.832-1.082h2.41a1.08 1.08 0 0 0-1.137-.887c-.59 0-1.058.332-1.273.887m3.824 1.082h-3.91c.16.812.824 1.113 1.402 1.113.73 0 1.04-.45 1.04-.45h1.35c-.41 1.071-1.382 1.66-2.433 1.66-1.445 0-2.707-1.105-2.707-2.773 0-1.66 1.25-2.687 2.664-2.687 1.371 0 2.762.953 2.594 3.137m-6.18-.633v2.902h-1.425V13.7c0-.18.129-1.527-.899-1.582-.504-.031-1.402.246-1.402 1.649v2.515h-1.414V10.93h1.094l.18.652h.183c.226-.27.726-.707 1.629-.707 1.379 0 2.054 1.027 2.054 2.504m-6.468 2.902h-1.371v-5.355h1.37zm-1.606-6.851a.91.91 0 0 1 .922-.91.9.9 0 0 1 .899.91c0 .48-.407.898-.899.898-.504 0-.922-.418-.922-.898m-4.261 3.242c0 .41.289.707.91.707.609 0 .91-.297.91-.707 0-.395-.301-.672-.91-.672s-.91.266-.91.672m2.023 3.996c0-.29-.234-.516-.836-.516-.3 0-.719 0-1.027-.011l-.364.386c-.066.27.204.707 1.145.707.695 0 1.082-.226 1.082-.566m1.316.043c-.043 1.207-1.144 1.766-2.418 1.766-1.66 0-2.613-.954-2.367-2.11l.61-.492c-.344-.215-.567-.547-.567-.941 0-.442.278-.75.664-.954-.367-.332-.547-.78-.547-1.285 0-1.027.793-1.832 2.141-1.832.473 0 .89.098 1.223.27.578-.27.906-.7.906-.7l.664.891s-.363.246-.856.395a1.63 1.63 0 0 1 .313.965c0 1.02-.934 1.832-2.281 1.832-.278 0-.535-.032-.762-.098a.314.314 0 0 0-.16.27c0 .382.59.32.953.32h.75c1.18 0 1.766.8 1.734 1.703m-5.707-3.332v2.902h-1.425V13.7c0-.18.128-1.527-.899-1.582-.504-.031-1.402.246-1.402 1.649v2.515h-1.414V10.93h1.093l.18.652h.184c.226-.27.726-.707 1.629-.707 1.379 0 2.054 1.027 2.054 2.504m-6.18 1.562v1.34h-5.042V8.785h4.937v1.34h-3.535v1.691h3.21v1.34h-3.21v1.785zM37.746 42.473H0V4.73h50.71z" fill="#1e1e5c"/><path d="M29.188 23.602h-5.915v-6.317zM24.03 35.348h-5.16v2.062l-3.629-4.758c2.762-.511 4.192-1.937 4.192-4.43 0-.613-.09-1.16-.262-1.648h4.86zM8.555 26.574h4.027c1.652 0 2.324.645 2.324 1.649s-.672 1.672-2.324 1.672H8.555zm10.316-7.476v6.832c-.937-1.582-3.094-2.32-6.289-2.328 2.852-.29 5.492-1.829 6.29-4.504M33.59 8.883h-4.403l-5.914 6.3v-6.3h-8.55v8.363c0 1.793-1.325 2.832-3.082 2.832s-3.086-1.039-3.086-2.832V8.883H4.152v8.43c0 3.773 3.047 5.937 6.485 6.289H4.152V38.32h4.403v-5.453h1.922l4.066 5.453H33.59v-2.972h-5.16v-8.774h5.16v-3.883l-6.309-6.457 6.309-6.441zm0 0" fill="#fff"/><path d="M75.488 4.73H54.621l-5 34.235 25.867-6.25z" fill="#009485"/><path d="M54.621 32.71V0H37.746v42.477h37.742V32.71zm0 0" fill="#54b89e"/></svg>